<?xml version="1.0" encoding="utf-8" standalone="no"?>
<!DOCTYPE svg PUBLIC "-//W3C//DTD SVG 1.1//EN"
  "http://www.w3.org/Graphics/SVG/1.1/DTD/svg11.dtd">
<svg xmlns:xlink="http://www.w3.org/1999/xlink" width="1144.162384pt" height="352.294687pt" viewBox="0 0 1144.162384 352.294687" xmlns="http://www.w3.org/2000/svg" version="1.1">
 <metadata>
  <rdf:RDF xmlns:dc="http://purl.org/dc/elements/1.1/" xmlns:cc="http://creativecommons.org/ns#" xmlns:rdf="http://www.w3.org/1999/02/22-rdf-syntax-ns#">
   <cc:Work>
    <dc:type rdf:resource="http://purl.org/dc/dcmitype/StillImage"/>
    <dc:date>2026-04-11T12:52:26.167577</dc:date>
    <dc:format>image/svg+xml</dc:format>
    <dc:creator>
     <cc:Agent>
      <dc:title>Matplotlib v3.9.0, https://matplotlib.org/</dc:title>
     </cc:Agent>
    </dc:creator>
   </cc:Work>
  </rdf:RDF>
 </metadata>
 <defs>
  <style type="text/css">*{stroke-linejoin: round; stroke-linecap: butt}</style>
 </defs>
 <g id="figure_1">
  <g id="patch_1">
   <path d="M 0 352.294687 
L 1144.162384 352.294687 
L 1144.162384 0 
L 0 0 
z
" style="fill: #ffffff"/>
  </g>
  <g id="axes_1">
   <g id="patch_2">
    <path d="M 65.542188 311.270625 
L 1128.489472 311.270625 
L 1128.489472 22.370625 
L 65.542188 22.370625 
z
" style="fill: #ffffff"/>
   </g>
   <g id="matplotlib.axis_1">
    <g id="xtick_1">
     <g id="line2d_1">
      <path d="M 113.857973 311.270625 
L 113.857973 22.370625 
" clip-path="url(#pef396c77d9)" style="fill: none; stroke-dasharray: 3.7,1.6; stroke-dashoffset: 0; stroke: #cccccc; stroke-opacity: 0.3"/>
     </g>
     <g id="text_1">
      <!-- 0 -->
      <g style="fill: #262626" transform="translate(110.358598 329.128906) scale(0.11 -0.11)">
       <defs>
        <path id="DejaVuSans-30" d="M 2034 4250 
Q 1547 4250 1301 3770 
Q 1056 3291 1056 2328 
Q 1056 1369 1301 889 
Q 1547 409 2034 409 
Q 2525 409 2770 889 
Q 3016 1369 3016 2328 
Q 3016 3291 2770 3770 
Q 2525 4250 2034 4250 
z
M 2034 4750 
Q 2819 4750 3233 4129 
Q 3647 3509 3647 2328 
Q 3647 1150 3233 529 
Q 2819 -91 2034 -91 
Q 1250 -91 836 529 
Q 422 1150 422 2328 
Q 422 3509 836 4129 
Q 1250 4750 2034 4750 
z
" transform="scale(0.015625)"/>
       </defs>
       <use xlink:href="#DejaVuSans-30"/>
      </g>
     </g>
    </g>
    <g id="xtick_2">
     <g id="line2d_2">
      <path d="M 258.516014 311.270625 
L 258.516014 22.370625 
" clip-path="url(#pef396c77d9)" style="fill: none; stroke-dasharray: 3.7,1.6; stroke-dashoffset: 0; stroke: #cccccc; stroke-opacity: 0.3"/>
     </g>
     <g id="text_2">
      <!-- 25 -->
      <g style="fill: #262626" transform="translate(251.517264 329.128906) scale(0.11 -0.11)">
       <defs>
        <path id="DejaVuSans-32" d="M 1228 531 
L 3431 531 
L 3431 0 
L 469 0 
L 469 531 
Q 828 903 1448 1529 
Q 2069 2156 2228 2338 
Q 2531 2678 2651 2914 
Q 2772 3150 2772 3378 
Q 2772 3750 2511 3984 
Q 2250 4219 1831 4219 
Q 1534 4219 1204 4116 
Q 875 4013 500 3803 
L 500 4441 
Q 881 4594 1212 4672 
Q 1544 4750 1819 4750 
Q 2544 4750 2975 4387 
Q 3406 4025 3406 3419 
Q 3406 3131 3298 2873 
Q 3191 2616 2906 2266 
Q 2828 2175 2409 1742 
Q 1991 1309 1228 531 
z
" transform="scale(0.015625)"/>
        <path id="DejaVuSans-35" d="M 691 4666 
L 3169 4666 
L 3169 4134 
L 1269 4134 
L 1269 2991 
Q 1406 3038 1543 3061 
Q 1681 3084 1819 3084 
Q 2600 3084 3056 2656 
Q 3513 2228 3513 1497 
Q 3513 744 3044 326 
Q 2575 -91 1722 -91 
Q 1428 -91 1123 -41 
Q 819 9 494 109 
L 494 744 
Q 775 591 1075 516 
Q 1375 441 1709 441 
Q 2250 441 2565 725 
Q 2881 1009 2881 1497 
Q 2881 1984 2565 2268 
Q 2250 2553 1709 2553 
Q 1456 2553 1204 2497 
Q 953 2441 691 2322 
L 691 4666 
z
" transform="scale(0.015625)"/>
       </defs>
       <use xlink:href="#DejaVuSans-32"/>
       <use xlink:href="#DejaVuSans-35" x="63.623047"/>
      </g>
     </g>
    </g>
    <g id="xtick_3">
     <g id="line2d_3">
      <path d="M 403.174055 311.270625 
L 403.174055 22.370625 
" clip-path="url(#pef396c77d9)" style="fill: none; stroke-dasharray: 3.7,1.6; stroke-dashoffset: 0; stroke: #cccccc; stroke-opacity: 0.3"/>
     </g>
     <g id="text_3">
      <!-- 50 -->
      <g style="fill: #262626" transform="translate(396.175305 329.128906) scale(0.11 -0.11)">
       <use xlink:href="#DejaVuSans-35"/>
       <use xlink:href="#DejaVuSans-30" x="63.623047"/>
      </g>
     </g>
    </g>
    <g id="xtick_4">
     <g id="line2d_4">
      <path d="M 547.832096 311.270625 
L 547.832096 22.370625 
" clip-path="url(#pef396c77d9)" style="fill: none; stroke-dasharray: 3.7,1.6; stroke-dashoffset: 0; stroke: #cccccc; stroke-opacity: 0.3"/>
     </g>
     <g id="text_4">
      <!-- 75 -->
      <g style="fill: #262626" transform="translate(540.833346 329.128906) scale(0.11 -0.11)">
       <defs>
        <path id="DejaVuSans-37" d="M 525 4666 
L 3525 4666 
L 3525 4397 
L 1831 0 
L 1172 0 
L 2766 4134 
L 525 4134 
L 525 4666 
z
" transform="scale(0.015625)"/>
       </defs>
       <use xlink:href="#DejaVuSans-37"/>
       <use xlink:href="#DejaVuSans-35" x="63.623047"/>
      </g>
     </g>
    </g>
    <g id="xtick_5">
     <g id="line2d_5">
      <path d="M 692.490137 311.270625 
L 692.490137 22.370625 
" clip-path="url(#pef396c77d9)" style="fill: none; stroke-dasharray: 3.7,1.6; stroke-dashoffset: 0; stroke: #cccccc; stroke-opacity: 0.3"/>
     </g>
     <g id="text_5">
      <!-- 100 -->
      <g style="fill: #262626" transform="translate(681.992012 329.128906) scale(0.11 -0.11)">
       <defs>
        <path id="DejaVuSans-31" d="M 794 531 
L 1825 531 
L 1825 4091 
L 703 3866 
L 703 4441 
L 1819 4666 
L 2450 4666 
L 2450 531 
L 3481 531 
L 3481 0 
L 794 0 
L 794 531 
z
" transform="scale(0.015625)"/>
       </defs>
       <use xlink:href="#DejaVuSans-31"/>
       <use xlink:href="#DejaVuSans-30" x="63.623047"/>
       <use xlink:href="#DejaVuSans-30" x="127.246094"/>
      </g>
     </g>
    </g>
    <g id="xtick_6">
     <g id="line2d_6">
      <path d="M 837.148177 311.270625 
L 837.148177 22.370625 
" clip-path="url(#pef396c77d9)" style="fill: none; stroke-dasharray: 3.7,1.6; stroke-dashoffset: 0; stroke: #cccccc; stroke-opacity: 0.3"/>
     </g>
     <g id="text_6">
      <!-- 125 -->
      <g style="fill: #262626" transform="translate(826.650052 329.128906) scale(0.11 -0.11)">
       <use xlink:href="#DejaVuSans-31"/>
       <use xlink:href="#DejaVuSans-32" x="63.623047"/>
       <use xlink:href="#DejaVuSans-35" x="127.246094"/>
      </g>
     </g>
    </g>
    <g id="xtick_7">
     <g id="line2d_7">
      <path d="M 981.806218 311.270625 
L 981.806218 22.370625 
" clip-path="url(#pef396c77d9)" style="fill: none; stroke-dasharray: 3.7,1.6; stroke-dashoffset: 0; stroke: #cccccc; stroke-opacity: 0.3"/>
     </g>
     <g id="text_7">
      <!-- 150 -->
      <g style="fill: #262626" transform="translate(971.308093 329.128906) scale(0.11 -0.11)">
       <use xlink:href="#DejaVuSans-31"/>
       <use xlink:href="#DejaVuSans-35" x="63.623047"/>
       <use xlink:href="#DejaVuSans-30" x="127.246094"/>
      </g>
     </g>
    </g>
    <g id="xtick_8">
     <g id="line2d_8">
      <path d="M 1126.464259 311.270625 
L 1126.464259 22.370625 
" clip-path="url(#pef396c77d9)" style="fill: none; stroke-dasharray: 3.7,1.6; stroke-dashoffset: 0; stroke: #cccccc; stroke-opacity: 0.3"/>
     </g>
     <g id="text_8">
      <!-- 175 -->
      <g style="fill: #262626" transform="translate(1115.966134 329.128906) scale(0.11 -0.11)">
       <use xlink:href="#DejaVuSans-31"/>
       <use xlink:href="#DejaVuSans-37" x="63.623047"/>
       <use xlink:href="#DejaVuSans-35" x="127.246094"/>
      </g>
     </g>
    </g>
    <g id="text_9">
     <!-- Шаг прогноза [ч] -->
     <g style="fill: #262626" transform="translate(551.763486 343.015) scale(0.1 -0.1)">
      <defs>
       <path id="DejaVuSans-428" d="M 3738 531 
L 5584 531 
L 5584 4666 
L 6216 4666 
L 6216 0 
L 628 0 
L 628 4666 
L 1259 4666 
L 1259 531 
L 3106 531 
L 3106 4666 
L 3738 4666 
L 3738 531 
z
" transform="scale(0.015625)"/>
       <path id="DejaVuSans-430" d="M 2194 1759 
Q 1497 1759 1228 1600 
Q 959 1441 959 1056 
Q 959 750 1161 570 
Q 1363 391 1709 391 
Q 2188 391 2477 730 
Q 2766 1069 2766 1631 
L 2766 1759 
L 2194 1759 
z
M 3341 1997 
L 3341 0 
L 2766 0 
L 2766 531 
Q 2569 213 2275 61 
Q 1981 -91 1556 -91 
Q 1019 -91 701 211 
Q 384 513 384 1019 
Q 384 1609 779 1909 
Q 1175 2209 1959 2209 
L 2766 2209 
L 2766 2266 
Q 2766 2663 2505 2880 
Q 2244 3097 1772 3097 
Q 1472 3097 1187 3025 
Q 903 2953 641 2809 
L 641 3341 
Q 956 3463 1253 3523 
Q 1550 3584 1831 3584 
Q 2591 3584 2966 3190 
Q 3341 2797 3341 1997 
z
" transform="scale(0.015625)"/>
       <path id="DejaVuSans-433" d="M 581 0 
L 581 3500 
L 3050 3500 
L 3050 3041 
L 1159 3041 
L 1159 0 
L 581 0 
z
" transform="scale(0.015625)"/>
       <path id="DejaVuSans-20" transform="scale(0.015625)"/>
       <path id="DejaVuSans-43f" d="M 3603 3500 
L 3603 0 
L 3025 0 
L 3025 3041 
L 1159 3041 
L 1159 0 
L 581 0 
L 581 3500 
L 3603 3500 
z
" transform="scale(0.015625)"/>
       <path id="DejaVuSans-440" d="M 1159 525 
L 1159 -1331 
L 581 -1331 
L 581 3500 
L 1159 3500 
L 1159 2969 
Q 1341 3281 1617 3432 
Q 1894 3584 2278 3584 
Q 2916 3584 3314 3078 
Q 3713 2572 3713 1747 
Q 3713 922 3314 415 
Q 2916 -91 2278 -91 
Q 1894 -91 1617 61 
Q 1341 213 1159 525 
z
M 3116 1747 
Q 3116 2381 2855 2742 
Q 2594 3103 2138 3103 
Q 1681 3103 1420 2742 
Q 1159 2381 1159 1747 
Q 1159 1113 1420 752 
Q 1681 391 2138 391 
Q 2594 391 2855 752 
Q 3116 1113 3116 1747 
z
" transform="scale(0.015625)"/>
       <path id="DejaVuSans-43e" d="M 1959 3097 
Q 1497 3097 1228 2736 
Q 959 2375 959 1747 
Q 959 1119 1226 758 
Q 1494 397 1959 397 
Q 2419 397 2687 759 
Q 2956 1122 2956 1747 
Q 2956 2369 2687 2733 
Q 2419 3097 1959 3097 
z
M 1959 3584 
Q 2709 3584 3137 3096 
Q 3566 2609 3566 1747 
Q 3566 888 3137 398 
Q 2709 -91 1959 -91 
Q 1206 -91 779 398 
Q 353 888 353 1747 
Q 353 2609 779 3096 
Q 1206 3584 1959 3584 
z
" transform="scale(0.015625)"/>
       <path id="DejaVuSans-43d" d="M 581 3500 
L 1159 3500 
L 1159 2072 
L 3025 2072 
L 3025 3500 
L 3603 3500 
L 3603 0 
L 3025 0 
L 3025 1613 
L 1159 1613 
L 1159 0 
L 581 0 
L 581 3500 
z
" transform="scale(0.015625)"/>
       <path id="DejaVuSans-437" d="M 2206 1888 
Q 2594 1813 2809 1584 
Q 3025 1356 3025 1019 
Q 3025 478 2622 193 
Q 2219 -91 1475 -91 
Q 1225 -91 961 -47 
Q 697 -3 416 84 
L 416 619 
Q 638 503 903 445 
Q 1169 388 1459 388 
Q 1931 388 2195 563 
Q 2459 738 2459 1019 
Q 2459 1294 2225 1461 
Q 1991 1628 1563 1628 
L 1100 1628 
L 1100 2103 
L 1584 2103 
Q 1947 2103 2158 2242 
Q 2369 2381 2369 2600 
Q 2369 2800 2151 2944 
Q 1934 3088 1563 3088 
Q 1341 3088 1089 3047 
Q 838 3006 534 2916 
L 534 3438 
Q 841 3513 1106 3550 
Q 1372 3588 1609 3588 
Q 2222 3588 2576 3342 
Q 2931 3097 2931 2656 
Q 2931 2366 2743 2164 
Q 2556 1963 2206 1888 
z
" transform="scale(0.015625)"/>
       <path id="DejaVuSans-5b" d="M 550 4863 
L 1875 4863 
L 1875 4416 
L 1125 4416 
L 1125 -397 
L 1875 -397 
L 1875 -844 
L 550 -844 
L 550 4863 
z
" transform="scale(0.015625)"/>
       <path id="DejaVuSans-447" d="M 2625 0 
L 2625 1472 
L 1553 1472 
Q 1075 1472 756 1769 
Q 469 2038 469 2613 
L 469 3500 
L 1044 3500 
L 1044 2666 
Q 1044 2300 1206 2116 
Q 1372 1931 1697 1931 
L 2625 1931 
L 2625 3500 
L 3200 3500 
L 3200 0 
L 2625 0 
z
" transform="scale(0.015625)"/>
       <path id="DejaVuSans-5d" d="M 1947 4863 
L 1947 -844 
L 622 -844 
L 622 -397 
L 1369 -397 
L 1369 4416 
L 622 4416 
L 622 4863 
L 1947 4863 
z
" transform="scale(0.015625)"/>
      </defs>
      <use xlink:href="#DejaVuSans-428"/>
      <use xlink:href="#DejaVuSans-430" x="106.933594"/>
      <use xlink:href="#DejaVuSans-433" x="168.212891"/>
      <use xlink:href="#DejaVuSans-20" x="220.751953"/>
      <use xlink:href="#DejaVuSans-43f" x="252.539062"/>
      <use xlink:href="#DejaVuSans-440" x="317.919922"/>
      <use xlink:href="#DejaVuSans-43e" x="381.396484"/>
      <use xlink:href="#DejaVuSans-433" x="442.578125"/>
      <use xlink:href="#DejaVuSans-43d" x="495.117188"/>
      <use xlink:href="#DejaVuSans-43e" x="560.498047"/>
      <use xlink:href="#DejaVuSans-437" x="621.679688"/>
      <use xlink:href="#DejaVuSans-430" x="674.853516"/>
      <use xlink:href="#DejaVuSans-20" x="736.132812"/>
      <use xlink:href="#DejaVuSans-5b" x="767.919922"/>
      <use xlink:href="#DejaVuSans-447" x="806.933594"/>
      <use xlink:href="#DejaVuSans-5d" x="866.015625"/>
     </g>
    </g>
   </g>
   <g id="matplotlib.axis_2">
    <g id="ytick_1">
     <g id="line2d_9">
      <path d="M 65.542188 272.945117 
L 1128.489472 272.945117 
" clip-path="url(#pef396c77d9)" style="fill: none; stroke-dasharray: 3.7,1.6; stroke-dashoffset: 0; stroke: #cccccc; stroke-opacity: 0.3"/>
     </g>
     <g id="text_10">
      <!-- 40000 -->
      <g style="fill: #262626" transform="translate(21.048438 277.124258) scale(0.11 -0.11)">
       <defs>
        <path id="DejaVuSans-34" d="M 2419 4116 
L 825 1625 
L 2419 1625 
L 2419 4116 
z
M 2253 4666 
L 3047 4666 
L 3047 1625 
L 3713 1625 
L 3713 1100 
L 3047 1100 
L 3047 0 
L 2419 0 
L 2419 1100 
L 313 1100 
L 313 1709 
L 2253 4666 
z
" transform="scale(0.015625)"/>
       </defs>
       <use xlink:href="#DejaVuSans-34"/>
       <use xlink:href="#DejaVuSans-30" x="63.623047"/>
       <use xlink:href="#DejaVuSans-30" x="127.246094"/>
       <use xlink:href="#DejaVuSans-30" x="190.869141"/>
       <use xlink:href="#DejaVuSans-30" x="254.492188"/>
      </g>
     </g>
    </g>
    <g id="ytick_2">
     <g id="line2d_10">
      <path d="M 65.542188 216.700572 
L 1128.489472 216.700572 
" clip-path="url(#pef396c77d9)" style="fill: none; stroke-dasharray: 3.7,1.6; stroke-dashoffset: 0; stroke: #cccccc; stroke-opacity: 0.3"/>
     </g>
     <g id="text_11">
      <!-- 50000 -->
      <g style="fill: #262626" transform="translate(21.048438 220.879713) scale(0.11 -0.11)">
       <use xlink:href="#DejaVuSans-35"/>
       <use xlink:href="#DejaVuSans-30" x="63.623047"/>
       <use xlink:href="#DejaVuSans-30" x="127.246094"/>
       <use xlink:href="#DejaVuSans-30" x="190.869141"/>
       <use xlink:href="#DejaVuSans-30" x="254.492188"/>
      </g>
     </g>
    </g>
    <g id="ytick_3">
     <g id="line2d_11">
      <path d="M 65.542188 160.456027 
L 1128.489472 160.456027 
" clip-path="url(#pef396c77d9)" style="fill: none; stroke-dasharray: 3.7,1.6; stroke-dashoffset: 0; stroke: #cccccc; stroke-opacity: 0.3"/>
     </g>
     <g id="text_12">
      <!-- 60000 -->
      <g style="fill: #262626" transform="translate(21.048438 164.635168) scale(0.11 -0.11)">
       <defs>
        <path id="DejaVuSans-36" d="M 2113 2584 
Q 1688 2584 1439 2293 
Q 1191 2003 1191 1497 
Q 1191 994 1439 701 
Q 1688 409 2113 409 
Q 2538 409 2786 701 
Q 3034 994 3034 1497 
Q 3034 2003 2786 2293 
Q 2538 2584 2113 2584 
z
M 3366 4563 
L 3366 3988 
Q 3128 4100 2886 4159 
Q 2644 4219 2406 4219 
Q 1781 4219 1451 3797 
Q 1122 3375 1075 2522 
Q 1259 2794 1537 2939 
Q 1816 3084 2150 3084 
Q 2853 3084 3261 2657 
Q 3669 2231 3669 1497 
Q 3669 778 3244 343 
Q 2819 -91 2113 -91 
Q 1303 -91 875 529 
Q 447 1150 447 2328 
Q 447 3434 972 4092 
Q 1497 4750 2381 4750 
Q 2619 4750 2861 4703 
Q 3103 4656 3366 4563 
z
" transform="scale(0.015625)"/>
       </defs>
       <use xlink:href="#DejaVuSans-36"/>
       <use xlink:href="#DejaVuSans-30" x="63.623047"/>
       <use xlink:href="#DejaVuSans-30" x="127.246094"/>
       <use xlink:href="#DejaVuSans-30" x="190.869141"/>
       <use xlink:href="#DejaVuSans-30" x="254.492188"/>
      </g>
     </g>
    </g>
    <g id="ytick_4">
     <g id="line2d_12">
      <path d="M 65.542188 104.211482 
L 1128.489472 104.211482 
" clip-path="url(#pef396c77d9)" style="fill: none; stroke-dasharray: 3.7,1.6; stroke-dashoffset: 0; stroke: #cccccc; stroke-opacity: 0.3"/>
     </g>
     <g id="text_13">
      <!-- 70000 -->
      <g style="fill: #262626" transform="translate(21.048438 108.390623) scale(0.11 -0.11)">
       <use xlink:href="#DejaVuSans-37"/>
       <use xlink:href="#DejaVuSans-30" x="63.623047"/>
       <use xlink:href="#DejaVuSans-30" x="127.246094"/>
       <use xlink:href="#DejaVuSans-30" x="190.869141"/>
       <use xlink:href="#DejaVuSans-30" x="254.492188"/>
      </g>
     </g>
    </g>
    <g id="ytick_5">
     <g id="line2d_13">
      <path d="M 65.542188 47.966937 
L 1128.489472 47.966937 
" clip-path="url(#pef396c77d9)" style="fill: none; stroke-dasharray: 3.7,1.6; stroke-dashoffset: 0; stroke: #cccccc; stroke-opacity: 0.3"/>
     </g>
     <g id="text_14">
      <!-- 80000 -->
      <g style="fill: #262626" transform="translate(21.048438 52.146078) scale(0.11 -0.11)">
       <defs>
        <path id="DejaVuSans-38" d="M 2034 2216 
Q 1584 2216 1326 1975 
Q 1069 1734 1069 1313 
Q 1069 891 1326 650 
Q 1584 409 2034 409 
Q 2484 409 2743 651 
Q 3003 894 3003 1313 
Q 3003 1734 2745 1975 
Q 2488 2216 2034 2216 
z
M 1403 2484 
Q 997 2584 770 2862 
Q 544 3141 544 3541 
Q 544 4100 942 4425 
Q 1341 4750 2034 4750 
Q 2731 4750 3128 4425 
Q 3525 4100 3525 3541 
Q 3525 3141 3298 2862 
Q 3072 2584 2669 2484 
Q 3125 2378 3379 2068 
Q 3634 1759 3634 1313 
Q 3634 634 3220 271 
Q 2806 -91 2034 -91 
Q 1263 -91 848 271 
Q 434 634 434 1313 
Q 434 1759 690 2068 
Q 947 2378 1403 2484 
z
M 1172 3481 
Q 1172 3119 1398 2916 
Q 1625 2713 2034 2713 
Q 2441 2713 2670 2916 
Q 2900 3119 2900 3481 
Q 2900 3844 2670 4047 
Q 2441 4250 2034 4250 
Q 1625 4250 1398 4047 
Q 1172 3844 1172 3481 
z
" transform="scale(0.015625)"/>
       </defs>
       <use xlink:href="#DejaVuSans-38"/>
       <use xlink:href="#DejaVuSans-30" x="63.623047"/>
       <use xlink:href="#DejaVuSans-30" x="127.246094"/>
       <use xlink:href="#DejaVuSans-30" x="190.869141"/>
       <use xlink:href="#DejaVuSans-30" x="254.492188"/>
      </g>
     </g>
    </g>
    <g id="text_15">
     <!-- Потребление [кВт·ч] -->
     <g style="fill: #262626" transform="translate(14.96875 221.151094) rotate(-90) scale(0.1 -0.1)">
      <defs>
       <path id="DejaVuSans-41f" d="M 4184 4666 
L 4184 0 
L 3553 0 
L 3553 4134 
L 1259 4134 
L 1259 0 
L 628 0 
L 628 4666 
L 4184 4666 
z
" transform="scale(0.015625)"/>
       <path id="DejaVuSans-442" d="M 188 3500 
L 3541 3500 
L 3541 3041 
L 2147 3041 
L 2147 0 
L 1581 0 
L 1581 3041 
L 188 3041 
L 188 3500 
z
" transform="scale(0.015625)"/>
       <path id="DejaVuSans-435" d="M 3597 1894 
L 3597 1613 
L 953 1613 
Q 991 1019 1311 708 
Q 1631 397 2203 397 
Q 2534 397 2845 478 
Q 3156 559 3463 722 
L 3463 178 
Q 3153 47 2828 -22 
Q 2503 -91 2169 -91 
Q 1331 -91 842 396 
Q 353 884 353 1716 
Q 353 2575 817 3079 
Q 1281 3584 2069 3584 
Q 2775 3584 3186 3129 
Q 3597 2675 3597 1894 
z
M 3022 2063 
Q 3016 2534 2758 2815 
Q 2500 3097 2075 3097 
Q 1594 3097 1305 2825 
Q 1016 2553 972 2059 
L 3022 2063 
z
" transform="scale(0.015625)"/>
       <path id="DejaVuSans-431" d="M 1991 3584 
Q 2741 3584 3169 3096 
Q 3597 2609 3597 1747 
Q 3597 888 3169 398 
Q 2741 -91 1991 -91 
Q 1238 -91 822 384 
Q 406 859 384 1747 
L 366 2463 
Q 350 2834 350 2963 
Q 350 3463 531 3831 
Q 816 4409 1308 4659 
Q 1800 4909 2625 4916 
Q 3006 4919 3175 4972 
L 3334 4516 
Q 3181 4453 3041 4450 
L 2259 4397 
Q 1866 4369 1628 4231 
Q 1006 3866 947 3388 
L 925 3213 
Q 1331 3584 1991 3584 
z
M 1991 3097 
Q 1528 3097 1259 2736 
Q 991 2375 991 1747 
Q 991 1119 1258 758 
Q 1525 397 1991 397 
Q 2450 397 2719 759 
Q 2988 1122 2988 1747 
Q 2988 2369 2719 2733 
Q 2450 3097 1991 3097 
z
" transform="scale(0.015625)"/>
       <path id="DejaVuSans-43b" d="M 238 0 
L 238 478 
Q 806 566 981 959 
Q 1194 1513 1194 2928 
L 1194 3500 
L 3559 3500 
L 3559 0 
L 2984 0 
L 2984 3041 
L 1769 3041 
L 1769 2694 
Q 1769 1344 1494 738 
Q 1200 91 238 0 
z
" transform="scale(0.015625)"/>
       <path id="DejaVuSans-438" d="M 3578 3500 
L 3578 0 
L 3006 0 
L 3006 2809 
L 1319 0 
L 581 0 
L 581 3500 
L 1153 3500 
L 1153 697 
L 2838 3500 
L 3578 3500 
z
" transform="scale(0.015625)"/>
       <path id="DejaVuSans-43a" d="M 581 3500 
L 1153 3500 
L 1153 1856 
L 2775 3500 
L 3481 3500 
L 2144 2147 
L 3653 0 
L 3009 0 
L 1769 1766 
L 1153 1141 
L 1153 0 
L 581 0 
L 581 3500 
z
" transform="scale(0.015625)"/>
       <path id="DejaVuSans-412" d="M 1259 2228 
L 1259 519 
L 2272 519 
Q 2781 519 3026 730 
Q 3272 941 3272 1375 
Q 3272 1813 3026 2020 
Q 2781 2228 2272 2228 
L 1259 2228 
z
M 1259 4147 
L 1259 2741 
L 2194 2741 
Q 2656 2741 2882 2914 
Q 3109 3088 3109 3444 
Q 3109 3797 2882 3972 
Q 2656 4147 2194 4147 
L 1259 4147 
z
M 628 4666 
L 2241 4666 
Q 2963 4666 3353 4366 
Q 3744 4066 3744 3513 
Q 3744 3084 3544 2831 
Q 3344 2578 2956 2516 
Q 3422 2416 3680 2098 
Q 3938 1781 3938 1306 
Q 3938 681 3513 340 
Q 3088 0 2303 0 
L 628 0 
L 628 4666 
z
" transform="scale(0.015625)"/>
       <path id="DejaVuSans-b7" d="M 684 2619 
L 1344 2619 
L 1344 1825 
L 684 1825 
L 684 2619 
z
" transform="scale(0.015625)"/>
      </defs>
      <use xlink:href="#DejaVuSans-41f"/>
      <use xlink:href="#DejaVuSans-43e" x="75.195312"/>
      <use xlink:href="#DejaVuSans-442" x="136.376953"/>
      <use xlink:href="#DejaVuSans-440" x="194.628906"/>
      <use xlink:href="#DejaVuSans-435" x="258.105469"/>
      <use xlink:href="#DejaVuSans-431" x="319.628906"/>
      <use xlink:href="#DejaVuSans-43b" x="381.298828"/>
      <use xlink:href="#DejaVuSans-435" x="445.214844"/>
      <use xlink:href="#DejaVuSans-43d" x="506.738281"/>
      <use xlink:href="#DejaVuSans-438" x="572.119141"/>
      <use xlink:href="#DejaVuSans-435" x="637.109375"/>
      <use xlink:href="#DejaVuSans-20" x="698.632812"/>
      <use xlink:href="#DejaVuSans-5b" x="730.419922"/>
      <use xlink:href="#DejaVuSans-43a" x="769.433594"/>
      <use xlink:href="#DejaVuSans-412" x="829.833984"/>
      <use xlink:href="#DejaVuSans-442" x="898.4375"/>
      <use xlink:href="#DejaVuSans-b7" x="956.689453"/>
      <use xlink:href="#DejaVuSans-447" x="988.476562"/>
      <use xlink:href="#DejaVuSans-5d" x="1047.558594"/>
     </g>
    </g>
   </g>
   <g id="line2d_14">
    <path d="M 113.857973 262.117889 
L 119.644295 246.604347 
L 125.430616 246.884405 
L 131.216938 175.904185 
L 137.00326 145.10654 
L 142.789581 158.12078 
L 148.575903 140.96593 
L 154.362225 180.383096 
L 160.148546 151.178358 
L 165.934868 133.174084 
L 171.721189 122.000885 
L 177.507511 153.49627 
L 183.293833 258.841578 
L 189.080154 254.664937 
L 194.866476 257.641131 
L 200.652798 251.061134 
L 206.439119 258.069468 
L 212.225441 279.858846 
L 218.011763 278.776644 
L 223.798084 275.495588 
L 229.584406 263.692143 
L 235.370727 223.857032 
L 241.157049 238.519941 
L 246.943371 243.366485 
L 252.729692 246.604347 
L 258.516014 246.884405 
L 264.302336 175.904185 
L 270.088657 145.10654 
L 275.874979 158.12078 
L 281.661301 140.96593 
L 287.447622 180.383096 
L 293.233944 151.178358 
L 299.020265 133.174084 
L 304.806587 122.000885 
L 310.592909 153.49627 
L 316.37923 258.841578 
L 322.165552 254.664937 
L 327.951874 257.641131 
L 333.738195 251.061134 
L 339.524517 258.069468 
L 345.310839 279.858846 
L 351.09716 278.776644 
L 356.883482 275.495588 
L 362.669803 263.692143 
L 368.456125 223.857032 
L 374.242447 238.519941 
L 380.028768 243.366485 
L 385.81509 243.074057 
L 391.601412 246.884405 
L 397.387733 175.904185 
L 403.174055 145.10654 
L 408.960377 158.12078 
L 414.746698 140.96593 
L 420.53302 180.383096 
L 426.319341 151.178358 
L 432.105663 133.174084 
L 437.891985 122.000885 
L 443.678306 153.49627 
L 449.464628 258.841578 
L 455.25095 254.664937 
L 461.037271 257.641131 
L 466.823593 251.061134 
L 472.609915 258.069468 
L 478.396236 279.858846 
L 484.182558 278.776644 
L 489.968879 275.495588 
L 495.755201 263.692143 
L 501.541523 223.857032 
L 507.327844 238.519941 
L 513.114166 243.366485 
L 518.900488 243.074057 
L 524.686809 240.020593 
L 530.473131 175.904185 
L 536.259452 145.10654 
L 542.045774 158.12078 
L 547.832096 140.96593 
L 553.618417 180.383096 
L 559.404739 151.178358 
L 565.191061 133.174084 
L 570.977382 122.000885 
L 576.763704 153.49627 
L 582.550026 258.841578 
L 588.336347 254.664937 
L 594.122669 257.641131 
L 599.90899 251.061134 
L 605.695312 258.069468 
L 611.481634 279.858846 
L 617.267955 278.776644 
L 623.054277 275.495588 
L 628.840599 263.692143 
L 634.62692 223.857032 
L 640.413242 238.519941 
L 646.199564 243.366485 
L 651.985885 243.074057 
L 657.772207 240.020593 
L 663.558528 182.778345 
L 669.34485 145.10654 
L 675.131172 158.12078 
L 680.917493 140.96593 
L 686.703815 180.383096 
L 692.490137 151.178358 
L 698.276458 133.174084 
L 704.06278 122.000885 
L 709.849102 153.49627 
L 715.635423 258.841578 
L 721.421745 254.664937 
L 727.208066 257.641131 
L 732.994388 251.061134 
L 738.78071 258.069468 
L 744.567031 279.858846 
L 750.353353 278.776644 
L 756.139675 275.495588 
L 761.925996 263.692143 
L 767.712318 223.857032 
L 773.49864 238.519941 
L 779.284961 243.366485 
L 785.071283 243.074057 
L 790.857604 240.020593 
L 796.643926 182.778345 
L 802.430248 155.781776 
L 808.216569 158.12078 
L 814.002891 140.96593 
L 819.789213 180.383096 
L 825.575534 151.178358 
L 831.361856 133.174084 
L 837.148177 122.000885 
L 842.934499 153.49627 
L 848.720821 258.841578 
L 854.507142 254.664937 
L 860.293464 257.641131 
L 866.079786 251.061134 
L 871.866107 258.069468 
L 877.652429 279.858846 
L 883.438751 278.776644 
L 889.225072 275.495588 
L 895.011394 263.692143 
L 900.797715 223.857032 
L 906.584037 238.519941 
L 912.370359 243.366485 
L 918.15668 243.074057 
L 923.943002 240.020593 
L 929.729324 182.778345 
L 935.515645 155.781776 
L 941.301967 149.297307 
L 947.088289 140.96593 
L 952.87461 180.383096 
L 958.660932 151.178358 
L 964.447253 133.174084 
L 970.233575 122.000885 
L 976.019897 153.49627 
L 981.806218 258.841578 
L 987.59254 254.664937 
L 993.378862 257.641131 
L 999.165183 251.061134 
L 1004.951505 258.069468 
L 1010.737827 279.858846 
L 1016.524148 278.776644 
L 1022.31047 275.495588 
L 1028.096791 263.692143 
L 1033.883113 223.857032 
L 1039.669435 238.519941 
L 1045.455756 243.366485 
L 1051.242078 243.074057 
L 1057.0284 240.020593 
L 1062.814721 182.778345 
L 1068.601043 155.781776 
L 1074.387365 149.297307 
L 1080.173686 131.022422 
L 1080.173686 131.022422 
" clip-path="url(#pef396c77d9)" style="fill: none; stroke: #000000; stroke-width: 2; stroke-linecap: round"/>
   </g>
   <g id="line2d_15">
    <path d="M 113.857973 236.731694 
L 119.644295 215.605496 
L 125.430616 183.539426 
L 131.216938 183.429441 
L 137.00326 183.581016 
L 142.789581 142.134587 
L 148.575903 119.14977 
L 154.362225 133.222111 
L 160.148546 119.001249 
L 165.934868 107.553946 
L 171.721189 99.805425 
L 177.507511 150.21104 
L 183.293833 223.25728 
L 189.080154 239.893428 
L 194.866476 260.260017 
L 200.652798 264.882462 
L 206.439119 273.287001 
L 212.225441 276.050563 
L 218.011763 280.262752 
L 223.798084 272.574607 
L 229.584406 259.660112 
L 235.370727 238.611887 
L 241.157049 232.345498 
L 246.943371 233.682075 
L 252.729692 224.358113 
L 258.516014 180.511448 
L 264.302336 172.786523 
L 270.088657 179.16193 
L 275.874979 145.204462 
L 281.661301 125.708719 
L 287.447622 137.908688 
L 293.233944 118.955814 
L 299.020265 108.779111 
L 304.806587 102.946903 
L 310.592909 153.868253 
L 316.37923 229.720745 
L 322.165552 244.776905 
L 327.951874 264.260696 
L 333.738195 267.787668 
L 339.524517 279.90505 
L 345.310839 278.929801 
L 351.09716 282.512842 
L 356.883482 272.302985 
L 362.669803 264.890591 
L 368.456125 240.861669 
L 374.242447 227.919316 
L 380.028768 231.377191 
L 385.81509 231.951457 
L 391.601412 189.731467 
L 397.387733 169.05885 
L 403.174055 165.398802 
L 408.960377 130.99854 
L 414.746698 118.843545 
L 420.53302 138.147793 
L 426.319341 125.832193 
L 432.105663 114.823334 
L 437.891985 109.726787 
L 443.678306 157.386525 
L 449.464628 230.687448 
L 455.25095 246.643542 
L 461.037271 264.270956 
L 466.823593 265.399033 
L 472.609915 275.025353 
L 478.396236 279.215044 
L 484.182558 284.512423 
L 489.968879 277.318768 
L 495.755201 266.972188 
L 501.541523 247.853086 
L 507.327844 231.855907 
L 513.114166 228.389024 
L 518.900488 233.668541 
L 524.686809 224.174022 
L 530.473131 190.481716 
L 536.259452 163.79346 
L 542.045774 115.426996 
L 547.832096 101.197038 
L 553.618417 128.560405 
L 559.404739 122.528134 
L 565.191061 115.868076 
L 570.977382 113.055102 
L 576.763704 164.269078 
L 582.550026 235.60109 
L 588.336347 249.672882 
L 594.122669 267.272416 
L 599.90899 264.215569 
L 605.695312 271.712373 
L 611.481634 272.844009 
L 617.267955 287.061949 
L 623.054277 284.042496 
L 628.840599 277.058088 
L 634.62692 253.094308 
L 640.413242 241.445712 
L 646.199564 233.280432 
L 651.985885 229.868167 
L 657.772207 222.382985 
L 663.558528 206.877616 
L 669.34485 162.266047 
L 675.131172 108.186346 
L 680.917493 91.552505 
L 686.703815 117.778458 
L 692.490137 119.02133 
L 698.276458 119.6942 
L 704.06278 119.076125 
L 709.849102 163.035697 
L 715.635423 233.041436 
L 721.421745 245.61998 
L 727.208066 264.128258 
L 732.994388 266.006979 
L 738.78071 271.614868 
L 744.567031 270.061662 
L 750.353353 280.083034 
L 756.139675 284.428979 
L 761.925996 282.851056 
L 767.712318 269.940956 
L 773.49864 247.277019 
L 779.284961 234.328821 
L 785.071283 224.860228 
L 790.857604 210.755678 
L 796.643926 208.90108 
L 802.430248 166.394353 
L 808.216569 115.003624 
L 814.002891 88.849427 
L 819.789213 115.430599 
L 825.575534 117.761936 
L 831.361856 123.374043 
L 837.148177 122.877421 
L 842.934499 170.471643 
L 848.720821 235.901164 
L 854.507142 247.871563 
L 860.293464 268.030179 
L 866.079786 269.452924 
L 871.866107 277.250418 
L 877.652429 276.62239 
L 883.438751 283.504965 
L 889.225072 286.480916 
L 895.011394 287.830632 
L 900.797715 266.273152 
L 906.584037 255.368961 
L 912.370359 238.988792 
L 918.15668 228.155719 
L 923.943002 212.807329 
L 929.729324 204.031379 
L 935.515645 166.787428 
L 941.301967 156.136534 
L 947.088289 114.586448 
L 952.87461 118.237642 
L 958.660932 112.465325 
L 964.447253 117.508923 
L 970.233575 120.29896 
L 976.019897 168.562998 
L 981.806218 234.151541 
L 987.59254 247.567293 
L 993.378862 268.948349 
L 999.165183 272.915611 
L 1004.951505 281.262873 
L 1010.737827 284.129807 
L 1016.524148 291.459042 
L 1022.31047 291.045073 
L 1028.096791 288.246138 
L 1033.883113 269.100913 
L 1039.669435 244.7133 
L 1045.455756 240.28101 
L 1051.242078 233.286935 
L 1062.814721 211.796004 
L 1068.601043 164.892514 
L 1074.387365 149.260177 
L 1080.173686 151.515034 
L 1080.173686 151.515034 
" clip-path="url(#pef396c77d9)" style="fill: none; stroke: #0173b2; stroke-opacity: 0.85; stroke-width: 1.5; stroke-linecap: round"/>
   </g>
   <g id="line2d_16">
    <path d="M 113.857973 257.550129 
L 119.644295 235.115278 
L 125.430616 215.098042 
L 131.216938 210.46905 
L 137.00326 217.509747 
L 142.789581 133.354659 
L 148.575903 80.921012 
L 154.362225 117.939765 
L 160.148546 139.958889 
L 165.934868 140.831361 
L 171.721189 106.600338 
L 177.507511 183.563374 
L 183.293833 275.588787 
L 189.080154 272.510431 
L 194.866476 277.827847 
L 200.652798 269.899673 
L 206.439119 273.026277 
L 212.225441 262.987636 
L 218.011763 266.967487 
L 223.798084 264.669568 
L 229.584406 262.584477 
L 235.370727 246.568162 
L 241.157049 240.864679 
L 246.943371 240.098435 
L 252.729692 234.914138 
L 258.516014 211.636191 
L 264.302336 209.127508 
L 270.088657 213.69362 
L 275.874979 133.710824 
L 281.661301 80.802635 
L 287.447622 121.825297 
L 293.233944 141.391587 
L 299.020265 143.600965 
L 304.806587 109.486737 
L 310.592909 188.789898 
L 316.37923 275.812952 
L 322.165552 277.51391 
L 327.951874 275.975578 
L 333.738195 271.572026 
L 339.524517 274.960891 
L 345.310839 267.005078 
L 351.09716 264.645136 
L 356.883482 266.019107 
L 362.669803 260.467265 
L 368.456125 248.338415 
L 374.242447 240.221536 
L 380.028768 242.318227 
L 385.81509 236.826584 
L 391.601412 212.671068 
L 397.387733 207.039583 
L 403.174055 212.890005 
L 408.960377 129.545344 
L 414.746698 82.128248 
L 420.53302 119.772766 
L 426.319341 143.682059 
L 432.105663 145.095335 
L 437.891985 112.57843 
L 443.678306 190.870683 
L 449.464628 280.277429 
L 455.25095 277.416097 
L 461.037271 281.308528 
L 466.823593 269.765917 
L 472.609915 276.910929 
L 478.396236 268.941143 
L 484.182558 268.71243 
L 489.968879 264.084207 
L 495.755201 262.981528 
L 501.541523 246.932872 
L 507.327844 241.472889 
L 513.114166 242.224149 
L 518.900488 239.104269 
L 524.686809 227.52433 
L 530.473131 211.32935 
L 536.259452 213.715635 
L 542.045774 131.000166 
L 547.832096 79.108356 
L 553.618417 121.307363 
L 559.404739 139.597299 
L 565.191061 146.674268 
L 570.977382 115.930209 
L 576.763704 193.834704 
L 582.550026 282.937554 
L 588.336347 281.956131 
L 594.122669 283.326191 
L 599.90899 276.223318 
L 605.695312 277.025 
L 611.481634 272.448715 
L 617.267955 272.080731 
L 623.054277 268.635357 
L 628.840599 262.874795 
L 634.62692 251.221013 
L 640.413242 241.694879 
L 646.199564 243.670579 
L 651.985885 240.617489 
L 657.772207 230.067264 
L 663.558528 221.627924 
L 669.34485 217.123571 
L 675.131172 132.809153 
L 680.917493 80.709392 
L 686.703815 117.401971 
L 692.490137 138.08443 
L 698.276458 141.38805 
L 704.06278 118.738657 
L 709.849102 196.459193 
L 715.635423 285.232507 
L 721.421745 283.920515 
L 727.208066 287.480312 
L 732.994388 279.651027 
L 738.78071 283.889735 
L 744.567031 274.318385 
L 750.353353 277.323536 
L 756.139675 273.23849 
L 761.925996 268.611278 
L 767.712318 252.509233 
L 773.49864 247.283961 
L 785.071283 242.738699 
L 790.857604 232.888565 
L 796.643926 225.090325 
L 802.430248 167.605192 
L 808.216569 134.927507 
L 814.002891 82.772468 
L 819.789213 114.514516 
L 825.575534 126.851538 
L 831.361856 134.693192 
L 837.148177 116.171006 
L 842.934499 195.498664 
L 848.720821 286.030762 
L 854.507142 283.553696 
L 860.293464 289.577992 
L 866.079786 282.634866 
L 871.866107 288.897081 
L 877.652429 281.041344 
L 883.438751 281.149637 
L 889.225072 279.14487 
L 895.011394 275.973139 
L 900.797715 259.360148 
L 906.584037 249.836629 
L 912.370359 251.336864 
L 918.15668 245.890612 
L 923.943002 235.113191 
L 929.729324 229.163529 
L 935.515645 170.634269 
L 941.301967 154.216047 
L 947.088289 80.542504 
L 952.87461 110.176919 
L 958.660932 115.0368 
L 964.447253 123.62332 
L 970.233575 113.125891 
L 976.019897 191.064199 
L 981.806218 283.94253 
L 987.59254 282.175814 
L 993.378862 290.165571 
L 999.165183 284.501021 
L 1004.951505 290.836309 
L 1010.737827 285.549322 
L 1016.524148 286.699655 
L 1022.31047 281.647027 
L 1028.096791 282.085955 
L 1033.883113 265.915494 
L 1039.669435 254.489547 
L 1045.455756 252.821918 
L 1051.242078 251.475322 
L 1057.0284 237.696551 
L 1062.814721 231.547968 
L 1068.601043 172.682317 
L 1074.387365 154.816391 
L 1080.173686 165.140407 
L 1080.173686 165.140407 
" clip-path="url(#pef396c77d9)" style="fill: none; stroke: #de8f05; stroke-opacity: 0.85; stroke-width: 1.5; stroke-linecap: round"/>
   </g>
   <g id="line2d_17">
    <path d="M 113.857973 227.815066 
L 119.644295 213.002801 
L 131.216938 182.125601 
L 137.00326 162.067587 
L 142.789581 136.123605 
L 148.575903 114.459239 
L 154.362225 81.787398 
L 160.148546 54.617635 
L 165.934868 56.488425 
L 171.721189 86.60549 
L 177.507511 133.493447 
L 183.293833 224.25015 
L 189.080154 255.784775 
L 194.866476 256.807437 
L 200.652798 256.820268 
L 206.439119 259.263127 
L 212.225441 264.678839 
L 218.011763 262.550906 
L 223.798084 248.848329 
L 229.584406 231.783382 
L 235.370727 209.717329 
L 241.157049 213.00056 
L 246.943371 203.149592 
L 252.729692 218.721377 
L 258.516014 208.411796 
L 264.302336 186.331682 
L 270.088657 179.362368 
L 275.874979 140.359192 
L 281.661301 109.789579 
L 287.447622 75.294097 
L 293.233944 53.002714 
L 299.020265 35.502443 
L 304.806587 68.826985 
L 310.592909 126.494473 
L 316.37923 209.74622 
L 322.165552 246.148942 
L 327.951874 252.591227 
L 333.738195 247.212887 
L 339.524517 264.013374 
L 345.310839 271.192551 
L 351.09716 272.942129 
L 356.883482 251.14917 
L 362.669803 236.295623 
L 368.456125 213.829442 
L 374.242447 209.039099 
L 380.028768 213.791939 
L 385.81509 210.989027 
L 391.601412 211.205898 
L 397.387733 199.614271 
L 403.174055 184.070212 
L 408.960377 154.59104 
L 414.746698 116.959572 
L 420.53302 77.756641 
L 426.319341 54.181432 
L 432.105663 52.488515 
L 437.891985 68.16967 
L 443.678306 125.943188 
L 449.464628 227.101375 
L 455.25095 262.634372 
L 461.037271 259.146968 
L 466.823593 255.821949 
L 472.609915 267.6763 
L 478.396236 283.682684 
L 484.182558 287.641422 
L 489.968879 261.11399 
L 495.755201 232.7556 
L 501.541523 206.644817 
L 507.327844 205.455025 
L 513.114166 210.718372 
L 518.900488 215.336445 
L 524.686809 198.547997 
L 530.473131 203.894656 
L 536.259452 196.882829 
L 542.045774 164.984263 
L 547.832096 128.257212 
L 553.618417 84.618915 
L 559.404739 65.360211 
L 565.191061 59.596771 
L 570.977382 95.471476 
L 576.763704 133.008975 
L 582.550026 229.139098 
L 588.336347 269.051589 
L 594.122669 267.429066 
L 599.90899 260.333794 
L 605.695312 266.717155 
L 611.481634 282.159666 
L 617.267955 288.897169 
L 623.054277 276.696738 
L 628.840599 249.050348 
L 634.62692 215.690939 
L 640.413242 210.195254 
L 646.199564 213.075743 
L 651.985885 214.323955 
L 657.772207 203.883627 
L 663.558528 188.377687 
L 669.34485 192.976953 
L 675.131172 164.588354 
L 680.917493 123.893646 
L 686.703815 86.774004 
L 692.490137 61.045244 
L 698.276458 61.027228 
L 704.06278 98.205268 
L 709.849102 157.596212 
L 715.635423 241.213681 
L 721.421745 266.277788 
L 727.208066 272.430084 
L 732.994388 270.780098 
L 738.78071 280.827219 
L 744.567031 285.036398 
L 750.353353 292.38376 
L 756.139675 270.730972 
L 761.925996 251.985412 
L 767.712318 223.990085 
L 773.49864 209.712737 
L 779.284961 209.900211 
L 785.071283 207.225805 
L 790.857604 189.408764 
L 796.643926 182.338495 
L 802.430248 167.191509 
L 808.216569 160.630254 
L 814.002891 132.315256 
L 819.789213 90.930344 
L 825.575534 69.239855 
L 831.361856 61.313197 
L 837.148177 88.76282 
L 842.934499 149.635456 
L 848.720821 242.697153 
L 854.507142 276.708888 
L 860.293464 274.390207 
L 866.079786 266.124632 
L 871.866107 271.587954 
L 877.652429 290.026015 
L 883.438751 296.164645 
L 889.225072 272.418176 
L 895.011394 245.831138 
L 900.797715 218.010323 
L 906.584037 205.861348 
L 912.370359 199.449118 
L 918.15668 208.34951 
L 923.943002 196.13972 
L 929.729324 182.714081 
L 935.515645 159.929482 
L 941.301967 158.4925 
L 947.088289 140.039016 
L 952.87461 95.087387 
L 958.660932 66.418092 
L 964.447253 51.823468 
L 970.233575 84.291027 
L 976.019897 140.369123 
L 981.806218 241.143529 
L 987.59254 268.143701 
L 993.378862 264.63826 
L 999.165183 265.993424 
L 1004.951505 274.05252 
L 1010.737827 283.40412 
L 1016.524148 292.080852 
L 1022.31047 273.72707 
L 1028.096791 254.244641 
L 1033.883113 225.894644 
L 1039.669435 205.698942 
L 1045.455756 197.171939 
L 1051.242078 207.101957 
L 1057.0284 199.958043 
L 1062.814721 185.928347 
L 1068.601043 171.09699 
L 1074.387365 157.069403 
L 1080.173686 141.7387 
L 1080.173686 141.7387 
" clip-path="url(#pef396c77d9)" style="fill: none; stroke: #029e73; stroke-opacity: 0.85; stroke-width: 1.5; stroke-linecap: round"/>
   </g>
   <g id="line2d_18">
    <path d="M 113.857973 268.237515 
L 119.644295 265.340086 
L 125.430616 241.22449 
L 131.216938 216.449669 
L 142.789581 152.318496 
L 148.575903 126.979362 
L 154.362225 95.508254 
L 160.148546 89.744902 
L 165.934868 84.491749 
L 171.721189 99.005391 
L 177.507511 127.527878 
L 183.293833 239.501078 
L 189.080154 236.890782 
L 194.866476 252.213818 
L 200.652798 276.014554 
L 206.439119 271.312488 
L 212.225441 284.656901 
L 218.011763 293.670903 
L 223.798084 281.134147 
L 229.584406 254.166712 
L 235.370727 239.940335 
L 241.157049 237.048333 
L 246.943371 249.824281 
L 252.729692 261.908729 
L 258.516014 237.505935 
L 264.302336 214.471289 
L 275.874979 150.252872 
L 281.661301 125.138144 
L 287.447622 93.568257 
L 293.233944 87.274668 
L 299.020265 82.016067 
L 304.806587 96.163284 
L 310.592909 124.751419 
L 316.37923 237.350318 
L 322.165552 234.479429 
L 327.951874 249.920029 
L 333.738195 274.628345 
L 339.524517 270.851217 
L 345.310839 282.997753 
L 351.09716 292.255078 
L 356.883482 279.809874 
L 362.669803 252.657556 
L 368.456125 238.877313 
L 374.242447 235.367368 
L 380.028768 248.934475 
L 385.81509 254.850039 
L 391.601412 229.704575 
L 397.387733 209.119006 
L 403.174055 177.287295 
L 408.960377 146.200804 
L 414.746698 123.009728 
L 420.53302 92.575189 
L 426.319341 86.9082 
L 432.105663 81.601131 
L 437.891985 95.882149 
L 443.678306 124.424102 
L 449.464628 236.139346 
L 455.25095 233.35645 
L 461.037271 248.700731 
L 466.823593 274.295975 
L 472.609915 269.90343 
L 478.396236 282.419313 
L 484.182558 292.04225 
L 489.968879 279.999524 
L 495.755201 252.722523 
L 501.541523 238.550436 
L 507.327844 235.036931 
L 513.114166 248.49658 
L 518.900488 254.914017 
L 524.686809 246.705258 
L 530.473131 219.004314 
L 536.259452 184.507996 
L 542.045774 152.675979 
L 547.832096 128.656636 
L 553.618417 97.450537 
L 559.404739 91.080798 
L 565.191061 86.235726 
L 570.977382 99.273343 
L 576.763704 128.414125 
L 582.550026 238.87951 
L 588.336347 236.308783 
L 594.122669 251.513463 
L 599.90899 276.796946 
L 605.695312 272.626589 
L 611.481634 284.601734 
L 617.267955 296.195602 
L 623.054277 284.765765 
L 628.840599 257.683446 
L 634.62692 243.30723 
L 640.413242 239.599155 
L 646.199564 253.46159 
L 651.985885 259.019386 
L 657.772207 248.791117 
L 663.558528 229.001276 
L 669.34485 153.071229 
L 675.131172 129.314214 
L 680.917493 109.99017 
L 686.703815 85.30835 
L 692.490137 82.004071 
L 698.276458 79.313209 
L 704.06278 94.895145 
L 709.849102 127.328737 
L 715.635423 236.483712 
L 721.421745 234.608089 
L 727.208066 249.124103 
L 732.994388 273.832419 
L 738.78071 270.905264 
L 744.567031 282.138772 
L 750.353353 294.068372 
L 756.139675 281.425279 
L 761.925996 254.470169 
L 767.712318 239.937281 
L 773.49864 236.548547 
L 779.284961 249.893225 
L 785.071283 253.738418 
L 790.857604 242.455872 
L 796.643926 223.768798 
L 802.430248 190.075503 
L 808.216569 130.276764 
L 814.002891 111.56014 
L 819.789213 84.313569 
L 825.575534 81.4788 
L 831.361856 77.870844 
L 837.148177 93.424394 
L 842.934499 126.766775 
L 848.720821 236.741317 
L 854.507142 233.753237 
L 860.293464 248.918766 
L 866.079786 274.299117 
L 871.866107 270.550814 
L 877.652429 283.207726 
L 883.438751 294.501015 
L 889.225072 280.623179 
L 895.011394 252.831189 
L 900.797715 238.19102 
L 906.584037 235.308795 
L 912.370359 248.931114 
L 918.15668 252.021004 
L 923.943002 240.191107 
L 929.729324 221.790198 
L 935.515645 189.756008 
L 947.088289 123.110528 
L 952.87461 93.519746 
L 964.447253 83.137003 
L 970.233575 96.13336 
L 976.019897 127.65746 
L 981.806218 237.441583 
L 987.59254 234.471036 
L 993.378862 248.788679 
L 999.165183 274.447638 
L 1004.951505 271.347992 
L 1010.737827 285.047164 
L 1016.524148 298.138807 
L 1022.31047 283.666185 
L 1028.096791 254.616426 
L 1033.883113 240.557311 
L 1039.669435 239.10629 
L 1045.455756 252.248926 
L 1051.242078 255.568431 
L 1057.0284 243.630548 
L 1062.814721 224.686089 
L 1068.601043 192.305468 
L 1074.387365 156.812545 
L 1080.173686 139.854661 
L 1080.173686 139.854661 
" clip-path="url(#pef396c77d9)" style="fill: none; stroke: #d55e00; stroke-opacity: 0.85; stroke-width: 1.5; stroke-linecap: round"/>
   </g>
   <g id="line2d_19">
    <path d="M 113.857973 253.843613 
L 119.644295 236.127526 
L 125.430616 208.865993 
L 131.216938 186.11714 
L 137.00326 179.158481 
L 142.789581 142.883606 
L 148.575903 107.973012 
L 154.362225 115.727992 
L 160.148546 101.400178 
L 165.934868 103.312361 
L 171.721189 104.95558 
L 177.507511 166.368713 
L 183.293833 267.394374 
L 189.080154 274.317572 
L 194.866476 274.339916 
L 200.652798 275.039743 
L 206.439119 277.735417 
L 212.225441 274.312914 
L 218.011763 279.385447 
L 223.798084 271.832486 
L 229.584406 256.65283 
L 235.370727 263.043968 
L 241.157049 259.008466 
L 246.943371 257.867735 
L 252.729692 245.053162 
L 258.516014 218.013927 
L 264.302336 200.005785 
L 270.088657 174.616405 
L 275.874979 144.416006 
L 281.661301 129.182962 
L 287.447622 111.881876 
L 293.233944 106.064169 
L 299.020265 110.580167 
L 304.806587 110.668488 
L 310.592909 156.377463 
L 316.37923 252.626138 
L 322.165552 273.693214 
L 327.951874 275.096076 
L 333.738195 271.478036 
L 339.524517 277.696947 
L 345.310839 277.313869 
L 351.09716 271.885677 
L 356.883482 275.803812 
L 362.669803 264.922844 
L 368.456125 256.410671 
L 374.242447 263.012924 
L 380.028768 257.091142 
L 385.81509 245.524144 
L 391.601412 224.832435 
L 397.387733 200.110453 
L 403.174055 186.047757 
L 408.960377 157.627828 
L 414.746698 131.402886 
L 420.53302 111.501566 
L 426.319341 114.045797 
L 432.105663 107.068705 
L 437.891985 111.864168 
L 443.678306 152.889708 
L 449.464628 257.103797 
L 455.25095 266.003178 
L 461.037271 275.838789 
L 466.823593 276.798132 
L 472.609915 279.409615 
L 478.396236 277.469727 
L 484.182558 278.666989 
L 489.968879 273.450198 
L 501.541523 264.634129 
L 507.327844 256.857837 
L 513.114166 256.181672 
L 518.900488 249.895642 
L 524.686809 229.956994 
L 530.473131 226.584936 
L 536.259452 193.214125 
L 547.832096 148.820437 
L 553.618417 121.513667 
L 559.404739 112.377399 
L 565.191061 108.624087 
L 570.977382 117.218737 
L 576.763704 157.083178 
L 582.550026 256.096427 
L 588.336347 273.233085 
L 594.122669 270.92651 
L 599.90899 275.878732 
L 605.695312 277.805745 
L 611.481634 275.16302 
L 617.267955 278.053067 
L 623.054277 267.488386 
L 628.840599 264.735589 
L 634.62692 259.632693 
L 640.413242 270.477102 
L 646.199564 259.066051 
L 651.985885 252.005471 
L 657.772207 228.597722 
L 663.558528 222.18079 
L 669.34485 153.983621 
L 675.131172 138.121341 
L 680.917493 121.067533 
L 686.703815 106.706895 
L 692.490137 105.901192 
L 698.276458 104.118503 
L 704.06278 109.195716 
L 709.849102 148.801586 
L 715.635423 252.072196 
L 721.421745 268.449662 
L 727.208066 275.643186 
L 732.994388 267.527318 
L 738.78071 281.981397 
L 744.567031 281.42708 
L 750.353353 273.861728 
L 756.139675 269.090696 
L 761.925996 259.976246 
L 767.712318 263.478304 
L 773.49864 262.759011 
L 779.284961 264.139331 
L 785.071283 249.166923 
L 796.643926 216.670275 
L 802.430248 188.268999 
L 808.216569 132.590305 
L 819.789213 86.369219 
L 825.575534 99.83012 
L 831.361856 83.186173 
L 837.148177 102.314328 
L 842.934499 164.233024 
L 848.720821 249.945427 
L 854.507142 263.966643 
L 860.293464 271.208369 
L 866.079786 273.745262 
L 871.866107 276.478835 
L 877.652429 281.317821 
L 883.438751 274.304104 
L 889.225072 268.048349 
L 895.011394 260.301014 
L 900.797715 265.620254 
L 906.584037 264.602272 
L 912.370359 254.140413 
L 918.15668 255.039886 
L 923.943002 228.576169 
L 929.729324 215.267699 
L 935.515645 187.090939 
L 941.301967 164.359992 
L 952.87461 104.169914 
L 958.660932 102.287699 
L 964.447253 91.061508 
L 970.233575 105.012704 
L 976.019897 159.764088 
L 981.806218 251.91983 
L 987.59254 269.091312 
L 993.378862 274.011435 
L 999.165183 267.993532 
L 1004.951505 278.112431 
L 1010.737827 277.940468 
L 1016.524148 281.23229 
L 1022.31047 274.763925 
L 1028.096791 257.588775 
L 1033.883113 261.305243 
L 1039.669435 266.035497 
L 1045.455756 261.842774 
L 1051.242078 251.971197 
L 1057.0284 240.065062 
L 1062.814721 207.228464 
L 1068.601043 185.104167 
L 1074.387365 166.171879 
L 1080.173686 138.882685 
L 1080.173686 138.882685 
" clip-path="url(#pef396c77d9)" style="fill: none; stroke: #cc78bc; stroke-opacity: 0.85; stroke-width: 1.5; stroke-linecap: round"/>
   </g>
   <g id="line2d_20">
    <path d="M 113.857973 247.421035 
L 119.644295 232.162022 
L 125.430616 207.544905 
L 131.216938 190.816086 
L 137.00326 178.235609 
L 142.789581 142.490399 
L 148.575903 113.793444 
L 154.362225 107.612036 
L 160.148546 93.101383 
L 165.934868 91.349805 
L 171.721189 98.842677 
L 177.507511 149.811572 
L 183.293833 245.066366 
L 189.080154 257.387437 
L 194.866476 264.093654 
L 200.652798 269.02417 
L 212.225441 273.794981 
L 218.011763 277.699407 
L 223.798084 268.029366 
L 229.584406 251.240831 
L 235.370727 241.843817 
L 241.157049 239.235213 
L 246.943371 238.948761 
L 252.729692 237.862626 
L 258.516014 212.269359 
L 264.302336 194.829859 
L 270.088657 179.228479 
L 275.874979 144.255863 
L 281.661301 121.703492 
L 287.447622 105.276657 
L 293.233944 94.134613 
L 299.020265 89.19454 
L 304.806587 97.111268 
L 310.592909 144.720671 
L 316.37923 236.846907 
L 322.165552 255.557732 
L 327.951874 263.664218 
L 333.738195 265.781847 
L 339.524517 273.660566 
L 345.310839 276.813226 
L 351.09716 277.288361 
L 356.883482 269.853183 
L 362.669803 256.049849 
L 368.456125 240.524026 
L 374.242447 238.758453 
L 380.028768 240.614567 
L 385.81509 236.462467 
L 391.601412 215.859299 
L 397.387733 196.265963 
L 403.174055 181.341956 
L 408.960377 149.226211 
L 414.746698 122.662154 
L 420.53302 105.49667 
L 426.319341 98.710634 
L 432.105663 92.814975 
L 437.891985 98.686071 
L 443.678306 143.898271 
L 449.464628 242.680455 
L 455.25095 256.537134 
L 461.037271 265.436712 
L 466.823593 269.259386 
L 472.609915 274.196646 
L 478.396236 279.767449 
L 484.182558 283.73704 
L 489.968879 272.102504 
L 495.755201 257.304476 
L 501.541523 243.165059 
L 507.327844 236.259108 
L 513.114166 238.946696 
L 518.900488 239.537747 
L 524.686809 224.504986 
L 530.473131 213.08563 
L 536.259452 188.033123 
L 542.045774 155.082345 
L 547.832096 129.674662 
L 553.618417 110.1078 
L 559.404739 100.63367 
L 565.191061 96.090913 
L 570.977382 108.323266 
L 576.763704 149.15373 
L 582.550026 244.205034 
L 588.336347 261.998149 
L 594.122669 266.549915 
L 599.90899 270.393285 
L 605.695312 273.244971 
L 611.481634 277.89712 
L 617.267955 285.080603 
L 623.054277 275.583228 
L 628.840599 262.034708 
L 634.62692 245.234485 
L 640.413242 245.081218 
L 646.199564 242.376405 
L 651.985885 240.200093 
L 657.772207 225.342525 
L 663.558528 212.832002 
L 669.34485 166.492825 
L 675.131172 137.175158 
L 680.917493 113.131779 
L 686.703815 100.765889 
L 692.490137 94.908503 
L 698.276458 93.990794 
L 704.06278 106.287873 
L 709.849102 151.321298 
L 715.635423 244.651255 
L 721.421745 258.576965 
L 727.208066 268.68411 
L 732.994388 269.520352 
L 738.78071 278.021891 
L 744.567031 280.107663 
L 750.353353 282.848134 
L 756.139675 274.47743 
L 761.925996 261.561573 
L 767.712318 251.084115 
L 773.49864 242.71552 
L 779.284961 243.210252 
L 785.071283 235.746206 
L 790.857604 220.617851 
L 796.643926 208.904266 
L 802.430248 179.107949 
L 808.216569 135.59607 
L 814.002891 110.412268 
L 819.789213 93.226835 
L 825.575534 93.756369 
L 831.361856 86.195036 
L 837.148177 101.805886 
L 842.934499 156.603869 
L 848.720821 244.758471 
L 854.507142 259.498585 
L 860.293464 268.166528 
L 866.079786 271.633697 
L 871.866107 274.901043 
L 877.652429 282.803468 
L 883.438751 284.706797 
L 889.225072 274.899835 
L 895.011394 261.130951 
L 900.797715 249.814526 
L 912.370359 237.851224 
L 918.15668 238.659322 
L 923.943002 220.536406 
L 929.729324 207.386036 
L 935.515645 177.104874 
L 941.301967 159.835536 
L 947.088289 128.182776 
L 952.87461 102.954065 
L 958.660932 93.868198 
L 964.447253 86.50983 
L 970.233575 101.714049 
L 976.019897 152.413936 
L 981.806218 244.894667 
L 987.59254 259.514755 
L 993.378862 267.158586 
L 999.165183 270.104043 
L 1004.951505 277.015772 
L 1010.737827 281.795878 
L 1016.524148 288.665292 
L 1022.31047 279.204916 
L 1028.096791 262.624134 
L 1033.883113 251.116346 
L 1039.669435 243.286907 
L 1051.242078 238.9173 
L 1057.0284 228.247402 
L 1062.814721 207.008033 
L 1068.601043 179.088615 
L 1074.387365 159.04831 
L 1080.173686 142.878816 
L 1080.173686 142.878816 
" clip-path="url(#pef396c77d9)" style="fill: none; stroke: #ca9161; stroke-opacity: 0.85; stroke-width: 1.5; stroke-linecap: round"/>
   </g>
   <g id="patch_3">
    <path d="M 65.542188 311.270625 
L 65.542188 22.370625 
" style="fill: none; stroke: #cccccc; stroke-width: 1.25; stroke-linejoin: miter; stroke-linecap: square"/>
   </g>
   <g id="patch_4">
    <path d="M 65.542188 311.270625 
L 1128.489472 311.270625 
" style="fill: none; stroke: #cccccc; stroke-width: 1.25; stroke-linejoin: miter; stroke-linecap: square"/>
   </g>
   <g id="text_16">
    <!-- Сравнение прогнозов моделей [кВт·ч] -->
    <g style="fill: #262626" transform="translate(463.584267 16.370625) scale(0.12 -0.12)">
     <defs>
      <path id="DejaVuSans-Bold-421" d="M 4288 256 
Q 3956 84 3597 -3 
Q 3238 -91 2847 -91 
Q 1681 -91 1000 561 
Q 319 1213 319 2328 
Q 319 3447 1000 4098 
Q 1681 4750 2847 4750 
Q 3238 4750 3597 4662 
Q 3956 4575 4288 4403 
L 4288 3438 
Q 3953 3666 3628 3772 
Q 3303 3878 2944 3878 
Q 2300 3878 1931 3465 
Q 1563 3053 1563 2328 
Q 1563 1606 1931 1193 
Q 2300 781 2944 781 
Q 3303 781 3628 887 
Q 3953 994 4288 1222 
L 4288 256 
z
" transform="scale(0.015625)"/>
      <path id="DejaVuSans-Bold-440" d="M 1656 506 
L 1656 -1331 
L 538 -1331 
L 538 3500 
L 1656 3500 
L 1656 2988 
Q 1888 3294 2169 3439 
Q 2450 3584 2816 3584 
Q 3463 3584 3878 3070 
Q 4294 2556 4294 1747 
Q 4294 938 3878 423 
Q 3463 -91 2816 -91 
Q 2450 -91 2169 54 
Q 1888 200 1656 506 
z
M 2400 2772 
Q 2041 2772 1848 2508 
Q 1656 2244 1656 1747 
Q 1656 1250 1848 986 
Q 2041 722 2400 722 
Q 2759 722 2948 984 
Q 3138 1247 3138 1747 
Q 3138 2247 2948 2509 
Q 2759 2772 2400 2772 
z
" transform="scale(0.015625)"/>
      <path id="DejaVuSans-Bold-430" d="M 2106 1575 
Q 1756 1575 1579 1456 
Q 1403 1338 1403 1106 
Q 1403 894 1545 773 
Q 1688 653 1941 653 
Q 2256 653 2472 879 
Q 2688 1106 2688 1447 
L 2688 1575 
L 2106 1575 
z
M 3816 1997 
L 3816 0 
L 2688 0 
L 2688 519 
Q 2463 200 2181 54 
Q 1900 -91 1497 -91 
Q 953 -91 614 226 
Q 275 544 275 1050 
Q 275 1666 698 1953 
Q 1122 2241 2028 2241 
L 2688 2241 
L 2688 2328 
Q 2688 2594 2478 2717 
Q 2269 2841 1825 2841 
Q 1466 2841 1156 2769 
Q 847 2697 581 2553 
L 581 3406 
Q 941 3494 1303 3539 
Q 1666 3584 2028 3584 
Q 2975 3584 3395 3211 
Q 3816 2838 3816 1997 
z
" transform="scale(0.015625)"/>
      <path id="DejaVuSans-Bold-432" d="M 2184 2181 
Q 2378 2181 2478 2261 
Q 2578 2341 2578 2497 
Q 2578 2653 2478 2731 
Q 2378 2809 2184 2809 
L 1656 2809 
L 1656 2181 
L 2184 2181 
z
M 2222 700 
Q 2469 700 2594 798 
Q 2719 897 2719 1094 
Q 2719 1288 2594 1384 
Q 2469 1481 2222 1481 
L 1656 1481 
L 1656 700 
L 2222 700 
z
M 538 3500 
L 2141 3500 
Q 2919 3500 3267 3279 
Q 3616 3059 3616 2575 
Q 3616 2319 3487 2139 
Q 3359 1959 3119 1872 
Q 3428 1788 3598 1561 
Q 3769 1334 3769 1003 
Q 3769 497 3403 248 
Q 3038 0 2294 0 
L 538 0 
L 538 3500 
z
" transform="scale(0.015625)"/>
      <path id="DejaVuSans-Bold-43d" d="M 538 3500 
L 1656 3500 
L 1656 2169 
L 2766 2169 
L 2766 3500 
L 3884 3500 
L 3884 0 
L 2766 0 
L 2766 1478 
L 1656 1478 
L 1656 0 
L 538 0 
L 538 3500 
z
" transform="scale(0.015625)"/>
      <path id="DejaVuSans-Bold-435" d="M 4031 1759 
L 4031 1441 
L 1416 1441 
Q 1456 1047 1700 850 
Q 1944 653 2381 653 
Q 2734 653 3104 758 
Q 3475 863 3866 1075 
L 3866 213 
Q 3469 63 3072 -14 
Q 2675 -91 2278 -91 
Q 1328 -91 801 392 
Q 275 875 275 1747 
Q 275 2603 792 3093 
Q 1309 3584 2216 3584 
Q 3041 3584 3536 3087 
Q 4031 2591 4031 1759 
z
M 2881 2131 
Q 2881 2450 2695 2645 
Q 2509 2841 2209 2841 
Q 1884 2841 1681 2658 
Q 1478 2475 1428 2131 
L 2881 2131 
z
" transform="scale(0.015625)"/>
      <path id="DejaVuSans-Bold-438" d="M 3947 3500 
L 3947 0 
L 2828 0 
L 2828 1863 
L 1700 0 
L 538 0 
L 538 3500 
L 1656 3500 
L 1656 1638 
L 2784 3500 
L 3947 3500 
z
" transform="scale(0.015625)"/>
      <path id="DejaVuSans-Bold-20" transform="scale(0.015625)"/>
      <path id="DejaVuSans-Bold-43f" d="M 3884 3500 
L 3884 0 
L 2766 0 
L 2766 2700 
L 1656 2700 
L 1656 0 
L 538 0 
L 538 3500 
L 3884 3500 
z
" transform="scale(0.015625)"/>
      <path id="DejaVuSans-Bold-43e" d="M 2203 2784 
Q 1831 2784 1636 2517 
Q 1441 2250 1441 1747 
Q 1441 1244 1636 976 
Q 1831 709 2203 709 
Q 2569 709 2762 976 
Q 2956 1244 2956 1747 
Q 2956 2250 2762 2517 
Q 2569 2784 2203 2784 
z
M 2203 3584 
Q 3106 3584 3614 3096 
Q 4122 2609 4122 1747 
Q 4122 884 3614 396 
Q 3106 -91 2203 -91 
Q 1297 -91 786 396 
Q 275 884 275 1747 
Q 275 2609 786 3096 
Q 1297 3584 2203 3584 
z
" transform="scale(0.015625)"/>
      <path id="DejaVuSans-Bold-433" d="M 538 0 
L 538 3500 
L 3191 3500 
L 3191 2809 
L 1656 2809 
L 1656 0 
L 538 0 
z
" transform="scale(0.015625)"/>
      <path id="DejaVuSans-Bold-437" d="M 900 2181 
L 1413 2181 
Q 1872 2181 2039 2281 
Q 2206 2381 2206 2519 
Q 2206 2841 1469 2841 
Q 853 2841 472 2625 
L 472 3434 
Q 1041 3584 1713 3584 
Q 2500 3584 2862 3361 
Q 3225 3138 3225 2666 
Q 3225 2047 2541 1888 
Q 3313 1697 3313 994 
Q 3313 453 2888 181 
Q 2463 -91 1553 -91 
Q 875 -91 313 84 
L 313 947 
Q 1013 653 1428 653 
Q 1884 653 2089 776 
Q 2294 900 2294 1056 
Q 2294 1491 1394 1491 
L 900 1491 
L 900 2181 
z
" transform="scale(0.015625)"/>
      <path id="DejaVuSans-Bold-43c" d="M 538 3500 
L 1825 3500 
L 2613 1750 
L 3400 3500 
L 4691 3500 
L 4691 0 
L 3575 0 
L 3575 1984 
L 2984 672 
L 2250 672 
L 1656 1984 
L 1656 0 
L 538 0 
L 538 3500 
z
" transform="scale(0.015625)"/>
      <path id="DejaVuSans-Bold-434" d="M 547 800 
Q 903 919 1053 1314 
Q 1203 1709 1203 2838 
L 1203 3500 
L 4228 3500 
L 4228 800 
L 4809 800 
L 4809 -884 
L 4009 -884 
L 4009 0 
L 1159 0 
L 1159 -884 
L 359 -884 
L 359 800 
L 547 800 
z
M 3109 2700 
L 2322 2700 
L 2322 2603 
Q 2322 1456 2063 800 
L 3109 800 
L 3109 2700 
z
" transform="scale(0.015625)"/>
      <path id="DejaVuSans-Bold-43b" d="M 353 0 
L 353 800 
Q 906 913 1031 1278 
Q 1125 1556 1125 2928 
L 1125 3500 
L 4150 3500 
L 4150 0 
L 3031 0 
L 3031 2700 
L 2244 2700 
L 2244 2584 
Q 2244 1213 2028 813 
Q 1591 0 353 0 
z
" transform="scale(0.015625)"/>
      <path id="DejaVuSans-Bold-439" d="M 3947 3500 
L 3947 0 
L 2828 0 
L 2828 1863 
L 1700 0 
L 538 0 
L 538 3500 
L 1656 3500 
L 1656 1638 
L 2784 3500 
L 3947 3500 
z
M 1190 4891 
L 1637 4891 
Q 1671 4672 1826 4556 
Q 1981 4441 2240 4441 
Q 2499 4441 2654 4556 
Q 2809 4672 2843 4891 
L 3290 4891 
Q 3271 4441 2999 4202 
Q 2728 3963 2240 3963 
Q 1753 3963 1481 4202 
Q 1209 4441 1190 4891 
z
" transform="scale(0.015625)"/>
      <path id="DejaVuSans-Bold-5b" d="M 550 4863 
L 2491 4863 
L 2491 4159 
L 1613 4159 
L 1613 -141 
L 2491 -141 
L 2491 -844 
L 550 -844 
L 550 4863 
z
" transform="scale(0.015625)"/>
      <path id="DejaVuSans-Bold-43a" d="M 538 3500 
L 1656 3500 
L 1656 2316 
L 2903 3500 
L 4128 3500 
L 2634 2078 
L 4250 0 
L 3094 0 
L 1972 1447 
L 1656 1147 
L 1656 0 
L 538 0 
L 538 3500 
z
" transform="scale(0.015625)"/>
      <path id="DejaVuSans-Bold-412" d="M 2456 2859 
Q 2741 2859 2887 2984 
Q 3034 3109 3034 3353 
Q 3034 3594 2887 3720 
Q 2741 3847 2456 3847 
L 1791 3847 
L 1791 2859 
L 2456 2859 
z
M 2497 819 
Q 2859 819 3042 972 
Q 3225 1125 3225 1434 
Q 3225 1738 3044 1889 
Q 2863 2041 2497 2041 
L 1791 2041 
L 1791 819 
L 2497 819 
z
M 3616 2497 
Q 4003 2384 4215 2081 
Q 4428 1778 4428 1338 
Q 4428 663 3972 331 
Q 3516 0 2584 0 
L 588 0 
L 588 4666 
L 2394 4666 
Q 3366 4666 3802 4372 
Q 4238 4078 4238 3431 
Q 4238 3091 4078 2852 
Q 3919 2613 3616 2497 
z
" transform="scale(0.015625)"/>
      <path id="DejaVuSans-Bold-442" d="M 25 3500 
L 3681 3500 
L 3681 2809 
L 2413 2809 
L 2413 0 
L 1297 0 
L 1297 2809 
L 25 2809 
L 25 3500 
z
" transform="scale(0.015625)"/>
      <path id="DejaVuSans-Bold-b7" d="M 653 2828 
L 1778 2828 
L 1778 1619 
L 653 1619 
L 653 2828 
z
" transform="scale(0.015625)"/>
      <path id="DejaVuSans-Bold-447" d="M 2550 0 
L 2550 1353 
L 1400 1353 
Q 931 1353 672 1629 
Q 413 1906 413 2450 
L 413 3500 
L 1531 3500 
L 1531 2878 
Q 1531 2322 1622 2183 
Q 1713 2044 1950 2044 
L 2550 2044 
L 2550 3500 
L 3669 3500 
L 3669 0 
L 2550 0 
z
" transform="scale(0.015625)"/>
      <path id="DejaVuSans-Bold-5d" d="M 2375 -844 
L 434 -844 
L 434 -141 
L 1313 -141 
L 1313 4159 
L 434 4159 
L 434 4863 
L 2375 4863 
L 2375 -844 
z
" transform="scale(0.015625)"/>
     </defs>
     <use xlink:href="#DejaVuSans-Bold-421"/>
     <use xlink:href="#DejaVuSans-Bold-440" x="73.388672"/>
     <use xlink:href="#DejaVuSans-Bold-430" x="144.970703"/>
     <use xlink:href="#DejaVuSans-Bold-432" x="212.451172"/>
     <use xlink:href="#DejaVuSans-Bold-43d" x="275.732422"/>
     <use xlink:href="#DejaVuSans-Bold-435" x="344.824219"/>
     <use xlink:href="#DejaVuSans-Bold-43d" x="412.646484"/>
     <use xlink:href="#DejaVuSans-Bold-438" x="481.738281"/>
     <use xlink:href="#DejaVuSans-Bold-435" x="551.806641"/>
     <use xlink:href="#DejaVuSans-Bold-20" x="619.628906"/>
     <use xlink:href="#DejaVuSans-Bold-43f" x="654.443359"/>
     <use xlink:href="#DejaVuSans-Bold-440" x="723.535156"/>
     <use xlink:href="#DejaVuSans-Bold-43e" x="795.117188"/>
     <use xlink:href="#DejaVuSans-Bold-433" x="863.818359"/>
     <use xlink:href="#DejaVuSans-Bold-43d" x="916.064453"/>
     <use xlink:href="#DejaVuSans-Bold-43e" x="985.15625"/>
     <use xlink:href="#DejaVuSans-Bold-437" x="1053.857422"/>
     <use xlink:href="#DejaVuSans-Bold-43e" x="1111.962891"/>
     <use xlink:href="#DejaVuSans-Bold-432" x="1180.664062"/>
     <use xlink:href="#DejaVuSans-Bold-20" x="1243.945312"/>
     <use xlink:href="#DejaVuSans-Bold-43c" x="1278.759766"/>
     <use xlink:href="#DejaVuSans-Bold-43e" x="1360.498047"/>
     <use xlink:href="#DejaVuSans-Bold-434" x="1429.199219"/>
     <use xlink:href="#DejaVuSans-Bold-435" x="1509.960938"/>
     <use xlink:href="#DejaVuSans-Bold-43b" x="1577.783203"/>
     <use xlink:href="#DejaVuSans-Bold-435" x="1651.025391"/>
     <use xlink:href="#DejaVuSans-Bold-439" x="1718.847656"/>
     <use xlink:href="#DejaVuSans-Bold-20" x="1788.916016"/>
     <use xlink:href="#DejaVuSans-Bold-5b" x="1823.730469"/>
     <use xlink:href="#DejaVuSans-Bold-43a" x="1869.433594"/>
     <use xlink:href="#DejaVuSans-Bold-412" x="1937.304688"/>
     <use xlink:href="#DejaVuSans-Bold-442" x="2013.525391"/>
     <use xlink:href="#DejaVuSans-Bold-b7" x="2071.484375"/>
     <use xlink:href="#DejaVuSans-Bold-447" x="2109.472656"/>
     <use xlink:href="#DejaVuSans-Bold-5d" x="2178.125"/>
    </g>
   </g>
   <g id="legend_1">
    <g id="patch_5">
     <path d="M 979.573534 144.192187 
L 1120.789472 144.192187 
Q 1122.989472 144.192187 1122.989472 141.992187 
L 1122.989472 30.070625 
Q 1122.989472 27.870625 1120.789472 27.870625 
L 979.573534 27.870625 
Q 977.373534 27.870625 977.373534 30.070625 
L 977.373534 141.992187 
Q 977.373534 144.192187 979.573534 144.192187 
z
" style="fill: #ffffff; opacity: 0.95; stroke: #cccccc; stroke-linejoin: miter"/>
    </g>
    <g id="line2d_21">
     <path d="M 981.773534 36.778906 
L 992.773534 36.778906 
L 1003.773534 36.778906 
" style="fill: none; stroke: #000000; stroke-width: 2; stroke-linecap: round"/>
    </g>
    <g id="text_17">
     <!-- Факт -->
     <g style="fill: #262626" transform="translate(1012.573534 40.628906) scale(0.11 -0.11)">
      <defs>
       <path id="DejaVuSans-424" d="M 2441 3706 
Q 1763 3644 1403 3325 
Q 1044 3006 1044 2391 
Q 1044 1775 1403 1458 
Q 1763 1141 2441 1078 
L 2441 3706 
z
M 3075 1078 
Q 3753 1141 4109 1458 
Q 4466 1775 4466 2391 
Q 4466 3006 4109 3325 
Q 3753 3644 3075 3706 
L 3075 1078 
z
M 2441 556 
Q 1450 628 914 1095 
Q 378 1563 378 2391 
Q 378 3219 914 3689 
Q 1450 4159 2441 4231 
L 2441 4666 
L 3075 4666 
L 3075 4231 
Q 4066 4159 4598 3692 
Q 5131 3225 5131 2391 
Q 5131 1563 4598 1095 
Q 4066 628 3075 556 
L 3075 0 
L 2441 0 
L 2441 556 
z
" transform="scale(0.015625)"/>
      </defs>
      <use xlink:href="#DejaVuSans-424"/>
      <use xlink:href="#DejaVuSans-430" x="86.083984"/>
      <use xlink:href="#DejaVuSans-43a" x="147.363281"/>
      <use xlink:href="#DejaVuSans-442" x="207.763672"/>
     </g>
    </g>
    <g id="line2d_22">
     <path d="M 981.773534 52.924844 
L 992.773534 52.924844 
L 1003.773534 52.924844 
" style="fill: none; stroke: #0173b2; stroke-opacity: 0.85; stroke-width: 1.5; stroke-linecap: round"/>
    </g>
    <g id="text_18">
     <!-- LSTM -->
     <g style="fill: #262626" transform="translate(1012.573534 56.774844) scale(0.11 -0.11)">
      <defs>
       <path id="DejaVuSans-4c" d="M 628 4666 
L 1259 4666 
L 1259 531 
L 3531 531 
L 3531 0 
L 628 0 
L 628 4666 
z
" transform="scale(0.015625)"/>
       <path id="DejaVuSans-53" d="M 3425 4513 
L 3425 3897 
Q 3066 4069 2747 4153 
Q 2428 4238 2131 4238 
Q 1616 4238 1336 4038 
Q 1056 3838 1056 3469 
Q 1056 3159 1242 3001 
Q 1428 2844 1947 2747 
L 2328 2669 
Q 3034 2534 3370 2195 
Q 3706 1856 3706 1288 
Q 3706 609 3251 259 
Q 2797 -91 1919 -91 
Q 1588 -91 1214 -16 
Q 841 59 441 206 
L 441 856 
Q 825 641 1194 531 
Q 1563 422 1919 422 
Q 2459 422 2753 634 
Q 3047 847 3047 1241 
Q 3047 1584 2836 1778 
Q 2625 1972 2144 2069 
L 1759 2144 
Q 1053 2284 737 2584 
Q 422 2884 422 3419 
Q 422 4038 858 4394 
Q 1294 4750 2059 4750 
Q 2388 4750 2728 4690 
Q 3069 4631 3425 4513 
z
" transform="scale(0.015625)"/>
       <path id="DejaVuSans-54" d="M -19 4666 
L 3928 4666 
L 3928 4134 
L 2272 4134 
L 2272 0 
L 1638 0 
L 1638 4134 
L -19 4134 
L -19 4666 
z
" transform="scale(0.015625)"/>
       <path id="DejaVuSans-4d" d="M 628 4666 
L 1569 4666 
L 2759 1491 
L 3956 4666 
L 4897 4666 
L 4897 0 
L 4281 0 
L 4281 4097 
L 3078 897 
L 2444 897 
L 1241 4097 
L 1241 0 
L 628 0 
L 628 4666 
z
" transform="scale(0.015625)"/>
      </defs>
      <use xlink:href="#DejaVuSans-4c"/>
      <use xlink:href="#DejaVuSans-53" x="55.712891"/>
      <use xlink:href="#DejaVuSans-54" x="119.189453"/>
      <use xlink:href="#DejaVuSans-4d" x="180.273438"/>
     </g>
    </g>
    <g id="line2d_23">
     <path d="M 981.773534 69.070781 
L 992.773534 69.070781 
L 1003.773534 69.070781 
" style="fill: none; stroke: #de8f05; stroke-opacity: 0.85; stroke-width: 1.5; stroke-linecap: round"/>
    </g>
    <g id="text_19">
     <!-- VanillaTransformer -->
     <g style="fill: #262626" transform="translate(1012.573534 72.920781) scale(0.11 -0.11)">
      <defs>
       <path id="DejaVuSans-56" d="M 1831 0 
L 50 4666 
L 709 4666 
L 2188 738 
L 3669 4666 
L 4325 4666 
L 2547 0 
L 1831 0 
z
" transform="scale(0.015625)"/>
       <path id="DejaVuSans-61" d="M 2194 1759 
Q 1497 1759 1228 1600 
Q 959 1441 959 1056 
Q 959 750 1161 570 
Q 1363 391 1709 391 
Q 2188 391 2477 730 
Q 2766 1069 2766 1631 
L 2766 1759 
L 2194 1759 
z
M 3341 1997 
L 3341 0 
L 2766 0 
L 2766 531 
Q 2569 213 2275 61 
Q 1981 -91 1556 -91 
Q 1019 -91 701 211 
Q 384 513 384 1019 
Q 384 1609 779 1909 
Q 1175 2209 1959 2209 
L 2766 2209 
L 2766 2266 
Q 2766 2663 2505 2880 
Q 2244 3097 1772 3097 
Q 1472 3097 1187 3025 
Q 903 2953 641 2809 
L 641 3341 
Q 956 3463 1253 3523 
Q 1550 3584 1831 3584 
Q 2591 3584 2966 3190 
Q 3341 2797 3341 1997 
z
" transform="scale(0.015625)"/>
       <path id="DejaVuSans-6e" d="M 3513 2113 
L 3513 0 
L 2938 0 
L 2938 2094 
Q 2938 2591 2744 2837 
Q 2550 3084 2163 3084 
Q 1697 3084 1428 2787 
Q 1159 2491 1159 1978 
L 1159 0 
L 581 0 
L 581 3500 
L 1159 3500 
L 1159 2956 
Q 1366 3272 1645 3428 
Q 1925 3584 2291 3584 
Q 2894 3584 3203 3211 
Q 3513 2838 3513 2113 
z
" transform="scale(0.015625)"/>
       <path id="DejaVuSans-69" d="M 603 3500 
L 1178 3500 
L 1178 0 
L 603 0 
L 603 3500 
z
M 603 4863 
L 1178 4863 
L 1178 4134 
L 603 4134 
L 603 4863 
z
" transform="scale(0.015625)"/>
       <path id="DejaVuSans-6c" d="M 603 4863 
L 1178 4863 
L 1178 0 
L 603 0 
L 603 4863 
z
" transform="scale(0.015625)"/>
       <path id="DejaVuSans-72" d="M 2631 2963 
Q 2534 3019 2420 3045 
Q 2306 3072 2169 3072 
Q 1681 3072 1420 2755 
Q 1159 2438 1159 1844 
L 1159 0 
L 581 0 
L 581 3500 
L 1159 3500 
L 1159 2956 
Q 1341 3275 1631 3429 
Q 1922 3584 2338 3584 
Q 2397 3584 2469 3576 
Q 2541 3569 2628 3553 
L 2631 2963 
z
" transform="scale(0.015625)"/>
       <path id="DejaVuSans-73" d="M 2834 3397 
L 2834 2853 
Q 2591 2978 2328 3040 
Q 2066 3103 1784 3103 
Q 1356 3103 1142 2972 
Q 928 2841 928 2578 
Q 928 2378 1081 2264 
Q 1234 2150 1697 2047 
L 1894 2003 
Q 2506 1872 2764 1633 
Q 3022 1394 3022 966 
Q 3022 478 2636 193 
Q 2250 -91 1575 -91 
Q 1294 -91 989 -36 
Q 684 19 347 128 
L 347 722 
Q 666 556 975 473 
Q 1284 391 1588 391 
Q 1994 391 2212 530 
Q 2431 669 2431 922 
Q 2431 1156 2273 1281 
Q 2116 1406 1581 1522 
L 1381 1569 
Q 847 1681 609 1914 
Q 372 2147 372 2553 
Q 372 3047 722 3315 
Q 1072 3584 1716 3584 
Q 2034 3584 2315 3537 
Q 2597 3491 2834 3397 
z
" transform="scale(0.015625)"/>
       <path id="DejaVuSans-66" d="M 2375 4863 
L 2375 4384 
L 1825 4384 
Q 1516 4384 1395 4259 
Q 1275 4134 1275 3809 
L 1275 3500 
L 2222 3500 
L 2222 3053 
L 1275 3053 
L 1275 0 
L 697 0 
L 697 3053 
L 147 3053 
L 147 3500 
L 697 3500 
L 697 3744 
Q 697 4328 969 4595 
Q 1241 4863 1831 4863 
L 2375 4863 
z
" transform="scale(0.015625)"/>
       <path id="DejaVuSans-6f" d="M 1959 3097 
Q 1497 3097 1228 2736 
Q 959 2375 959 1747 
Q 959 1119 1226 758 
Q 1494 397 1959 397 
Q 2419 397 2687 759 
Q 2956 1122 2956 1747 
Q 2956 2369 2687 2733 
Q 2419 3097 1959 3097 
z
M 1959 3584 
Q 2709 3584 3137 3096 
Q 3566 2609 3566 1747 
Q 3566 888 3137 398 
Q 2709 -91 1959 -91 
Q 1206 -91 779 398 
Q 353 888 353 1747 
Q 353 2609 779 3096 
Q 1206 3584 1959 3584 
z
" transform="scale(0.015625)"/>
       <path id="DejaVuSans-6d" d="M 3328 2828 
Q 3544 3216 3844 3400 
Q 4144 3584 4550 3584 
Q 5097 3584 5394 3201 
Q 5691 2819 5691 2113 
L 5691 0 
L 5113 0 
L 5113 2094 
Q 5113 2597 4934 2840 
Q 4756 3084 4391 3084 
Q 3944 3084 3684 2787 
Q 3425 2491 3425 1978 
L 3425 0 
L 2847 0 
L 2847 2094 
Q 2847 2600 2669 2842 
Q 2491 3084 2119 3084 
Q 1678 3084 1418 2786 
Q 1159 2488 1159 1978 
L 1159 0 
L 581 0 
L 581 3500 
L 1159 3500 
L 1159 2956 
Q 1356 3278 1631 3431 
Q 1906 3584 2284 3584 
Q 2666 3584 2933 3390 
Q 3200 3197 3328 2828 
z
" transform="scale(0.015625)"/>
       <path id="DejaVuSans-65" d="M 3597 1894 
L 3597 1613 
L 953 1613 
Q 991 1019 1311 708 
Q 1631 397 2203 397 
Q 2534 397 2845 478 
Q 3156 559 3463 722 
L 3463 178 
Q 3153 47 2828 -22 
Q 2503 -91 2169 -91 
Q 1331 -91 842 396 
Q 353 884 353 1716 
Q 353 2575 817 3079 
Q 1281 3584 2069 3584 
Q 2775 3584 3186 3129 
Q 3597 2675 3597 1894 
z
M 3022 2063 
Q 3016 2534 2758 2815 
Q 2500 3097 2075 3097 
Q 1594 3097 1305 2825 
Q 1016 2553 972 2059 
L 3022 2063 
z
" transform="scale(0.015625)"/>
      </defs>
      <use xlink:href="#DejaVuSans-56"/>
      <use xlink:href="#DejaVuSans-61" x="60.658203"/>
      <use xlink:href="#DejaVuSans-6e" x="121.9375"/>
      <use xlink:href="#DejaVuSans-69" x="185.316406"/>
      <use xlink:href="#DejaVuSans-6c" x="213.099609"/>
      <use xlink:href="#DejaVuSans-6c" x="240.882812"/>
      <use xlink:href="#DejaVuSans-61" x="268.666016"/>
      <use xlink:href="#DejaVuSans-54" x="329.945312"/>
      <use xlink:href="#DejaVuSans-72" x="376.279297"/>
      <use xlink:href="#DejaVuSans-61" x="417.392578"/>
      <use xlink:href="#DejaVuSans-6e" x="478.671875"/>
      <use xlink:href="#DejaVuSans-73" x="542.050781"/>
      <use xlink:href="#DejaVuSans-66" x="594.150391"/>
      <use xlink:href="#DejaVuSans-6f" x="629.355469"/>
      <use xlink:href="#DejaVuSans-72" x="690.537109"/>
      <use xlink:href="#DejaVuSans-6d" x="729.900391"/>
      <use xlink:href="#DejaVuSans-65" x="827.3125"/>
      <use xlink:href="#DejaVuSans-72" x="888.835938"/>
     </g>
    </g>
    <g id="line2d_24">
     <path d="M 981.773534 85.216719 
L 992.773534 85.216719 
L 1003.773534 85.216719 
" style="fill: none; stroke: #029e73; stroke-opacity: 0.85; stroke-width: 1.5; stroke-linecap: round"/>
    </g>
    <g id="text_20">
     <!-- PatchTST -->
     <g style="fill: #262626" transform="translate(1012.573534 89.066719) scale(0.11 -0.11)">
      <defs>
       <path id="DejaVuSans-50" d="M 1259 4147 
L 1259 2394 
L 2053 2394 
Q 2494 2394 2734 2622 
Q 2975 2850 2975 3272 
Q 2975 3691 2734 3919 
Q 2494 4147 2053 4147 
L 1259 4147 
z
M 628 4666 
L 2053 4666 
Q 2838 4666 3239 4311 
Q 3641 3956 3641 3272 
Q 3641 2581 3239 2228 
Q 2838 1875 2053 1875 
L 1259 1875 
L 1259 0 
L 628 0 
L 628 4666 
z
" transform="scale(0.015625)"/>
       <path id="DejaVuSans-74" d="M 1172 4494 
L 1172 3500 
L 2356 3500 
L 2356 3053 
L 1172 3053 
L 1172 1153 
Q 1172 725 1289 603 
Q 1406 481 1766 481 
L 2356 481 
L 2356 0 
L 1766 0 
Q 1100 0 847 248 
Q 594 497 594 1153 
L 594 3053 
L 172 3053 
L 172 3500 
L 594 3500 
L 594 4494 
L 1172 4494 
z
" transform="scale(0.015625)"/>
       <path id="DejaVuSans-63" d="M 3122 3366 
L 3122 2828 
Q 2878 2963 2633 3030 
Q 2388 3097 2138 3097 
Q 1578 3097 1268 2742 
Q 959 2388 959 1747 
Q 959 1106 1268 751 
Q 1578 397 2138 397 
Q 2388 397 2633 464 
Q 2878 531 3122 666 
L 3122 134 
Q 2881 22 2623 -34 
Q 2366 -91 2075 -91 
Q 1284 -91 818 406 
Q 353 903 353 1747 
Q 353 2603 823 3093 
Q 1294 3584 2113 3584 
Q 2378 3584 2631 3529 
Q 2884 3475 3122 3366 
z
" transform="scale(0.015625)"/>
       <path id="DejaVuSans-68" d="M 3513 2113 
L 3513 0 
L 2938 0 
L 2938 2094 
Q 2938 2591 2744 2837 
Q 2550 3084 2163 3084 
Q 1697 3084 1428 2787 
Q 1159 2491 1159 1978 
L 1159 0 
L 581 0 
L 581 4863 
L 1159 4863 
L 1159 2956 
Q 1366 3272 1645 3428 
Q 1925 3584 2291 3584 
Q 2894 3584 3203 3211 
Q 3513 2838 3513 2113 
z
" transform="scale(0.015625)"/>
      </defs>
      <use xlink:href="#DejaVuSans-50"/>
      <use xlink:href="#DejaVuSans-61" x="55.802734"/>
      <use xlink:href="#DejaVuSans-74" x="117.082031"/>
      <use xlink:href="#DejaVuSans-63" x="156.291016"/>
      <use xlink:href="#DejaVuSans-68" x="211.271484"/>
      <use xlink:href="#DejaVuSans-54" x="274.650391"/>
      <use xlink:href="#DejaVuSans-53" x="335.734375"/>
      <use xlink:href="#DejaVuSans-54" x="399.210938"/>
     </g>
    </g>
    <g id="line2d_25">
     <path d="M 981.773534 101.362656 
L 992.773534 101.362656 
L 1003.773534 101.362656 
" style="fill: none; stroke: #d55e00; stroke-opacity: 0.85; stroke-width: 1.5; stroke-linecap: round"/>
    </g>
    <g id="text_21">
     <!-- LinearRegression -->
     <g style="fill: #262626" transform="translate(1012.573534 105.212656) scale(0.11 -0.11)">
      <defs>
       <path id="DejaVuSans-52" d="M 2841 2188 
Q 3044 2119 3236 1894 
Q 3428 1669 3622 1275 
L 4263 0 
L 3584 0 
L 2988 1197 
Q 2756 1666 2539 1819 
Q 2322 1972 1947 1972 
L 1259 1972 
L 1259 0 
L 628 0 
L 628 4666 
L 2053 4666 
Q 2853 4666 3247 4331 
Q 3641 3997 3641 3322 
Q 3641 2881 3436 2590 
Q 3231 2300 2841 2188 
z
M 1259 4147 
L 1259 2491 
L 2053 2491 
Q 2509 2491 2742 2702 
Q 2975 2913 2975 3322 
Q 2975 3731 2742 3939 
Q 2509 4147 2053 4147 
L 1259 4147 
z
" transform="scale(0.015625)"/>
       <path id="DejaVuSans-67" d="M 2906 1791 
Q 2906 2416 2648 2759 
Q 2391 3103 1925 3103 
Q 1463 3103 1205 2759 
Q 947 2416 947 1791 
Q 947 1169 1205 825 
Q 1463 481 1925 481 
Q 2391 481 2648 825 
Q 2906 1169 2906 1791 
z
M 3481 434 
Q 3481 -459 3084 -895 
Q 2688 -1331 1869 -1331 
Q 1566 -1331 1297 -1286 
Q 1028 -1241 775 -1147 
L 775 -588 
Q 1028 -725 1275 -790 
Q 1522 -856 1778 -856 
Q 2344 -856 2625 -561 
Q 2906 -266 2906 331 
L 2906 616 
Q 2728 306 2450 153 
Q 2172 0 1784 0 
Q 1141 0 747 490 
Q 353 981 353 1791 
Q 353 2603 747 3093 
Q 1141 3584 1784 3584 
Q 2172 3584 2450 3431 
Q 2728 3278 2906 2969 
L 2906 3500 
L 3481 3500 
L 3481 434 
z
" transform="scale(0.015625)"/>
      </defs>
      <use xlink:href="#DejaVuSans-4c"/>
      <use xlink:href="#DejaVuSans-69" x="55.712891"/>
      <use xlink:href="#DejaVuSans-6e" x="83.496094"/>
      <use xlink:href="#DejaVuSans-65" x="146.875"/>
      <use xlink:href="#DejaVuSans-61" x="208.398438"/>
      <use xlink:href="#DejaVuSans-72" x="269.677734"/>
      <use xlink:href="#DejaVuSans-52" x="310.791016"/>
      <use xlink:href="#DejaVuSans-65" x="375.773438"/>
      <use xlink:href="#DejaVuSans-67" x="437.296875"/>
      <use xlink:href="#DejaVuSans-72" x="500.773438"/>
      <use xlink:href="#DejaVuSans-65" x="539.636719"/>
      <use xlink:href="#DejaVuSans-73" x="601.160156"/>
      <use xlink:href="#DejaVuSans-73" x="653.259766"/>
      <use xlink:href="#DejaVuSans-69" x="705.359375"/>
      <use xlink:href="#DejaVuSans-6f" x="733.142578"/>
      <use xlink:href="#DejaVuSans-6e" x="794.324219"/>
     </g>
    </g>
    <g id="line2d_26">
     <path d="M 981.773534 117.508594 
L 992.773534 117.508594 
L 1003.773534 117.508594 
" style="fill: none; stroke: #cc78bc; stroke-opacity: 0.85; stroke-width: 1.5; stroke-linecap: round"/>
    </g>
    <g id="text_22">
     <!-- XGBoost -->
     <g style="fill: #262626" transform="translate(1012.573534 121.358594) scale(0.11 -0.11)">
      <defs>
       <path id="DejaVuSans-58" d="M 403 4666 
L 1081 4666 
L 2241 2931 
L 3406 4666 
L 4084 4666 
L 2584 2425 
L 4184 0 
L 3506 0 
L 2194 1984 
L 872 0 
L 191 0 
L 1856 2491 
L 403 4666 
z
" transform="scale(0.015625)"/>
       <path id="DejaVuSans-47" d="M 3809 666 
L 3809 1919 
L 2778 1919 
L 2778 2438 
L 4434 2438 
L 4434 434 
Q 4069 175 3628 42 
Q 3188 -91 2688 -91 
Q 1594 -91 976 548 
Q 359 1188 359 2328 
Q 359 3472 976 4111 
Q 1594 4750 2688 4750 
Q 3144 4750 3555 4637 
Q 3966 4525 4313 4306 
L 4313 3634 
Q 3963 3931 3569 4081 
Q 3175 4231 2741 4231 
Q 1884 4231 1454 3753 
Q 1025 3275 1025 2328 
Q 1025 1384 1454 906 
Q 1884 428 2741 428 
Q 3075 428 3337 486 
Q 3600 544 3809 666 
z
" transform="scale(0.015625)"/>
       <path id="DejaVuSans-42" d="M 1259 2228 
L 1259 519 
L 2272 519 
Q 2781 519 3026 730 
Q 3272 941 3272 1375 
Q 3272 1813 3026 2020 
Q 2781 2228 2272 2228 
L 1259 2228 
z
M 1259 4147 
L 1259 2741 
L 2194 2741 
Q 2656 2741 2882 2914 
Q 3109 3088 3109 3444 
Q 3109 3797 2882 3972 
Q 2656 4147 2194 4147 
L 1259 4147 
z
M 628 4666 
L 2241 4666 
Q 2963 4666 3353 4366 
Q 3744 4066 3744 3513 
Q 3744 3084 3544 2831 
Q 3344 2578 2956 2516 
Q 3422 2416 3680 2098 
Q 3938 1781 3938 1306 
Q 3938 681 3513 340 
Q 3088 0 2303 0 
L 628 0 
L 628 4666 
z
" transform="scale(0.015625)"/>
      </defs>
      <use xlink:href="#DejaVuSans-58"/>
      <use xlink:href="#DejaVuSans-47" x="68.505859"/>
      <use xlink:href="#DejaVuSans-42" x="145.996094"/>
      <use xlink:href="#DejaVuSans-6f" x="214.599609"/>
      <use xlink:href="#DejaVuSans-6f" x="275.78125"/>
      <use xlink:href="#DejaVuSans-73" x="336.962891"/>
      <use xlink:href="#DejaVuSans-74" x="389.0625"/>
     </g>
    </g>
    <g id="line2d_27">
     <path d="M 981.773534 133.654531 
L 992.773534 133.654531 
L 1003.773534 133.654531 
" style="fill: none; stroke: #ca9161; stroke-opacity: 0.85; stroke-width: 1.5; stroke-linecap: round"/>
    </g>
    <g id="text_23">
     <!-- WeightedEnsemble -->
     <g style="fill: #262626" transform="translate(1012.573534 137.504531) scale(0.11 -0.11)">
      <defs>
       <path id="DejaVuSans-57" d="M 213 4666 
L 850 4666 
L 1831 722 
L 2809 4666 
L 3519 4666 
L 4500 722 
L 5478 4666 
L 6119 4666 
L 4947 0 
L 4153 0 
L 3169 4050 
L 2175 0 
L 1381 0 
L 213 4666 
z
" transform="scale(0.015625)"/>
       <path id="DejaVuSans-64" d="M 2906 2969 
L 2906 4863 
L 3481 4863 
L 3481 0 
L 2906 0 
L 2906 525 
Q 2725 213 2448 61 
Q 2172 -91 1784 -91 
Q 1150 -91 751 415 
Q 353 922 353 1747 
Q 353 2572 751 3078 
Q 1150 3584 1784 3584 
Q 2172 3584 2448 3432 
Q 2725 3281 2906 2969 
z
M 947 1747 
Q 947 1113 1208 752 
Q 1469 391 1925 391 
Q 2381 391 2643 752 
Q 2906 1113 2906 1747 
Q 2906 2381 2643 2742 
Q 2381 3103 1925 3103 
Q 1469 3103 1208 2742 
Q 947 2381 947 1747 
z
" transform="scale(0.015625)"/>
       <path id="DejaVuSans-45" d="M 628 4666 
L 3578 4666 
L 3578 4134 
L 1259 4134 
L 1259 2753 
L 3481 2753 
L 3481 2222 
L 1259 2222 
L 1259 531 
L 3634 531 
L 3634 0 
L 628 0 
L 628 4666 
z
" transform="scale(0.015625)"/>
       <path id="DejaVuSans-62" d="M 3116 1747 
Q 3116 2381 2855 2742 
Q 2594 3103 2138 3103 
Q 1681 3103 1420 2742 
Q 1159 2381 1159 1747 
Q 1159 1113 1420 752 
Q 1681 391 2138 391 
Q 2594 391 2855 752 
Q 3116 1113 3116 1747 
z
M 1159 2969 
Q 1341 3281 1617 3432 
Q 1894 3584 2278 3584 
Q 2916 3584 3314 3078 
Q 3713 2572 3713 1747 
Q 3713 922 3314 415 
Q 2916 -91 2278 -91 
Q 1894 -91 1617 61 
Q 1341 213 1159 525 
L 1159 0 
L 581 0 
L 581 4863 
L 1159 4863 
L 1159 2969 
z
" transform="scale(0.015625)"/>
      </defs>
      <use xlink:href="#DejaVuSans-57"/>
      <use xlink:href="#DejaVuSans-65" x="93.001953"/>
      <use xlink:href="#DejaVuSans-69" x="154.525391"/>
      <use xlink:href="#DejaVuSans-67" x="182.308594"/>
      <use xlink:href="#DejaVuSans-68" x="245.785156"/>
      <use xlink:href="#DejaVuSans-74" x="309.164062"/>
      <use xlink:href="#DejaVuSans-65" x="348.373047"/>
      <use xlink:href="#DejaVuSans-64" x="409.896484"/>
      <use xlink:href="#DejaVuSans-45" x="473.373047"/>
      <use xlink:href="#DejaVuSans-6e" x="536.556641"/>
      <use xlink:href="#DejaVuSans-73" x="599.935547"/>
      <use xlink:href="#DejaVuSans-65" x="652.035156"/>
      <use xlink:href="#DejaVuSans-6d" x="713.558594"/>
      <use xlink:href="#DejaVuSans-62" x="810.970703"/>
      <use xlink:href="#DejaVuSans-6c" x="874.447266"/>
      <use xlink:href="#DejaVuSans-65" x="902.230469"/>
     </g>
    </g>
   </g>
  </g>
 </g>
 <defs>
  <clipPath id="pef396c77d9">
   <rect x="65.542188" y="22.370625" width="1062.947284" height="288.9"/>
  </clipPath>
 </defs>
</svg>
