<?xml version="1.0" encoding="utf-8" standalone="no"?>
<!DOCTYPE svg PUBLIC "-//W3C//DTD SVG 1.1//EN"
  "http://www.w3.org/Graphics/SVG/1.1/DTD/svg11.dtd">
<svg xmlns:xlink="http://www.w3.org/1999/xlink" width="1288.389062pt" height="280.242187pt" viewBox="0 0 1288.389062 280.242187" xmlns="http://www.w3.org/2000/svg" version="1.1">
 <metadata>
  <rdf:RDF xmlns:dc="http://purl.org/dc/elements/1.1/" xmlns:cc="http://creativecommons.org/ns#" xmlns:rdf="http://www.w3.org/1999/02/22-rdf-syntax-ns#">
   <cc:Work>
    <dc:type rdf:resource="http://purl.org/dc/dcmitype/StillImage"/>
    <dc:date>2026-04-12T19:15:31.558690</dc:date>
    <dc:format>image/svg+xml</dc:format>
    <dc:creator>
     <cc:Agent>
      <dc:title>Matplotlib v3.9.0, https://matplotlib.org/</dc:title>
     </cc:Agent>
    </dc:creator>
   </cc:Work>
  </rdf:RDF>
 </metadata>
 <defs>
  <style type="text/css">*{stroke-linejoin: round; stroke-linecap: butt}</style>
 </defs>
 <g id="figure_1">
  <g id="patch_1">
   <path d="M 0 280.242187 
L 1288.389062 280.242187 
L 1288.389062 0 
L 0 0 
z
" style="fill: #ffffff"/>
  </g>
  <g id="axes_1">
   <g id="patch_2">
    <path d="M 61.869063 239.218125 
L 426.729063 239.218125 
L 426.729063 22.318125 
L 61.869063 22.318125 
z
" style="fill: #ffffff"/>
   </g>
   <g id="matplotlib.axis_1">
    <g id="xtick_1">
     <g id="line2d_1">
      <path d="M 78.453608 239.218125 
L 78.453608 22.318125 
" clip-path="url(#p089a2e5eaf)" style="fill: none; stroke-dasharray: 3.7,1.6; stroke-dashoffset: 0; stroke: #cccccc; stroke-opacity: 0.3"/>
     </g>
     <g id="text_1">
      <!-- 0 -->
      <g style="fill: #262626" transform="translate(74.954233 257.076406) scale(0.11 -0.11)">
       <defs>
        <path id="DejaVuSans-30" d="M 2034 4250 
Q 1547 4250 1301 3770 
Q 1056 3291 1056 2328 
Q 1056 1369 1301 889 
Q 1547 409 2034 409 
Q 2525 409 2770 889 
Q 3016 1369 3016 2328 
Q 3016 3291 2770 3770 
Q 2525 4250 2034 4250 
z
M 2034 4750 
Q 2819 4750 3233 4129 
Q 3647 3509 3647 2328 
Q 3647 1150 3233 529 
Q 2819 -91 2034 -91 
Q 1250 -91 836 529 
Q 422 1150 422 2328 
Q 422 3509 836 4129 
Q 1250 4750 2034 4750 
z
" transform="scale(0.015625)"/>
       </defs>
       <use xlink:href="#DejaVuSans-30"/>
      </g>
     </g>
    </g>
    <g id="xtick_2">
     <g id="line2d_2">
      <path d="M 155.591029 239.218125 
L 155.591029 22.318125 
" clip-path="url(#p089a2e5eaf)" style="fill: none; stroke-dasharray: 3.7,1.6; stroke-dashoffset: 0; stroke: #cccccc; stroke-opacity: 0.3"/>
     </g>
     <g id="text_2">
      <!-- 20 -->
      <g style="fill: #262626" transform="translate(148.592279 257.076406) scale(0.11 -0.11)">
       <defs>
        <path id="DejaVuSans-32" d="M 1228 531 
L 3431 531 
L 3431 0 
L 469 0 
L 469 531 
Q 828 903 1448 1529 
Q 2069 2156 2228 2338 
Q 2531 2678 2651 2914 
Q 2772 3150 2772 3378 
Q 2772 3750 2511 3984 
Q 2250 4219 1831 4219 
Q 1534 4219 1204 4116 
Q 875 4013 500 3803 
L 500 4441 
Q 881 4594 1212 4672 
Q 1544 4750 1819 4750 
Q 2544 4750 2975 4387 
Q 3406 4025 3406 3419 
Q 3406 3131 3298 2873 
Q 3191 2616 2906 2266 
Q 2828 2175 2409 1742 
Q 1991 1309 1228 531 
z
" transform="scale(0.015625)"/>
       </defs>
       <use xlink:href="#DejaVuSans-32"/>
       <use xlink:href="#DejaVuSans-30" x="63.623047"/>
      </g>
     </g>
    </g>
    <g id="xtick_3">
     <g id="line2d_3">
      <path d="M 232.728449 239.218125 
L 232.728449 22.318125 
" clip-path="url(#p089a2e5eaf)" style="fill: none; stroke-dasharray: 3.7,1.6; stroke-dashoffset: 0; stroke: #cccccc; stroke-opacity: 0.3"/>
     </g>
     <g id="text_3">
      <!-- 40 -->
      <g style="fill: #262626" transform="translate(225.729699 257.076406) scale(0.11 -0.11)">
       <defs>
        <path id="DejaVuSans-34" d="M 2419 4116 
L 825 1625 
L 2419 1625 
L 2419 4116 
z
M 2253 4666 
L 3047 4666 
L 3047 1625 
L 3713 1625 
L 3713 1100 
L 3047 1100 
L 3047 0 
L 2419 0 
L 2419 1100 
L 313 1100 
L 313 1709 
L 2253 4666 
z
" transform="scale(0.015625)"/>
       </defs>
       <use xlink:href="#DejaVuSans-34"/>
       <use xlink:href="#DejaVuSans-30" x="63.623047"/>
      </g>
     </g>
    </g>
    <g id="xtick_4">
     <g id="line2d_4">
      <path d="M 309.86587 239.218125 
L 309.86587 22.318125 
" clip-path="url(#p089a2e5eaf)" style="fill: none; stroke-dasharray: 3.7,1.6; stroke-dashoffset: 0; stroke: #cccccc; stroke-opacity: 0.3"/>
     </g>
     <g id="text_4">
      <!-- 60 -->
      <g style="fill: #262626" transform="translate(302.86712 257.076406) scale(0.11 -0.11)">
       <defs>
        <path id="DejaVuSans-36" d="M 2113 2584 
Q 1688 2584 1439 2293 
Q 1191 2003 1191 1497 
Q 1191 994 1439 701 
Q 1688 409 2113 409 
Q 2538 409 2786 701 
Q 3034 994 3034 1497 
Q 3034 2003 2786 2293 
Q 2538 2584 2113 2584 
z
M 3366 4563 
L 3366 3988 
Q 3128 4100 2886 4159 
Q 2644 4219 2406 4219 
Q 1781 4219 1451 3797 
Q 1122 3375 1075 2522 
Q 1259 2794 1537 2939 
Q 1816 3084 2150 3084 
Q 2853 3084 3261 2657 
Q 3669 2231 3669 1497 
Q 3669 778 3244 343 
Q 2819 -91 2113 -91 
Q 1303 -91 875 529 
Q 447 1150 447 2328 
Q 447 3434 972 4092 
Q 1497 4750 2381 4750 
Q 2619 4750 2861 4703 
Q 3103 4656 3366 4563 
z
" transform="scale(0.015625)"/>
       </defs>
       <use xlink:href="#DejaVuSans-36"/>
       <use xlink:href="#DejaVuSans-30" x="63.623047"/>
      </g>
     </g>
    </g>
    <g id="xtick_5">
     <g id="line2d_5">
      <path d="M 387.003291 239.218125 
L 387.003291 22.318125 
" clip-path="url(#p089a2e5eaf)" style="fill: none; stroke-dasharray: 3.7,1.6; stroke-dashoffset: 0; stroke: #cccccc; stroke-opacity: 0.3"/>
     </g>
     <g id="text_5">
      <!-- 80 -->
      <g style="fill: #262626" transform="translate(380.004541 257.076406) scale(0.11 -0.11)">
       <defs>
        <path id="DejaVuSans-38" d="M 2034 2216 
Q 1584 2216 1326 1975 
Q 1069 1734 1069 1313 
Q 1069 891 1326 650 
Q 1584 409 2034 409 
Q 2484 409 2743 651 
Q 3003 894 3003 1313 
Q 3003 1734 2745 1975 
Q 2488 2216 2034 2216 
z
M 1403 2484 
Q 997 2584 770 2862 
Q 544 3141 544 3541 
Q 544 4100 942 4425 
Q 1341 4750 2034 4750 
Q 2731 4750 3128 4425 
Q 3525 4100 3525 3541 
Q 3525 3141 3298 2862 
Q 3072 2584 2669 2484 
Q 3125 2378 3379 2068 
Q 3634 1759 3634 1313 
Q 3634 634 3220 271 
Q 2806 -91 2034 -91 
Q 1263 -91 848 271 
Q 434 634 434 1313 
Q 434 1759 690 2068 
Q 947 2378 1403 2484 
z
M 1172 3481 
Q 1172 3119 1398 2916 
Q 1625 2713 2034 2713 
Q 2441 2713 2670 2916 
Q 2900 3119 2900 3481 
Q 2900 3844 2670 4047 
Q 2441 4250 2034 4250 
Q 1625 4250 1398 4047 
Q 1172 3844 1172 3481 
z
" transform="scale(0.015625)"/>
       </defs>
       <use xlink:href="#DejaVuSans-38"/>
       <use xlink:href="#DejaVuSans-30" x="63.623047"/>
      </g>
     </g>
    </g>
    <g id="text_6">
     <!-- Эпоха [-] -->
     <g style="fill: #262626" transform="translate(221.161563 270.9625) scale(0.1 -0.1)">
      <defs>
       <path id="DejaVuSans-42d" d="M 347 1019 
Q 1006 428 1806 428 
Q 2631 428 3003 872 
Q 3375 1316 3444 2063 
L 950 2063 
L 950 2594 
L 3444 2594 
Q 3375 3341 3003 3786 
Q 2631 4231 1806 4231 
Q 1006 4231 347 3641 
L 347 4306 
Q 997 4750 1844 4750 
Q 2891 4750 3500 4101 
Q 4109 3453 4109 2331 
Q 4109 1206 3500 557 
Q 2891 -91 1844 -91 
Q 1009 -91 347 359 
L 347 1019 
z
" transform="scale(0.015625)"/>
       <path id="DejaVuSans-43f" d="M 3603 3500 
L 3603 0 
L 3025 0 
L 3025 3041 
L 1159 3041 
L 1159 0 
L 581 0 
L 581 3500 
L 3603 3500 
z
" transform="scale(0.015625)"/>
       <path id="DejaVuSans-43e" d="M 1959 3097 
Q 1497 3097 1228 2736 
Q 959 2375 959 1747 
Q 959 1119 1226 758 
Q 1494 397 1959 397 
Q 2419 397 2687 759 
Q 2956 1122 2956 1747 
Q 2956 2369 2687 2733 
Q 2419 3097 1959 3097 
z
M 1959 3584 
Q 2709 3584 3137 3096 
Q 3566 2609 3566 1747 
Q 3566 888 3137 398 
Q 2709 -91 1959 -91 
Q 1206 -91 779 398 
Q 353 888 353 1747 
Q 353 2609 779 3096 
Q 1206 3584 1959 3584 
z
" transform="scale(0.015625)"/>
       <path id="DejaVuSans-445" d="M 3513 3500 
L 2247 1797 
L 3578 0 
L 2900 0 
L 1881 1375 
L 863 0 
L 184 0 
L 1544 1831 
L 300 3500 
L 978 3500 
L 1906 2253 
L 2834 3500 
L 3513 3500 
z
" transform="scale(0.015625)"/>
       <path id="DejaVuSans-430" d="M 2194 1759 
Q 1497 1759 1228 1600 
Q 959 1441 959 1056 
Q 959 750 1161 570 
Q 1363 391 1709 391 
Q 2188 391 2477 730 
Q 2766 1069 2766 1631 
L 2766 1759 
L 2194 1759 
z
M 3341 1997 
L 3341 0 
L 2766 0 
L 2766 531 
Q 2569 213 2275 61 
Q 1981 -91 1556 -91 
Q 1019 -91 701 211 
Q 384 513 384 1019 
Q 384 1609 779 1909 
Q 1175 2209 1959 2209 
L 2766 2209 
L 2766 2266 
Q 2766 2663 2505 2880 
Q 2244 3097 1772 3097 
Q 1472 3097 1187 3025 
Q 903 2953 641 2809 
L 641 3341 
Q 956 3463 1253 3523 
Q 1550 3584 1831 3584 
Q 2591 3584 2966 3190 
Q 3341 2797 3341 1997 
z
" transform="scale(0.015625)"/>
       <path id="DejaVuSans-20" transform="scale(0.015625)"/>
       <path id="DejaVuSans-5b" d="M 550 4863 
L 1875 4863 
L 1875 4416 
L 1125 4416 
L 1125 -397 
L 1875 -397 
L 1875 -844 
L 550 -844 
L 550 4863 
z
" transform="scale(0.015625)"/>
       <path id="DejaVuSans-2d" d="M 313 2009 
L 1997 2009 
L 1997 1497 
L 313 1497 
L 313 2009 
z
" transform="scale(0.015625)"/>
       <path id="DejaVuSans-5d" d="M 1947 4863 
L 1947 -844 
L 622 -844 
L 622 -397 
L 1369 -397 
L 1369 4416 
L 622 4416 
L 622 4863 
L 1947 4863 
z
" transform="scale(0.015625)"/>
      </defs>
      <use xlink:href="#DejaVuSans-42d"/>
      <use xlink:href="#DejaVuSans-43f" x="69.824219"/>
      <use xlink:href="#DejaVuSans-43e" x="135.205078"/>
      <use xlink:href="#DejaVuSans-445" x="196.386719"/>
      <use xlink:href="#DejaVuSans-430" x="255.566406"/>
      <use xlink:href="#DejaVuSans-20" x="316.845703"/>
      <use xlink:href="#DejaVuSans-5b" x="348.632812"/>
      <use xlink:href="#DejaVuSans-2d" x="387.646484"/>
      <use xlink:href="#DejaVuSans-5d" x="423.730469"/>
     </g>
    </g>
   </g>
   <g id="matplotlib.axis_2">
    <g id="ytick_1">
     <g id="line2d_6">
      <path d="M 61.869063 237.098477 
L 426.729063 237.098477 
" clip-path="url(#p089a2e5eaf)" style="fill: none; stroke-dasharray: 3.7,1.6; stroke-dashoffset: 0; stroke: #cccccc; stroke-opacity: 0.3"/>
     </g>
     <g id="text_7">
      <!-- 0.000 -->
      <g style="fill: #262626" transform="translate(20.878125 241.277617) scale(0.11 -0.11)">
       <defs>
        <path id="DejaVuSans-2e" d="M 684 794 
L 1344 794 
L 1344 0 
L 684 0 
L 684 794 
z
" transform="scale(0.015625)"/>
       </defs>
       <use xlink:href="#DejaVuSans-30"/>
       <use xlink:href="#DejaVuSans-2e" x="63.623047"/>
       <use xlink:href="#DejaVuSans-30" x="95.410156"/>
       <use xlink:href="#DejaVuSans-30" x="159.033203"/>
       <use xlink:href="#DejaVuSans-30" x="222.65625"/>
      </g>
     </g>
    </g>
    <g id="ytick_2">
     <g id="line2d_7">
      <path d="M 61.869063 208.294956 
L 426.729063 208.294956 
" clip-path="url(#p089a2e5eaf)" style="fill: none; stroke-dasharray: 3.7,1.6; stroke-dashoffset: 0; stroke: #cccccc; stroke-opacity: 0.3"/>
     </g>
     <g id="text_8">
      <!-- 0.001 -->
      <g style="fill: #262626" transform="translate(20.878125 212.474097) scale(0.11 -0.11)">
       <defs>
        <path id="DejaVuSans-31" d="M 794 531 
L 1825 531 
L 1825 4091 
L 703 3866 
L 703 4441 
L 1819 4666 
L 2450 4666 
L 2450 531 
L 3481 531 
L 3481 0 
L 794 0 
L 794 531 
z
" transform="scale(0.015625)"/>
       </defs>
       <use xlink:href="#DejaVuSans-30"/>
       <use xlink:href="#DejaVuSans-2e" x="63.623047"/>
       <use xlink:href="#DejaVuSans-30" x="95.410156"/>
       <use xlink:href="#DejaVuSans-30" x="159.033203"/>
       <use xlink:href="#DejaVuSans-31" x="222.65625"/>
      </g>
     </g>
    </g>
    <g id="ytick_3">
     <g id="line2d_8">
      <path d="M 61.869063 179.491435 
L 426.729063 179.491435 
" clip-path="url(#p089a2e5eaf)" style="fill: none; stroke-dasharray: 3.7,1.6; stroke-dashoffset: 0; stroke: #cccccc; stroke-opacity: 0.3"/>
     </g>
     <g id="text_9">
      <!-- 0.002 -->
      <g style="fill: #262626" transform="translate(20.878125 183.670576) scale(0.11 -0.11)">
       <use xlink:href="#DejaVuSans-30"/>
       <use xlink:href="#DejaVuSans-2e" x="63.623047"/>
       <use xlink:href="#DejaVuSans-30" x="95.410156"/>
       <use xlink:href="#DejaVuSans-30" x="159.033203"/>
       <use xlink:href="#DejaVuSans-32" x="222.65625"/>
      </g>
     </g>
    </g>
    <g id="ytick_4">
     <g id="line2d_9">
      <path d="M 61.869063 150.687915 
L 426.729063 150.687915 
" clip-path="url(#p089a2e5eaf)" style="fill: none; stroke-dasharray: 3.7,1.6; stroke-dashoffset: 0; stroke: #cccccc; stroke-opacity: 0.3"/>
     </g>
     <g id="text_10">
      <!-- 0.003 -->
      <g style="fill: #262626" transform="translate(20.878125 154.867055) scale(0.11 -0.11)">
       <defs>
        <path id="DejaVuSans-33" d="M 2597 2516 
Q 3050 2419 3304 2112 
Q 3559 1806 3559 1356 
Q 3559 666 3084 287 
Q 2609 -91 1734 -91 
Q 1441 -91 1130 -33 
Q 819 25 488 141 
L 488 750 
Q 750 597 1062 519 
Q 1375 441 1716 441 
Q 2309 441 2620 675 
Q 2931 909 2931 1356 
Q 2931 1769 2642 2001 
Q 2353 2234 1838 2234 
L 1294 2234 
L 1294 2753 
L 1863 2753 
Q 2328 2753 2575 2939 
Q 2822 3125 2822 3475 
Q 2822 3834 2567 4026 
Q 2313 4219 1838 4219 
Q 1578 4219 1281 4162 
Q 984 4106 628 3988 
L 628 4550 
Q 988 4650 1302 4700 
Q 1616 4750 1894 4750 
Q 2613 4750 3031 4423 
Q 3450 4097 3450 3541 
Q 3450 3153 3228 2886 
Q 3006 2619 2597 2516 
z
" transform="scale(0.015625)"/>
       </defs>
       <use xlink:href="#DejaVuSans-30"/>
       <use xlink:href="#DejaVuSans-2e" x="63.623047"/>
       <use xlink:href="#DejaVuSans-30" x="95.410156"/>
       <use xlink:href="#DejaVuSans-30" x="159.033203"/>
       <use xlink:href="#DejaVuSans-33" x="222.65625"/>
      </g>
     </g>
    </g>
    <g id="ytick_5">
     <g id="line2d_10">
      <path d="M 61.869063 121.884394 
L 426.729063 121.884394 
" clip-path="url(#p089a2e5eaf)" style="fill: none; stroke-dasharray: 3.7,1.6; stroke-dashoffset: 0; stroke: #cccccc; stroke-opacity: 0.3"/>
     </g>
     <g id="text_11">
      <!-- 0.004 -->
      <g style="fill: #262626" transform="translate(20.878125 126.063535) scale(0.11 -0.11)">
       <use xlink:href="#DejaVuSans-30"/>
       <use xlink:href="#DejaVuSans-2e" x="63.623047"/>
       <use xlink:href="#DejaVuSans-30" x="95.410156"/>
       <use xlink:href="#DejaVuSans-30" x="159.033203"/>
       <use xlink:href="#DejaVuSans-34" x="222.65625"/>
      </g>
     </g>
    </g>
    <g id="ytick_6">
     <g id="line2d_11">
      <path d="M 61.869063 93.080873 
L 426.729063 93.080873 
" clip-path="url(#p089a2e5eaf)" style="fill: none; stroke-dasharray: 3.7,1.6; stroke-dashoffset: 0; stroke: #cccccc; stroke-opacity: 0.3"/>
     </g>
     <g id="text_12">
      <!-- 0.005 -->
      <g style="fill: #262626" transform="translate(20.878125 97.260014) scale(0.11 -0.11)">
       <defs>
        <path id="DejaVuSans-35" d="M 691 4666 
L 3169 4666 
L 3169 4134 
L 1269 4134 
L 1269 2991 
Q 1406 3038 1543 3061 
Q 1681 3084 1819 3084 
Q 2600 3084 3056 2656 
Q 3513 2228 3513 1497 
Q 3513 744 3044 326 
Q 2575 -91 1722 -91 
Q 1428 -91 1123 -41 
Q 819 9 494 109 
L 494 744 
Q 775 591 1075 516 
Q 1375 441 1709 441 
Q 2250 441 2565 725 
Q 2881 1009 2881 1497 
Q 2881 1984 2565 2268 
Q 2250 2553 1709 2553 
Q 1456 2553 1204 2497 
Q 953 2441 691 2322 
L 691 4666 
z
" transform="scale(0.015625)"/>
       </defs>
       <use xlink:href="#DejaVuSans-30"/>
       <use xlink:href="#DejaVuSans-2e" x="63.623047"/>
       <use xlink:href="#DejaVuSans-30" x="95.410156"/>
       <use xlink:href="#DejaVuSans-30" x="159.033203"/>
       <use xlink:href="#DejaVuSans-35" x="222.65625"/>
      </g>
     </g>
    </g>
    <g id="ytick_7">
     <g id="line2d_12">
      <path d="M 61.869063 64.277353 
L 426.729063 64.277353 
" clip-path="url(#p089a2e5eaf)" style="fill: none; stroke-dasharray: 3.7,1.6; stroke-dashoffset: 0; stroke: #cccccc; stroke-opacity: 0.3"/>
     </g>
     <g id="text_13">
      <!-- 0.006 -->
      <g style="fill: #262626" transform="translate(20.878125 68.456493) scale(0.11 -0.11)">
       <use xlink:href="#DejaVuSans-30"/>
       <use xlink:href="#DejaVuSans-2e" x="63.623047"/>
       <use xlink:href="#DejaVuSans-30" x="95.410156"/>
       <use xlink:href="#DejaVuSans-30" x="159.033203"/>
       <use xlink:href="#DejaVuSans-36" x="222.65625"/>
      </g>
     </g>
    </g>
    <g id="ytick_8">
     <g id="line2d_13">
      <path d="M 61.869063 35.473832 
L 426.729063 35.473832 
" clip-path="url(#p089a2e5eaf)" style="fill: none; stroke-dasharray: 3.7,1.6; stroke-dashoffset: 0; stroke: #cccccc; stroke-opacity: 0.3"/>
     </g>
     <g id="text_14">
      <!-- 0.007 -->
      <g style="fill: #262626" transform="translate(20.878125 39.652973) scale(0.11 -0.11)">
       <defs>
        <path id="DejaVuSans-37" d="M 525 4666 
L 3525 4666 
L 3525 4397 
L 1831 0 
L 1172 0 
L 2766 4134 
L 525 4134 
L 525 4666 
z
" transform="scale(0.015625)"/>
       </defs>
       <use xlink:href="#DejaVuSans-30"/>
       <use xlink:href="#DejaVuSans-2e" x="63.623047"/>
       <use xlink:href="#DejaVuSans-30" x="95.410156"/>
       <use xlink:href="#DejaVuSans-30" x="159.033203"/>
       <use xlink:href="#DejaVuSans-37" x="222.65625"/>
      </g>
     </g>
    </g>
    <g id="text_15">
     <!-- LOSS [кВт·ч] -->
     <g style="fill: #262626" transform="translate(14.798438 163.054062) rotate(-90) scale(0.1 -0.1)">
      <defs>
       <path id="DejaVuSans-4c" d="M 628 4666 
L 1259 4666 
L 1259 531 
L 3531 531 
L 3531 0 
L 628 0 
L 628 4666 
z
" transform="scale(0.015625)"/>
       <path id="DejaVuSans-4f" d="M 2522 4238 
Q 1834 4238 1429 3725 
Q 1025 3213 1025 2328 
Q 1025 1447 1429 934 
Q 1834 422 2522 422 
Q 3209 422 3611 934 
Q 4013 1447 4013 2328 
Q 4013 3213 3611 3725 
Q 3209 4238 2522 4238 
z
M 2522 4750 
Q 3503 4750 4090 4092 
Q 4678 3434 4678 2328 
Q 4678 1225 4090 567 
Q 3503 -91 2522 -91 
Q 1538 -91 948 565 
Q 359 1222 359 2328 
Q 359 3434 948 4092 
Q 1538 4750 2522 4750 
z
" transform="scale(0.015625)"/>
       <path id="DejaVuSans-53" d="M 3425 4513 
L 3425 3897 
Q 3066 4069 2747 4153 
Q 2428 4238 2131 4238 
Q 1616 4238 1336 4038 
Q 1056 3838 1056 3469 
Q 1056 3159 1242 3001 
Q 1428 2844 1947 2747 
L 2328 2669 
Q 3034 2534 3370 2195 
Q 3706 1856 3706 1288 
Q 3706 609 3251 259 
Q 2797 -91 1919 -91 
Q 1588 -91 1214 -16 
Q 841 59 441 206 
L 441 856 
Q 825 641 1194 531 
Q 1563 422 1919 422 
Q 2459 422 2753 634 
Q 3047 847 3047 1241 
Q 3047 1584 2836 1778 
Q 2625 1972 2144 2069 
L 1759 2144 
Q 1053 2284 737 2584 
Q 422 2884 422 3419 
Q 422 4038 858 4394 
Q 1294 4750 2059 4750 
Q 2388 4750 2728 4690 
Q 3069 4631 3425 4513 
z
" transform="scale(0.015625)"/>
       <path id="DejaVuSans-43a" d="M 581 3500 
L 1153 3500 
L 1153 1856 
L 2775 3500 
L 3481 3500 
L 2144 2147 
L 3653 0 
L 3009 0 
L 1769 1766 
L 1153 1141 
L 1153 0 
L 581 0 
L 581 3500 
z
" transform="scale(0.015625)"/>
       <path id="DejaVuSans-412" d="M 1259 2228 
L 1259 519 
L 2272 519 
Q 2781 519 3026 730 
Q 3272 941 3272 1375 
Q 3272 1813 3026 2020 
Q 2781 2228 2272 2228 
L 1259 2228 
z
M 1259 4147 
L 1259 2741 
L 2194 2741 
Q 2656 2741 2882 2914 
Q 3109 3088 3109 3444 
Q 3109 3797 2882 3972 
Q 2656 4147 2194 4147 
L 1259 4147 
z
M 628 4666 
L 2241 4666 
Q 2963 4666 3353 4366 
Q 3744 4066 3744 3513 
Q 3744 3084 3544 2831 
Q 3344 2578 2956 2516 
Q 3422 2416 3680 2098 
Q 3938 1781 3938 1306 
Q 3938 681 3513 340 
Q 3088 0 2303 0 
L 628 0 
L 628 4666 
z
" transform="scale(0.015625)"/>
       <path id="DejaVuSans-442" d="M 188 3500 
L 3541 3500 
L 3541 3041 
L 2147 3041 
L 2147 0 
L 1581 0 
L 1581 3041 
L 188 3041 
L 188 3500 
z
" transform="scale(0.015625)"/>
       <path id="DejaVuSans-b7" d="M 684 2619 
L 1344 2619 
L 1344 1825 
L 684 1825 
L 684 2619 
z
" transform="scale(0.015625)"/>
       <path id="DejaVuSans-447" d="M 2625 0 
L 2625 1472 
L 1553 1472 
Q 1075 1472 756 1769 
Q 469 2038 469 2613 
L 469 3500 
L 1044 3500 
L 1044 2666 
Q 1044 2300 1206 2116 
Q 1372 1931 1697 1931 
L 2625 1931 
L 2625 3500 
L 3200 3500 
L 3200 0 
L 2625 0 
z
" transform="scale(0.015625)"/>
      </defs>
      <use xlink:href="#DejaVuSans-4c"/>
      <use xlink:href="#DejaVuSans-4f" x="52.087891"/>
      <use xlink:href="#DejaVuSans-53" x="130.798828"/>
      <use xlink:href="#DejaVuSans-53" x="194.275391"/>
      <use xlink:href="#DejaVuSans-20" x="257.751953"/>
      <use xlink:href="#DejaVuSans-5b" x="289.539062"/>
      <use xlink:href="#DejaVuSans-43a" x="328.552734"/>
      <use xlink:href="#DejaVuSans-412" x="388.953125"/>
      <use xlink:href="#DejaVuSans-442" x="457.556641"/>
      <use xlink:href="#DejaVuSans-b7" x="515.808594"/>
      <use xlink:href="#DejaVuSans-447" x="547.595703"/>
      <use xlink:href="#DejaVuSans-5d" x="606.677734"/>
     </g>
    </g>
   </g>
   <g id="line2d_14">
    <path d="M 78.453608 32.177216 
L 82.310479 137.51533 
L 86.16735 168.709505 
L 90.024221 184.755117 
L 93.881092 193.870873 
L 97.737963 198.293669 
L 101.594834 201.11494 
L 105.451705 203.583182 
L 109.308576 205.355072 
L 113.165447 206.950856 
L 117.022318 208.257369 
L 120.879189 209.414818 
L 124.73606 210.430747 
L 128.592931 211.292517 
L 132.449802 212.152914 
L 136.306673 212.954305 
L 140.163545 213.639262 
L 144.020416 214.26036 
L 147.877287 214.920185 
L 151.734158 215.448099 
L 155.591029 216.006272 
L 159.4479 216.549422 
L 163.304771 216.968317 
L 167.161642 217.399082 
L 171.018513 217.773742 
L 174.875384 218.181381 
L 178.732255 218.497722 
L 182.589126 218.876642 
L 186.445997 219.156245 
L 190.302868 219.496167 
L 194.159739 219.769811 
L 198.01661 220.091885 
L 201.873481 220.339772 
L 205.730352 220.581916 
L 209.587223 220.888181 
L 213.444094 221.136443 
L 217.300965 221.39815 
L 221.157836 221.606727 
L 225.014707 221.823218 
L 228.871578 222.05057 
L 232.728449 222.296699 
L 236.58532 222.519494 
L 240.442191 222.714766 
L 244.299063 222.942077 
L 248.155934 223.136943 
L 252.012805 223.309599 
L 255.869676 223.536369 
L 259.726547 223.719215 
L 263.583418 223.910974 
L 267.440289 224.09298 
L 271.29716 224.271862 
L 275.154031 224.380782 
L 279.010902 224.629904 
L 282.867773 224.76564 
L 286.724644 224.918132 
L 290.581515 225.088709 
L 294.438386 225.24972 
L 298.295257 225.391847 
L 302.152128 225.54193 
L 306.008999 225.65545 
L 309.86587 225.836281 
L 313.722741 225.974452 
L 317.579612 226.128337 
L 321.436483 226.258791 
L 325.293354 226.610149 
L 329.150225 226.689921 
L 333.007096 226.781783 
L 336.863967 226.872565 
L 340.720838 226.91454 
L 344.577709 227.001812 
L 348.43458 227.057469 
L 352.291452 227.142576 
L 356.148323 227.16476 
L 360.005194 227.234114 
L 363.862065 227.291319 
L 367.718936 227.378282 
L 371.575807 227.552713 
L 375.432678 227.593538 
L 379.289549 227.634485 
L 383.14642 227.657853 
L 387.003291 227.705308 
L 390.860162 227.706421 
L 394.717033 227.742769 
L 398.573904 227.759478 
L 402.430775 227.791028 
L 406.287646 227.83303 
L 410.144517 227.855167 
" clip-path="url(#p089a2e5eaf)" style="fill: none; stroke: #0072b2; stroke-width: 1.8; stroke-linecap: round"/>
   </g>
   <g id="line2d_15">
    <path d="M 78.453608 177.092091 
L 82.310479 194.239373 
L 86.16735 208.318933 
L 90.024221 213.848076 
L 93.881092 213.945325 
L 97.737963 215.089189 
L 101.594834 219.205104 
L 105.451705 217.991802 
L 109.308576 220.156849 
L 113.165447 222.192724 
L 117.022318 221.367443 
L 120.879189 222.790747 
L 124.73606 223.349059 
L 128.592931 223.626257 
L 132.449802 224.971072 
L 136.306673 225.008221 
L 140.163545 225.503441 
L 144.020416 224.778614 
L 147.877287 225.473335 
L 151.734158 226.782201 
L 155.591029 226.337505 
L 159.4479 225.998494 
L 163.304771 226.461932 
L 167.161642 226.922097 
L 171.018513 227.292616 
L 174.875384 226.791108 
L 178.732255 227.404392 
L 182.589126 227.213857 
L 186.445997 227.483964 
L 190.302868 227.579302 
L 194.159739 227.80795 
L 198.01661 227.68535 
L 201.873481 227.262655 
L 205.730352 227.93716 
L 209.587223 228.215347 
L 213.444094 228.257878 
L 217.300965 228.426988 
L 221.157836 228.465961 
L 225.014707 228.471823 
L 228.871578 228.493427 
L 232.728449 228.781118 
L 236.58532 228.715885 
L 240.442191 228.482467 
L 244.299063 228.158658 
L 248.155934 228.918724 
L 252.012805 228.922672 
L 255.869676 228.811308 
L 259.726547 228.831932 
L 263.583418 228.953809 
L 267.440289 229.223022 
L 271.29716 228.739935 
L 275.154031 229.359034 
L 279.010902 229.055147 
L 282.867773 229.305604 
L 286.724644 229.341126 
L 290.581515 229.200229 
L 294.438386 229.177037 
L 298.295257 229.234592 
L 302.152128 229.022541 
L 306.008999 228.895571 
L 309.86587 229.056332 
L 313.722741 229.034364 
L 317.579612 229.197896 
L 321.436483 229.071107 
L 325.293354 229.334165 
L 329.150225 229.136774 
L 333.007096 229.177929 
L 336.863967 229.280041 
L 340.720838 229.216626 
L 344.577709 229.186244 
L 348.43458 229.229206 
L 352.291452 229.094637 
L 356.148323 229.163127 
L 360.005194 229.148565 
L 363.862065 229.073538 
L 367.718936 228.845165 
L 371.575807 229.214931 
L 375.432678 229.219689 
L 379.289549 229.245311 
L 383.14642 229.189547 
L 387.003291 229.186462 
L 390.860162 229.153441 
L 394.717033 229.07515 
L 398.573904 229.224233 
L 402.430775 229.154543 
L 406.287646 229.113325 
L 410.144517 229.232756 
" clip-path="url(#p089a2e5eaf)" style="fill: none; stroke: #009e73; stroke-width: 1.8; stroke-linecap: round"/>
   </g>
   <g id="patch_3">
    <path d="M 61.869063 239.218125 
L 61.869063 22.318125 
" style="fill: none; stroke: #cccccc; stroke-width: 1.25; stroke-linejoin: miter; stroke-linecap: square"/>
   </g>
   <g id="patch_4">
    <path d="M 61.869063 239.218125 
L 426.729063 239.218125 
" style="fill: none; stroke: #cccccc; stroke-width: 1.25; stroke-linejoin: miter; stroke-linecap: square"/>
   </g>
   <g id="text_16">
    <!-- VanillaTransformer — LOSS [кВт·ч] -->
    <g style="fill: #262626" transform="translate(126.840625 16.318125) scale(0.12 -0.12)">
     <defs>
      <path id="DejaVuSans-Bold-56" d="M 31 4666 
L 1241 4666 
L 2478 1222 
L 3713 4666 
L 4922 4666 
L 3194 0 
L 1759 0 
L 31 4666 
z
" transform="scale(0.015625)"/>
      <path id="DejaVuSans-Bold-61" d="M 2106 1575 
Q 1756 1575 1579 1456 
Q 1403 1338 1403 1106 
Q 1403 894 1545 773 
Q 1688 653 1941 653 
Q 2256 653 2472 879 
Q 2688 1106 2688 1447 
L 2688 1575 
L 2106 1575 
z
M 3816 1997 
L 3816 0 
L 2688 0 
L 2688 519 
Q 2463 200 2181 54 
Q 1900 -91 1497 -91 
Q 953 -91 614 226 
Q 275 544 275 1050 
Q 275 1666 698 1953 
Q 1122 2241 2028 2241 
L 2688 2241 
L 2688 2328 
Q 2688 2594 2478 2717 
Q 2269 2841 1825 2841 
Q 1466 2841 1156 2769 
Q 847 2697 581 2553 
L 581 3406 
Q 941 3494 1303 3539 
Q 1666 3584 2028 3584 
Q 2975 3584 3395 3211 
Q 3816 2838 3816 1997 
z
" transform="scale(0.015625)"/>
      <path id="DejaVuSans-Bold-6e" d="M 4056 2131 
L 4056 0 
L 2931 0 
L 2931 347 
L 2931 1631 
Q 2931 2084 2911 2256 
Q 2891 2428 2841 2509 
Q 2775 2619 2662 2680 
Q 2550 2741 2406 2741 
Q 2056 2741 1856 2470 
Q 1656 2200 1656 1722 
L 1656 0 
L 538 0 
L 538 3500 
L 1656 3500 
L 1656 2988 
Q 1909 3294 2193 3439 
Q 2478 3584 2822 3584 
Q 3428 3584 3742 3212 
Q 4056 2841 4056 2131 
z
" transform="scale(0.015625)"/>
      <path id="DejaVuSans-Bold-69" d="M 538 3500 
L 1656 3500 
L 1656 0 
L 538 0 
L 538 3500 
z
M 538 4863 
L 1656 4863 
L 1656 3950 
L 538 3950 
L 538 4863 
z
" transform="scale(0.015625)"/>
      <path id="DejaVuSans-Bold-6c" d="M 538 4863 
L 1656 4863 
L 1656 0 
L 538 0 
L 538 4863 
z
" transform="scale(0.015625)"/>
      <path id="DejaVuSans-Bold-54" d="M 31 4666 
L 4331 4666 
L 4331 3756 
L 2784 3756 
L 2784 0 
L 1581 0 
L 1581 3756 
L 31 3756 
L 31 4666 
z
" transform="scale(0.015625)"/>
      <path id="DejaVuSans-Bold-72" d="M 3138 2547 
Q 2991 2616 2845 2648 
Q 2700 2681 2553 2681 
Q 2122 2681 1889 2404 
Q 1656 2128 1656 1613 
L 1656 0 
L 538 0 
L 538 3500 
L 1656 3500 
L 1656 2925 
Q 1872 3269 2151 3426 
Q 2431 3584 2822 3584 
Q 2878 3584 2943 3579 
Q 3009 3575 3134 3559 
L 3138 2547 
z
" transform="scale(0.015625)"/>
      <path id="DejaVuSans-Bold-73" d="M 3272 3391 
L 3272 2541 
Q 2913 2691 2578 2766 
Q 2244 2841 1947 2841 
Q 1628 2841 1473 2761 
Q 1319 2681 1319 2516 
Q 1319 2381 1436 2309 
Q 1553 2238 1856 2203 
L 2053 2175 
Q 2913 2066 3209 1816 
Q 3506 1566 3506 1031 
Q 3506 472 3093 190 
Q 2681 -91 1863 -91 
Q 1516 -91 1145 -36 
Q 775 19 384 128 
L 384 978 
Q 719 816 1070 734 
Q 1422 653 1784 653 
Q 2113 653 2278 743 
Q 2444 834 2444 1013 
Q 2444 1163 2330 1236 
Q 2216 1309 1875 1350 
L 1678 1375 
Q 931 1469 631 1722 
Q 331 1975 331 2491 
Q 331 3047 712 3315 
Q 1094 3584 1881 3584 
Q 2191 3584 2531 3537 
Q 2872 3491 3272 3391 
z
" transform="scale(0.015625)"/>
      <path id="DejaVuSans-Bold-66" d="M 2841 4863 
L 2841 4128 
L 2222 4128 
Q 1984 4128 1890 4042 
Q 1797 3956 1797 3744 
L 1797 3500 
L 2753 3500 
L 2753 2700 
L 1797 2700 
L 1797 0 
L 678 0 
L 678 2700 
L 122 2700 
L 122 3500 
L 678 3500 
L 678 3744 
Q 678 4316 997 4589 
Q 1316 4863 1984 4863 
L 2841 4863 
z
" transform="scale(0.015625)"/>
      <path id="DejaVuSans-Bold-6f" d="M 2203 2784 
Q 1831 2784 1636 2517 
Q 1441 2250 1441 1747 
Q 1441 1244 1636 976 
Q 1831 709 2203 709 
Q 2569 709 2762 976 
Q 2956 1244 2956 1747 
Q 2956 2250 2762 2517 
Q 2569 2784 2203 2784 
z
M 2203 3584 
Q 3106 3584 3614 3096 
Q 4122 2609 4122 1747 
Q 4122 884 3614 396 
Q 3106 -91 2203 -91 
Q 1297 -91 786 396 
Q 275 884 275 1747 
Q 275 2609 786 3096 
Q 1297 3584 2203 3584 
z
" transform="scale(0.015625)"/>
      <path id="DejaVuSans-Bold-6d" d="M 3781 2919 
Q 3994 3244 4286 3414 
Q 4578 3584 4928 3584 
Q 5531 3584 5847 3212 
Q 6163 2841 6163 2131 
L 6163 0 
L 5038 0 
L 5038 1825 
Q 5041 1866 5042 1909 
Q 5044 1953 5044 2034 
Q 5044 2406 4934 2573 
Q 4825 2741 4581 2741 
Q 4263 2741 4089 2478 
Q 3916 2216 3909 1719 
L 3909 0 
L 2784 0 
L 2784 1825 
Q 2784 2406 2684 2573 
Q 2584 2741 2328 2741 
Q 2006 2741 1831 2477 
Q 1656 2213 1656 1722 
L 1656 0 
L 531 0 
L 531 3500 
L 1656 3500 
L 1656 2988 
Q 1863 3284 2130 3434 
Q 2397 3584 2719 3584 
Q 3081 3584 3359 3409 
Q 3638 3234 3781 2919 
z
" transform="scale(0.015625)"/>
      <path id="DejaVuSans-Bold-65" d="M 4031 1759 
L 4031 1441 
L 1416 1441 
Q 1456 1047 1700 850 
Q 1944 653 2381 653 
Q 2734 653 3104 758 
Q 3475 863 3866 1075 
L 3866 213 
Q 3469 63 3072 -14 
Q 2675 -91 2278 -91 
Q 1328 -91 801 392 
Q 275 875 275 1747 
Q 275 2603 792 3093 
Q 1309 3584 2216 3584 
Q 3041 3584 3536 3087 
Q 4031 2591 4031 1759 
z
M 2881 2131 
Q 2881 2450 2695 2645 
Q 2509 2841 2209 2841 
Q 1884 2841 1681 2658 
Q 1478 2475 1428 2131 
L 2881 2131 
z
" transform="scale(0.015625)"/>
      <path id="DejaVuSans-Bold-20" transform="scale(0.015625)"/>
      <path id="DejaVuSans-Bold-2014" d="M 344 2156 
L 6056 2156 
L 6056 1350 
L 344 1350 
L 344 2156 
z
" transform="scale(0.015625)"/>
      <path id="DejaVuSans-Bold-4c" d="M 588 4666 
L 1791 4666 
L 1791 909 
L 3903 909 
L 3903 0 
L 588 0 
L 588 4666 
z
" transform="scale(0.015625)"/>
      <path id="DejaVuSans-Bold-4f" d="M 2719 3878 
Q 2169 3878 1866 3472 
Q 1563 3066 1563 2328 
Q 1563 1594 1866 1187 
Q 2169 781 2719 781 
Q 3272 781 3575 1187 
Q 3878 1594 3878 2328 
Q 3878 3066 3575 3472 
Q 3272 3878 2719 3878 
z
M 2719 4750 
Q 3844 4750 4481 4106 
Q 5119 3463 5119 2328 
Q 5119 1197 4481 553 
Q 3844 -91 2719 -91 
Q 1597 -91 958 553 
Q 319 1197 319 2328 
Q 319 3463 958 4106 
Q 1597 4750 2719 4750 
z
" transform="scale(0.015625)"/>
      <path id="DejaVuSans-Bold-53" d="M 3834 4519 
L 3834 3531 
Q 3450 3703 3084 3790 
Q 2719 3878 2394 3878 
Q 1963 3878 1756 3759 
Q 1550 3641 1550 3391 
Q 1550 3203 1689 3098 
Q 1828 2994 2194 2919 
L 2706 2816 
Q 3484 2659 3812 2340 
Q 4141 2022 4141 1434 
Q 4141 663 3683 286 
Q 3225 -91 2284 -91 
Q 1841 -91 1394 -6 
Q 947 78 500 244 
L 500 1259 
Q 947 1022 1364 901 
Q 1781 781 2169 781 
Q 2563 781 2772 912 
Q 2981 1044 2981 1288 
Q 2981 1506 2839 1625 
Q 2697 1744 2272 1838 
L 1806 1941 
Q 1106 2091 782 2419 
Q 459 2747 459 3303 
Q 459 4000 909 4375 
Q 1359 4750 2203 4750 
Q 2588 4750 2994 4692 
Q 3400 4634 3834 4519 
z
" transform="scale(0.015625)"/>
      <path id="DejaVuSans-Bold-5b" d="M 550 4863 
L 2491 4863 
L 2491 4159 
L 1613 4159 
L 1613 -141 
L 2491 -141 
L 2491 -844 
L 550 -844 
L 550 4863 
z
" transform="scale(0.015625)"/>
      <path id="DejaVuSans-Bold-43a" d="M 538 3500 
L 1656 3500 
L 1656 2316 
L 2903 3500 
L 4128 3500 
L 2634 2078 
L 4250 0 
L 3094 0 
L 1972 1447 
L 1656 1147 
L 1656 0 
L 538 0 
L 538 3500 
z
" transform="scale(0.015625)"/>
      <path id="DejaVuSans-Bold-412" d="M 2456 2859 
Q 2741 2859 2887 2984 
Q 3034 3109 3034 3353 
Q 3034 3594 2887 3720 
Q 2741 3847 2456 3847 
L 1791 3847 
L 1791 2859 
L 2456 2859 
z
M 2497 819 
Q 2859 819 3042 972 
Q 3225 1125 3225 1434 
Q 3225 1738 3044 1889 
Q 2863 2041 2497 2041 
L 1791 2041 
L 1791 819 
L 2497 819 
z
M 3616 2497 
Q 4003 2384 4215 2081 
Q 4428 1778 4428 1338 
Q 4428 663 3972 331 
Q 3516 0 2584 0 
L 588 0 
L 588 4666 
L 2394 4666 
Q 3366 4666 3802 4372 
Q 4238 4078 4238 3431 
Q 4238 3091 4078 2852 
Q 3919 2613 3616 2497 
z
" transform="scale(0.015625)"/>
      <path id="DejaVuSans-Bold-442" d="M 25 3500 
L 3681 3500 
L 3681 2809 
L 2413 2809 
L 2413 0 
L 1297 0 
L 1297 2809 
L 25 2809 
L 25 3500 
z
" transform="scale(0.015625)"/>
      <path id="DejaVuSans-Bold-b7" d="M 653 2828 
L 1778 2828 
L 1778 1619 
L 653 1619 
L 653 2828 
z
" transform="scale(0.015625)"/>
      <path id="DejaVuSans-Bold-447" d="M 2550 0 
L 2550 1353 
L 1400 1353 
Q 931 1353 672 1629 
Q 413 1906 413 2450 
L 413 3500 
L 1531 3500 
L 1531 2878 
Q 1531 2322 1622 2183 
Q 1713 2044 1950 2044 
L 2550 2044 
L 2550 3500 
L 3669 3500 
L 3669 0 
L 2550 0 
z
" transform="scale(0.015625)"/>
      <path id="DejaVuSans-Bold-5d" d="M 2375 -844 
L 434 -844 
L 434 -141 
L 1313 -141 
L 1313 4159 
L 434 4159 
L 434 4863 
L 2375 4863 
L 2375 -844 
z
" transform="scale(0.015625)"/>
     </defs>
     <use xlink:href="#DejaVuSans-Bold-56"/>
     <use xlink:href="#DejaVuSans-Bold-61" x="71.892578"/>
     <use xlink:href="#DejaVuSans-Bold-6e" x="139.373047"/>
     <use xlink:href="#DejaVuSans-Bold-69" x="210.564453"/>
     <use xlink:href="#DejaVuSans-Bold-6c" x="244.841797"/>
     <use xlink:href="#DejaVuSans-Bold-6c" x="279.119141"/>
     <use xlink:href="#DejaVuSans-Bold-61" x="313.396484"/>
     <use xlink:href="#DejaVuSans-Bold-54" x="380.876953"/>
     <use xlink:href="#DejaVuSans-Bold-72" x="438.089844"/>
     <use xlink:href="#DejaVuSans-Bold-61" x="487.40625"/>
     <use xlink:href="#DejaVuSans-Bold-6e" x="554.886719"/>
     <use xlink:href="#DejaVuSans-Bold-73" x="626.078125"/>
     <use xlink:href="#DejaVuSans-Bold-66" x="685.599609"/>
     <use xlink:href="#DejaVuSans-Bold-6f" x="729.105469"/>
     <use xlink:href="#DejaVuSans-Bold-72" x="797.806641"/>
     <use xlink:href="#DejaVuSans-Bold-6d" x="847.123047"/>
     <use xlink:href="#DejaVuSans-Bold-65" x="951.322266"/>
     <use xlink:href="#DejaVuSans-Bold-72" x="1019.144531"/>
     <use xlink:href="#DejaVuSans-Bold-20" x="1068.460938"/>
     <use xlink:href="#DejaVuSans-Bold-2014" x="1103.275391"/>
     <use xlink:href="#DejaVuSans-Bold-20" x="1203.275391"/>
     <use xlink:href="#DejaVuSans-Bold-4c" x="1238.089844"/>
     <use xlink:href="#DejaVuSans-Bold-4f" x="1298.185547"/>
     <use xlink:href="#DejaVuSans-Bold-53" x="1383.195312"/>
     <use xlink:href="#DejaVuSans-Bold-53" x="1450.716797"/>
     <use xlink:href="#DejaVuSans-Bold-20" x="1522.738281"/>
     <use xlink:href="#DejaVuSans-Bold-5b" x="1557.552734"/>
     <use xlink:href="#DejaVuSans-Bold-43a" x="1603.255859"/>
     <use xlink:href="#DejaVuSans-Bold-412" x="1671.126953"/>
     <use xlink:href="#DejaVuSans-Bold-442" x="1747.347656"/>
     <use xlink:href="#DejaVuSans-Bold-b7" x="1805.306641"/>
     <use xlink:href="#DejaVuSans-Bold-447" x="1843.294922"/>
     <use xlink:href="#DejaVuSans-Bold-5d" x="1911.947266"/>
    </g>
   </g>
   <g id="legend_1">
    <g id="patch_5">
     <path d="M 325.590938 63.41 
L 419.029063 63.41 
Q 421.229063 63.41 421.229063 61.21 
L 421.229063 30.018125 
Q 421.229063 27.818125 419.029063 27.818125 
L 325.590938 27.818125 
Q 323.390938 27.818125 323.390938 30.018125 
L 323.390938 61.21 
Q 323.390938 63.41 325.590938 63.41 
z
" style="fill: #ffffff; opacity: 0.95; stroke: #cccccc; stroke-linejoin: miter"/>
    </g>
    <g id="line2d_16">
     <path d="M 327.790938 36.726406 
L 338.790938 36.726406 
L 349.790938 36.726406 
" style="fill: none; stroke: #0072b2; stroke-width: 1.8; stroke-linecap: round"/>
    </g>
    <g id="text_17">
     <!-- Train LOSS -->
     <g style="fill: #262626" transform="translate(358.590938 40.576406) scale(0.11 -0.11)">
      <defs>
       <path id="DejaVuSans-54" d="M -19 4666 
L 3928 4666 
L 3928 4134 
L 2272 4134 
L 2272 0 
L 1638 0 
L 1638 4134 
L -19 4134 
L -19 4666 
z
" transform="scale(0.015625)"/>
       <path id="DejaVuSans-72" d="M 2631 2963 
Q 2534 3019 2420 3045 
Q 2306 3072 2169 3072 
Q 1681 3072 1420 2755 
Q 1159 2438 1159 1844 
L 1159 0 
L 581 0 
L 581 3500 
L 1159 3500 
L 1159 2956 
Q 1341 3275 1631 3429 
Q 1922 3584 2338 3584 
Q 2397 3584 2469 3576 
Q 2541 3569 2628 3553 
L 2631 2963 
z
" transform="scale(0.015625)"/>
       <path id="DejaVuSans-61" d="M 2194 1759 
Q 1497 1759 1228 1600 
Q 959 1441 959 1056 
Q 959 750 1161 570 
Q 1363 391 1709 391 
Q 2188 391 2477 730 
Q 2766 1069 2766 1631 
L 2766 1759 
L 2194 1759 
z
M 3341 1997 
L 3341 0 
L 2766 0 
L 2766 531 
Q 2569 213 2275 61 
Q 1981 -91 1556 -91 
Q 1019 -91 701 211 
Q 384 513 384 1019 
Q 384 1609 779 1909 
Q 1175 2209 1959 2209 
L 2766 2209 
L 2766 2266 
Q 2766 2663 2505 2880 
Q 2244 3097 1772 3097 
Q 1472 3097 1187 3025 
Q 903 2953 641 2809 
L 641 3341 
Q 956 3463 1253 3523 
Q 1550 3584 1831 3584 
Q 2591 3584 2966 3190 
Q 3341 2797 3341 1997 
z
" transform="scale(0.015625)"/>
       <path id="DejaVuSans-69" d="M 603 3500 
L 1178 3500 
L 1178 0 
L 603 0 
L 603 3500 
z
M 603 4863 
L 1178 4863 
L 1178 4134 
L 603 4134 
L 603 4863 
z
" transform="scale(0.015625)"/>
       <path id="DejaVuSans-6e" d="M 3513 2113 
L 3513 0 
L 2938 0 
L 2938 2094 
Q 2938 2591 2744 2837 
Q 2550 3084 2163 3084 
Q 1697 3084 1428 2787 
Q 1159 2491 1159 1978 
L 1159 0 
L 581 0 
L 581 3500 
L 1159 3500 
L 1159 2956 
Q 1366 3272 1645 3428 
Q 1925 3584 2291 3584 
Q 2894 3584 3203 3211 
Q 3513 2838 3513 2113 
z
" transform="scale(0.015625)"/>
      </defs>
      <use xlink:href="#DejaVuSans-54"/>
      <use xlink:href="#DejaVuSans-72" x="46.333984"/>
      <use xlink:href="#DejaVuSans-61" x="87.447266"/>
      <use xlink:href="#DejaVuSans-69" x="148.726562"/>
      <use xlink:href="#DejaVuSans-6e" x="176.509766"/>
      <use xlink:href="#DejaVuSans-20" x="239.888672"/>
      <use xlink:href="#DejaVuSans-4c" x="271.675781"/>
      <use xlink:href="#DejaVuSans-4f" x="323.763672"/>
      <use xlink:href="#DejaVuSans-53" x="402.474609"/>
      <use xlink:href="#DejaVuSans-53" x="465.951172"/>
     </g>
    </g>
    <g id="line2d_17">
     <path d="M 327.790938 52.872344 
L 338.790938 52.872344 
L 349.790938 52.872344 
" style="fill: none; stroke: #009e73; stroke-width: 1.8; stroke-linecap: round"/>
    </g>
    <g id="text_18">
     <!-- Val LOSS -->
     <g style="fill: #262626" transform="translate(358.590938 56.722344) scale(0.11 -0.11)">
      <defs>
       <path id="DejaVuSans-56" d="M 1831 0 
L 50 4666 
L 709 4666 
L 2188 738 
L 3669 4666 
L 4325 4666 
L 2547 0 
L 1831 0 
z
" transform="scale(0.015625)"/>
       <path id="DejaVuSans-6c" d="M 603 4863 
L 1178 4863 
L 1178 0 
L 603 0 
L 603 4863 
z
" transform="scale(0.015625)"/>
      </defs>
      <use xlink:href="#DejaVuSans-56"/>
      <use xlink:href="#DejaVuSans-61" x="60.658203"/>
      <use xlink:href="#DejaVuSans-6c" x="121.9375"/>
      <use xlink:href="#DejaVuSans-20" x="149.720703"/>
      <use xlink:href="#DejaVuSans-4c" x="181.507812"/>
      <use xlink:href="#DejaVuSans-4f" x="233.595703"/>
      <use xlink:href="#DejaVuSans-53" x="312.306641"/>
      <use xlink:href="#DejaVuSans-53" x="375.783203"/>
     </g>
    </g>
   </g>
  </g>
  <g id="axes_2">
   <g id="patch_6">
    <path d="M 489.099063 239.218125 
L 853.959063 239.218125 
L 853.959063 22.318125 
L 489.099063 22.318125 
z
" style="fill: #ffffff"/>
   </g>
   <g id="matplotlib.axis_3">
    <g id="xtick_6">
     <g id="line2d_18">
      <path d="M 505.683608 239.218125 
L 505.683608 22.318125 
" clip-path="url(#pee21a2201b)" style="fill: none; stroke-dasharray: 3.7,1.6; stroke-dashoffset: 0; stroke: #cccccc; stroke-opacity: 0.3"/>
     </g>
     <g id="text_19">
      <!-- 0 -->
      <g style="fill: #262626" transform="translate(502.184233 257.076406) scale(0.11 -0.11)">
       <use xlink:href="#DejaVuSans-30"/>
      </g>
     </g>
    </g>
    <g id="xtick_7">
     <g id="line2d_19">
      <path d="M 582.821029 239.218125 
L 582.821029 22.318125 
" clip-path="url(#pee21a2201b)" style="fill: none; stroke-dasharray: 3.7,1.6; stroke-dashoffset: 0; stroke: #cccccc; stroke-opacity: 0.3"/>
     </g>
     <g id="text_20">
      <!-- 20 -->
      <g style="fill: #262626" transform="translate(575.822279 257.076406) scale(0.11 -0.11)">
       <use xlink:href="#DejaVuSans-32"/>
       <use xlink:href="#DejaVuSans-30" x="63.623047"/>
      </g>
     </g>
    </g>
    <g id="xtick_8">
     <g id="line2d_20">
      <path d="M 659.958449 239.218125 
L 659.958449 22.318125 
" clip-path="url(#pee21a2201b)" style="fill: none; stroke-dasharray: 3.7,1.6; stroke-dashoffset: 0; stroke: #cccccc; stroke-opacity: 0.3"/>
     </g>
     <g id="text_21">
      <!-- 40 -->
      <g style="fill: #262626" transform="translate(652.959699 257.076406) scale(0.11 -0.11)">
       <use xlink:href="#DejaVuSans-34"/>
       <use xlink:href="#DejaVuSans-30" x="63.623047"/>
      </g>
     </g>
    </g>
    <g id="xtick_9">
     <g id="line2d_21">
      <path d="M 737.09587 239.218125 
L 737.09587 22.318125 
" clip-path="url(#pee21a2201b)" style="fill: none; stroke-dasharray: 3.7,1.6; stroke-dashoffset: 0; stroke: #cccccc; stroke-opacity: 0.3"/>
     </g>
     <g id="text_22">
      <!-- 60 -->
      <g style="fill: #262626" transform="translate(730.09712 257.076406) scale(0.11 -0.11)">
       <use xlink:href="#DejaVuSans-36"/>
       <use xlink:href="#DejaVuSans-30" x="63.623047"/>
      </g>
     </g>
    </g>
    <g id="xtick_10">
     <g id="line2d_22">
      <path d="M 814.233291 239.218125 
L 814.233291 22.318125 
" clip-path="url(#pee21a2201b)" style="fill: none; stroke-dasharray: 3.7,1.6; stroke-dashoffset: 0; stroke: #cccccc; stroke-opacity: 0.3"/>
     </g>
     <g id="text_23">
      <!-- 80 -->
      <g style="fill: #262626" transform="translate(807.234541 257.076406) scale(0.11 -0.11)">
       <use xlink:href="#DejaVuSans-38"/>
       <use xlink:href="#DejaVuSans-30" x="63.623047"/>
      </g>
     </g>
    </g>
    <g id="text_24">
     <!-- Эпоха [-] -->
     <g style="fill: #262626" transform="translate(648.391562 270.9625) scale(0.1 -0.1)">
      <use xlink:href="#DejaVuSans-42d"/>
      <use xlink:href="#DejaVuSans-43f" x="69.824219"/>
      <use xlink:href="#DejaVuSans-43e" x="135.205078"/>
      <use xlink:href="#DejaVuSans-445" x="196.386719"/>
      <use xlink:href="#DejaVuSans-430" x="255.566406"/>
      <use xlink:href="#DejaVuSans-20" x="316.845703"/>
      <use xlink:href="#DejaVuSans-5b" x="348.632812"/>
      <use xlink:href="#DejaVuSans-2d" x="387.646484"/>
      <use xlink:href="#DejaVuSans-5d" x="423.730469"/>
     </g>
    </g>
   </g>
   <g id="matplotlib.axis_4">
    <g id="ytick_9">
     <g id="line2d_23">
      <path d="M 489.099063 212.894867 
L 853.959063 212.894867 
" clip-path="url(#pee21a2201b)" style="fill: none; stroke-dasharray: 3.7,1.6; stroke-dashoffset: 0; stroke: #cccccc; stroke-opacity: 0.3"/>
     </g>
     <g id="text_25">
      <!-- 0.05 -->
      <g style="fill: #262626" transform="translate(455.106875 217.074008) scale(0.11 -0.11)">
       <use xlink:href="#DejaVuSans-30"/>
       <use xlink:href="#DejaVuSans-2e" x="63.623047"/>
       <use xlink:href="#DejaVuSans-30" x="95.410156"/>
       <use xlink:href="#DejaVuSans-35" x="159.033203"/>
      </g>
     </g>
    </g>
    <g id="ytick_10">
     <g id="line2d_24">
      <path d="M 489.099063 184.262413 
L 853.959063 184.262413 
" clip-path="url(#pee21a2201b)" style="fill: none; stroke-dasharray: 3.7,1.6; stroke-dashoffset: 0; stroke: #cccccc; stroke-opacity: 0.3"/>
     </g>
     <g id="text_26">
      <!-- 0.10 -->
      <g style="fill: #262626" transform="translate(455.106875 188.441554) scale(0.11 -0.11)">
       <use xlink:href="#DejaVuSans-30"/>
       <use xlink:href="#DejaVuSans-2e" x="63.623047"/>
       <use xlink:href="#DejaVuSans-31" x="95.410156"/>
       <use xlink:href="#DejaVuSans-30" x="159.033203"/>
      </g>
     </g>
    </g>
    <g id="ytick_11">
     <g id="line2d_25">
      <path d="M 489.099063 155.629959 
L 853.959063 155.629959 
" clip-path="url(#pee21a2201b)" style="fill: none; stroke-dasharray: 3.7,1.6; stroke-dashoffset: 0; stroke: #cccccc; stroke-opacity: 0.3"/>
     </g>
     <g id="text_27">
      <!-- 0.15 -->
      <g style="fill: #262626" transform="translate(455.106875 159.8091) scale(0.11 -0.11)">
       <use xlink:href="#DejaVuSans-30"/>
       <use xlink:href="#DejaVuSans-2e" x="63.623047"/>
       <use xlink:href="#DejaVuSans-31" x="95.410156"/>
       <use xlink:href="#DejaVuSans-35" x="159.033203"/>
      </g>
     </g>
    </g>
    <g id="ytick_12">
     <g id="line2d_26">
      <path d="M 489.099063 126.997505 
L 853.959063 126.997505 
" clip-path="url(#pee21a2201b)" style="fill: none; stroke-dasharray: 3.7,1.6; stroke-dashoffset: 0; stroke: #cccccc; stroke-opacity: 0.3"/>
     </g>
     <g id="text_28">
      <!-- 0.20 -->
      <g style="fill: #262626" transform="translate(455.106875 131.176646) scale(0.11 -0.11)">
       <use xlink:href="#DejaVuSans-30"/>
       <use xlink:href="#DejaVuSans-2e" x="63.623047"/>
       <use xlink:href="#DejaVuSans-32" x="95.410156"/>
       <use xlink:href="#DejaVuSans-30" x="159.033203"/>
      </g>
     </g>
    </g>
    <g id="ytick_13">
     <g id="line2d_27">
      <path d="M 489.099063 98.365051 
L 853.959063 98.365051 
" clip-path="url(#pee21a2201b)" style="fill: none; stroke-dasharray: 3.7,1.6; stroke-dashoffset: 0; stroke: #cccccc; stroke-opacity: 0.3"/>
     </g>
     <g id="text_29">
      <!-- 0.25 -->
      <g style="fill: #262626" transform="translate(455.106875 102.544191) scale(0.11 -0.11)">
       <use xlink:href="#DejaVuSans-30"/>
       <use xlink:href="#DejaVuSans-2e" x="63.623047"/>
       <use xlink:href="#DejaVuSans-32" x="95.410156"/>
       <use xlink:href="#DejaVuSans-35" x="159.033203"/>
      </g>
     </g>
    </g>
    <g id="ytick_14">
     <g id="line2d_28">
      <path d="M 489.099063 69.732597 
L 853.959063 69.732597 
" clip-path="url(#pee21a2201b)" style="fill: none; stroke-dasharray: 3.7,1.6; stroke-dashoffset: 0; stroke: #cccccc; stroke-opacity: 0.3"/>
     </g>
     <g id="text_30">
      <!-- 0.30 -->
      <g style="fill: #262626" transform="translate(455.106875 73.911737) scale(0.11 -0.11)">
       <use xlink:href="#DejaVuSans-30"/>
       <use xlink:href="#DejaVuSans-2e" x="63.623047"/>
       <use xlink:href="#DejaVuSans-33" x="95.410156"/>
       <use xlink:href="#DejaVuSans-30" x="159.033203"/>
      </g>
     </g>
    </g>
    <g id="ytick_15">
     <g id="line2d_29">
      <path d="M 489.099063 41.100142 
L 853.959063 41.100142 
" clip-path="url(#pee21a2201b)" style="fill: none; stroke-dasharray: 3.7,1.6; stroke-dashoffset: 0; stroke: #cccccc; stroke-opacity: 0.3"/>
     </g>
     <g id="text_31">
      <!-- 0.35 -->
      <g style="fill: #262626" transform="translate(455.106875 45.279283) scale(0.11 -0.11)">
       <use xlink:href="#DejaVuSans-30"/>
       <use xlink:href="#DejaVuSans-2e" x="63.623047"/>
       <use xlink:href="#DejaVuSans-33" x="95.410156"/>
       <use xlink:href="#DejaVuSans-35" x="159.033203"/>
      </g>
     </g>
    </g>
    <g id="text_32">
     <!-- MAE [кВт·ч] -->
     <g style="fill: #262626" transform="translate(449.027188 161.05875) rotate(-90) scale(0.1 -0.1)">
      <defs>
       <path id="DejaVuSans-4d" d="M 628 4666 
L 1569 4666 
L 2759 1491 
L 3956 4666 
L 4897 4666 
L 4897 0 
L 4281 0 
L 4281 4097 
L 3078 897 
L 2444 897 
L 1241 4097 
L 1241 0 
L 628 0 
L 628 4666 
z
" transform="scale(0.015625)"/>
       <path id="DejaVuSans-41" d="M 2188 4044 
L 1331 1722 
L 3047 1722 
L 2188 4044 
z
M 1831 4666 
L 2547 4666 
L 4325 0 
L 3669 0 
L 3244 1197 
L 1141 1197 
L 716 0 
L 50 0 
L 1831 4666 
z
" transform="scale(0.015625)"/>
       <path id="DejaVuSans-45" d="M 628 4666 
L 3578 4666 
L 3578 4134 
L 1259 4134 
L 1259 2753 
L 3481 2753 
L 3481 2222 
L 1259 2222 
L 1259 531 
L 3634 531 
L 3634 0 
L 628 0 
L 628 4666 
z
" transform="scale(0.015625)"/>
      </defs>
      <use xlink:href="#DejaVuSans-4d"/>
      <use xlink:href="#DejaVuSans-41" x="86.279297"/>
      <use xlink:href="#DejaVuSans-45" x="154.6875"/>
      <use xlink:href="#DejaVuSans-20" x="217.871094"/>
      <use xlink:href="#DejaVuSans-5b" x="249.658203"/>
      <use xlink:href="#DejaVuSans-43a" x="288.671875"/>
      <use xlink:href="#DejaVuSans-412" x="349.072266"/>
      <use xlink:href="#DejaVuSans-442" x="417.675781"/>
      <use xlink:href="#DejaVuSans-b7" x="475.927734"/>
      <use xlink:href="#DejaVuSans-447" x="507.714844"/>
      <use xlink:href="#DejaVuSans-5d" x="566.796875"/>
     </g>
    </g>
   </g>
   <g id="line2d_30">
    <path d="M 505.683608 32.177216 
L 509.540479 136.97431 
L 513.39735 168.037904 
L 517.254221 184.035043 
L 521.111092 193.133704 
L 524.967963 197.56279 
L 528.824834 200.389174 
L 532.681705 202.873703 
L 536.538576 204.657082 
L 540.395447 206.265448 
L 544.252318 207.585206 
L 548.109189 208.753913 
L 551.96606 209.784383 
L 555.822931 210.65078 
L 559.679802 211.532797 
L 563.536673 212.343784 
L 567.393545 213.039933 
L 571.250416 213.673465 
L 575.107287 214.347736 
L 578.964158 214.884818 
L 582.821029 215.453035 
L 586.6779 216.006578 
L 590.534771 216.435395 
L 594.391642 216.880181 
L 598.248513 217.260445 
L 602.105384 217.68256 
L 605.962255 218.00436 
L 609.819126 218.392748 
L 613.675997 218.683324 
L 617.532868 219.032788 
L 621.389739 219.316445 
L 625.24661 219.650521 
L 629.103481 219.903147 
L 632.960352 220.15554 
L 636.817223 220.471014 
L 640.674094 220.729502 
L 644.530965 220.994913 
L 648.387836 221.218526 
L 652.244707 221.433964 
L 656.101578 221.678553 
L 659.958449 221.931657 
L 663.81532 222.159161 
L 667.672191 222.362015 
L 671.529063 222.602182 
L 675.385934 222.802623 
L 679.242805 222.980539 
L 683.099676 223.219045 
L 686.956547 223.415025 
L 690.813418 223.612868 
L 694.670289 223.804863 
L 698.52716 223.990026 
L 702.384031 224.105133 
L 706.240902 224.366045 
L 710.097773 224.505581 
L 713.954644 224.666299 
L 717.811515 224.849552 
L 721.668386 225.017417 
L 725.525257 225.171679 
L 729.382128 225.325643 
L 733.238999 225.447685 
L 737.09587 225.637925 
L 740.952741 225.781686 
L 744.809612 225.952148 
L 748.666483 226.089488 
L 752.523354 226.468249 
L 756.380225 226.557996 
L 760.237096 226.651876 
L 764.093967 226.751006 
L 767.950838 226.791214 
L 771.807709 226.88635 
L 775.66458 226.946862 
L 779.521452 227.040916 
L 783.378323 227.064891 
L 787.235194 227.137064 
L 791.092065 227.199788 
L 794.948936 227.288233 
L 798.805807 227.480335 
L 802.662678 227.536352 
L 806.519549 227.573016 
L 810.37642 227.600297 
L 814.233291 227.64652 
L 818.090162 227.648806 
L 821.947033 227.689357 
L 825.803904 227.701862 
L 829.660775 227.740245 
L 833.517646 227.781881 
L 837.374517 227.807504 
" clip-path="url(#pee21a2201b)" style="fill: none; stroke: #0072b2; stroke-width: 1.8; stroke-linecap: round"/>
   </g>
   <g id="line2d_31">
    <path d="M 505.683608 176.363817 
L 509.540479 193.476101 
L 513.39735 207.617651 
L 517.254221 213.2044 
L 521.111092 213.305791 
L 524.967963 214.45674 
L 528.824834 218.664662 
L 532.681705 217.399021 
L 536.538576 219.636612 
L 540.395447 221.731672 
L 544.252318 220.876182 
L 548.109189 222.357053 
L 551.96606 222.937374 
L 555.822931 223.212523 
L 559.679802 224.638352 
L 563.536673 224.67452 
L 567.393545 225.20226 
L 571.250416 224.41841 
L 575.107287 225.154631 
L 578.964158 226.550853 
L 582.821029 226.079165 
L 586.6779 225.716104 
L 590.534771 226.215511 
L 594.391642 226.707895 
L 598.248513 227.096009 
L 602.105384 226.544819 
L 605.962255 227.227249 
L 609.819126 227.00648 
L 613.675997 227.295687 
L 617.532868 227.416708 
L 621.389739 227.656373 
L 625.24661 227.529134 
L 629.103481 227.064522 
L 632.960352 227.777944 
L 636.817223 228.097704 
L 640.674094 228.136256 
L 644.530965 228.333648 
L 648.387836 228.37109 
L 652.244707 228.372744 
L 656.101578 228.394381 
L 659.958449 228.716655 
L 663.81532 228.641476 
L 667.672191 228.380035 
L 671.529063 228.02521 
L 675.385934 228.871028 
L 679.242805 228.881533 
L 683.099676 228.745259 
L 686.956547 228.772941 
L 690.813418 228.907714 
L 694.670289 229.209954 
L 698.52716 228.659863 
L 702.384031 229.359034 
L 706.240902 229.01232 
L 710.097773 229.29627 
L 713.954644 229.346631 
L 717.811515 229.185066 
L 721.668386 229.151613 
L 725.525257 229.210468 
L 729.382128 228.972604 
L 733.238999 228.829079 
L 737.09587 229.014685 
L 740.952741 228.995881 
L 744.809612 229.18923 
L 748.666483 229.039309 
L 752.523354 229.338318 
L 756.380225 229.112398 
L 760.237096 229.159152 
L 764.093967 229.274201 
L 767.950838 229.200129 
L 771.807709 229.17221 
L 775.66458 229.220152 
L 779.521452 229.063796 
L 783.378323 229.142277 
L 787.235194 229.12574 
L 791.092065 229.038536 
L 794.948936 228.784583 
L 798.805807 229.205221 
L 802.662678 229.209269 
L 806.519549 229.232418 
L 810.37642 229.175318 
L 814.233291 229.171914 
L 818.090162 229.128066 
L 821.947033 229.040969 
L 825.803904 229.213746 
L 829.660775 229.137625 
L 833.517646 229.084924 
L 837.374517 229.225013 
" clip-path="url(#pee21a2201b)" style="fill: none; stroke: #009e73; stroke-width: 1.8; stroke-linecap: round"/>
   </g>
   <g id="patch_7">
    <path d="M 489.099063 239.218125 
L 489.099063 22.318125 
" style="fill: none; stroke: #cccccc; stroke-width: 1.25; stroke-linejoin: miter; stroke-linecap: square"/>
   </g>
   <g id="patch_8">
    <path d="M 489.099063 239.218125 
L 853.959063 239.218125 
" style="fill: none; stroke: #cccccc; stroke-width: 1.25; stroke-linejoin: miter; stroke-linecap: square"/>
   </g>
   <g id="text_33">
    <!-- VanillaTransformer — MAE [кВт·ч] -->
    <g style="fill: #262626" transform="translate(556.435938 16.318125) scale(0.12 -0.12)">
     <defs>
      <path id="DejaVuSans-Bold-4d" d="M 588 4666 
L 2119 4666 
L 3181 2169 
L 4250 4666 
L 5778 4666 
L 5778 0 
L 4641 0 
L 4641 3413 
L 3566 897 
L 2803 897 
L 1728 3413 
L 1728 0 
L 588 0 
L 588 4666 
z
" transform="scale(0.015625)"/>
      <path id="DejaVuSans-Bold-41" d="M 3419 850 
L 1538 850 
L 1241 0 
L 31 0 
L 1759 4666 
L 3194 4666 
L 4922 0 
L 3713 0 
L 3419 850 
z
M 1838 1716 
L 3116 1716 
L 2478 3572 
L 1838 1716 
z
" transform="scale(0.015625)"/>
      <path id="DejaVuSans-Bold-45" d="M 588 4666 
L 3834 4666 
L 3834 3756 
L 1791 3756 
L 1791 2888 
L 3713 2888 
L 3713 1978 
L 1791 1978 
L 1791 909 
L 3903 909 
L 3903 0 
L 588 0 
L 588 4666 
z
" transform="scale(0.015625)"/>
     </defs>
     <use xlink:href="#DejaVuSans-Bold-56"/>
     <use xlink:href="#DejaVuSans-Bold-61" x="71.892578"/>
     <use xlink:href="#DejaVuSans-Bold-6e" x="139.373047"/>
     <use xlink:href="#DejaVuSans-Bold-69" x="210.564453"/>
     <use xlink:href="#DejaVuSans-Bold-6c" x="244.841797"/>
     <use xlink:href="#DejaVuSans-Bold-6c" x="279.119141"/>
     <use xlink:href="#DejaVuSans-Bold-61" x="313.396484"/>
     <use xlink:href="#DejaVuSans-Bold-54" x="380.876953"/>
     <use xlink:href="#DejaVuSans-Bold-72" x="438.089844"/>
     <use xlink:href="#DejaVuSans-Bold-61" x="487.40625"/>
     <use xlink:href="#DejaVuSans-Bold-6e" x="554.886719"/>
     <use xlink:href="#DejaVuSans-Bold-73" x="626.078125"/>
     <use xlink:href="#DejaVuSans-Bold-66" x="685.599609"/>
     <use xlink:href="#DejaVuSans-Bold-6f" x="729.105469"/>
     <use xlink:href="#DejaVuSans-Bold-72" x="797.806641"/>
     <use xlink:href="#DejaVuSans-Bold-6d" x="847.123047"/>
     <use xlink:href="#DejaVuSans-Bold-65" x="951.322266"/>
     <use xlink:href="#DejaVuSans-Bold-72" x="1019.144531"/>
     <use xlink:href="#DejaVuSans-Bold-20" x="1068.460938"/>
     <use xlink:href="#DejaVuSans-Bold-2014" x="1103.275391"/>
     <use xlink:href="#DejaVuSans-Bold-20" x="1203.275391"/>
     <use xlink:href="#DejaVuSans-Bold-4d" x="1238.089844"/>
     <use xlink:href="#DejaVuSans-Bold-41" x="1337.601562"/>
     <use xlink:href="#DejaVuSans-Bold-45" x="1414.994141"/>
     <use xlink:href="#DejaVuSans-Bold-20" x="1483.304688"/>
     <use xlink:href="#DejaVuSans-Bold-5b" x="1518.119141"/>
     <use xlink:href="#DejaVuSans-Bold-43a" x="1563.822266"/>
     <use xlink:href="#DejaVuSans-Bold-412" x="1631.693359"/>
     <use xlink:href="#DejaVuSans-Bold-442" x="1707.914062"/>
     <use xlink:href="#DejaVuSans-Bold-b7" x="1765.873047"/>
     <use xlink:href="#DejaVuSans-Bold-447" x="1803.861328"/>
     <use xlink:href="#DejaVuSans-Bold-5d" x="1872.513672"/>
    </g>
   </g>
   <g id="legend_2">
    <g id="patch_9">
     <path d="M 757.210625 63.41 
L 846.259063 63.41 
Q 848.459063 63.41 848.459063 61.21 
L 848.459063 30.018125 
Q 848.459063 27.818125 846.259063 27.818125 
L 757.210625 27.818125 
Q 755.010625 27.818125 755.010625 30.018125 
L 755.010625 61.21 
Q 755.010625 63.41 757.210625 63.41 
z
" style="fill: #ffffff; opacity: 0.95; stroke: #cccccc; stroke-linejoin: miter"/>
    </g>
    <g id="line2d_32">
     <path d="M 759.410625 36.726406 
L 770.410625 36.726406 
L 781.410625 36.726406 
" style="fill: none; stroke: #0072b2; stroke-width: 1.8; stroke-linecap: round"/>
    </g>
    <g id="text_34">
     <!-- Train MAE -->
     <g style="fill: #262626" transform="translate(790.210625 40.576406) scale(0.11 -0.11)">
      <use xlink:href="#DejaVuSans-54"/>
      <use xlink:href="#DejaVuSans-72" x="46.333984"/>
      <use xlink:href="#DejaVuSans-61" x="87.447266"/>
      <use xlink:href="#DejaVuSans-69" x="148.726562"/>
      <use xlink:href="#DejaVuSans-6e" x="176.509766"/>
      <use xlink:href="#DejaVuSans-20" x="239.888672"/>
      <use xlink:href="#DejaVuSans-4d" x="271.675781"/>
      <use xlink:href="#DejaVuSans-41" x="357.955078"/>
      <use xlink:href="#DejaVuSans-45" x="426.363281"/>
     </g>
    </g>
    <g id="line2d_33">
     <path d="M 759.410625 52.872344 
L 770.410625 52.872344 
L 781.410625 52.872344 
" style="fill: none; stroke: #009e73; stroke-width: 1.8; stroke-linecap: round"/>
    </g>
    <g id="text_35">
     <!-- Val MAE -->
     <g style="fill: #262626" transform="translate(790.210625 56.722344) scale(0.11 -0.11)">
      <use xlink:href="#DejaVuSans-56"/>
      <use xlink:href="#DejaVuSans-61" x="60.658203"/>
      <use xlink:href="#DejaVuSans-6c" x="121.9375"/>
      <use xlink:href="#DejaVuSans-20" x="149.720703"/>
      <use xlink:href="#DejaVuSans-4d" x="181.507812"/>
      <use xlink:href="#DejaVuSans-41" x="267.787109"/>
      <use xlink:href="#DejaVuSans-45" x="336.195312"/>
     </g>
    </g>
   </g>
  </g>
  <g id="axes_3">
   <g id="patch_10">
    <path d="M 916.329063 239.218125 
L 1281.189063 239.218125 
L 1281.189063 22.318125 
L 916.329063 22.318125 
z
" style="fill: #ffffff"/>
   </g>
   <g id="matplotlib.axis_5">
    <g id="xtick_11">
     <g id="line2d_34">
      <path d="M 932.913608 239.218125 
L 932.913608 22.318125 
" clip-path="url(#p88cf3498de)" style="fill: none; stroke-dasharray: 3.7,1.6; stroke-dashoffset: 0; stroke: #cccccc; stroke-opacity: 0.3"/>
     </g>
     <g id="text_36">
      <!-- 0 -->
      <g style="fill: #262626" transform="translate(929.414233 257.076406) scale(0.11 -0.11)">
       <use xlink:href="#DejaVuSans-30"/>
      </g>
     </g>
    </g>
    <g id="xtick_12">
     <g id="line2d_35">
      <path d="M 1010.051029 239.218125 
L 1010.051029 22.318125 
" clip-path="url(#p88cf3498de)" style="fill: none; stroke-dasharray: 3.7,1.6; stroke-dashoffset: 0; stroke: #cccccc; stroke-opacity: 0.3"/>
     </g>
     <g id="text_37">
      <!-- 20 -->
      <g style="fill: #262626" transform="translate(1003.052279 257.076406) scale(0.11 -0.11)">
       <use xlink:href="#DejaVuSans-32"/>
       <use xlink:href="#DejaVuSans-30" x="63.623047"/>
      </g>
     </g>
    </g>
    <g id="xtick_13">
     <g id="line2d_36">
      <path d="M 1087.188449 239.218125 
L 1087.188449 22.318125 
" clip-path="url(#p88cf3498de)" style="fill: none; stroke-dasharray: 3.7,1.6; stroke-dashoffset: 0; stroke: #cccccc; stroke-opacity: 0.3"/>
     </g>
     <g id="text_38">
      <!-- 40 -->
      <g style="fill: #262626" transform="translate(1080.189699 257.076406) scale(0.11 -0.11)">
       <use xlink:href="#DejaVuSans-34"/>
       <use xlink:href="#DejaVuSans-30" x="63.623047"/>
      </g>
     </g>
    </g>
    <g id="xtick_14">
     <g id="line2d_37">
      <path d="M 1164.32587 239.218125 
L 1164.32587 22.318125 
" clip-path="url(#p88cf3498de)" style="fill: none; stroke-dasharray: 3.7,1.6; stroke-dashoffset: 0; stroke: #cccccc; stroke-opacity: 0.3"/>
     </g>
     <g id="text_39">
      <!-- 60 -->
      <g style="fill: #262626" transform="translate(1157.32712 257.076406) scale(0.11 -0.11)">
       <use xlink:href="#DejaVuSans-36"/>
       <use xlink:href="#DejaVuSans-30" x="63.623047"/>
      </g>
     </g>
    </g>
    <g id="xtick_15">
     <g id="line2d_38">
      <path d="M 1241.463291 239.218125 
L 1241.463291 22.318125 
" clip-path="url(#p88cf3498de)" style="fill: none; stroke-dasharray: 3.7,1.6; stroke-dashoffset: 0; stroke: #cccccc; stroke-opacity: 0.3"/>
     </g>
     <g id="text_40">
      <!-- 80 -->
      <g style="fill: #262626" transform="translate(1234.464541 257.076406) scale(0.11 -0.11)">
       <use xlink:href="#DejaVuSans-38"/>
       <use xlink:href="#DejaVuSans-30" x="63.623047"/>
      </g>
     </g>
    </g>
    <g id="text_41">
     <!-- Эпоха [-] -->
     <g style="fill: #262626" transform="translate(1075.621562 270.9625) scale(0.1 -0.1)">
      <use xlink:href="#DejaVuSans-42d"/>
      <use xlink:href="#DejaVuSans-43f" x="69.824219"/>
      <use xlink:href="#DejaVuSans-43e" x="135.205078"/>
      <use xlink:href="#DejaVuSans-445" x="196.386719"/>
      <use xlink:href="#DejaVuSans-430" x="255.566406"/>
      <use xlink:href="#DejaVuSans-20" x="316.845703"/>
      <use xlink:href="#DejaVuSans-5b" x="348.632812"/>
      <use xlink:href="#DejaVuSans-2d" x="387.646484"/>
      <use xlink:href="#DejaVuSans-5d" x="423.730469"/>
     </g>
    </g>
   </g>
   <g id="matplotlib.axis_6">
    <g id="ytick_16">
     <g id="line2d_39">
      <path d="M 916.329063 238.86771 
L 1281.189063 238.86771 
" clip-path="url(#p88cf3498de)" style="fill: none; stroke-dasharray: 3.7,1.6; stroke-dashoffset: 0; stroke: #cccccc; stroke-opacity: 0.3"/>
     </g>
     <g id="text_42">
      <!-- 0 -->
      <g style="fill: #262626" transform="translate(899.830313 243.046851) scale(0.11 -0.11)">
       <use xlink:href="#DejaVuSans-30"/>
      </g>
     </g>
    </g>
    <g id="ytick_17">
     <g id="line2d_40">
      <path d="M 916.329063 210.538908 
L 1281.189063 210.538908 
" clip-path="url(#p88cf3498de)" style="fill: none; stroke-dasharray: 3.7,1.6; stroke-dashoffset: 0; stroke: #cccccc; stroke-opacity: 0.3"/>
     </g>
     <g id="text_43">
      <!-- 1000 -->
      <g style="fill: #262626" transform="translate(878.834063 214.718049) scale(0.11 -0.11)">
       <use xlink:href="#DejaVuSans-31"/>
       <use xlink:href="#DejaVuSans-30" x="63.623047"/>
       <use xlink:href="#DejaVuSans-30" x="127.246094"/>
       <use xlink:href="#DejaVuSans-30" x="190.869141"/>
      </g>
     </g>
    </g>
    <g id="ytick_18">
     <g id="line2d_41">
      <path d="M 916.329063 182.210106 
L 1281.189063 182.210106 
" clip-path="url(#p88cf3498de)" style="fill: none; stroke-dasharray: 3.7,1.6; stroke-dashoffset: 0; stroke: #cccccc; stroke-opacity: 0.3"/>
     </g>
     <g id="text_44">
      <!-- 2000 -->
      <g style="fill: #262626" transform="translate(878.834063 186.389247) scale(0.11 -0.11)">
       <use xlink:href="#DejaVuSans-32"/>
       <use xlink:href="#DejaVuSans-30" x="63.623047"/>
       <use xlink:href="#DejaVuSans-30" x="127.246094"/>
       <use xlink:href="#DejaVuSans-30" x="190.869141"/>
      </g>
     </g>
    </g>
    <g id="ytick_19">
     <g id="line2d_42">
      <path d="M 916.329063 153.881304 
L 1281.189063 153.881304 
" clip-path="url(#p88cf3498de)" style="fill: none; stroke-dasharray: 3.7,1.6; stroke-dashoffset: 0; stroke: #cccccc; stroke-opacity: 0.3"/>
     </g>
     <g id="text_45">
      <!-- 3000 -->
      <g style="fill: #262626" transform="translate(878.834063 158.060445) scale(0.11 -0.11)">
       <use xlink:href="#DejaVuSans-33"/>
       <use xlink:href="#DejaVuSans-30" x="63.623047"/>
       <use xlink:href="#DejaVuSans-30" x="127.246094"/>
       <use xlink:href="#DejaVuSans-30" x="190.869141"/>
      </g>
     </g>
    </g>
    <g id="ytick_20">
     <g id="line2d_43">
      <path d="M 916.329063 125.552502 
L 1281.189063 125.552502 
" clip-path="url(#p88cf3498de)" style="fill: none; stroke-dasharray: 3.7,1.6; stroke-dashoffset: 0; stroke: #cccccc; stroke-opacity: 0.3"/>
     </g>
     <g id="text_46">
      <!-- 4000 -->
      <g style="fill: #262626" transform="translate(878.834063 129.731643) scale(0.11 -0.11)">
       <use xlink:href="#DejaVuSans-34"/>
       <use xlink:href="#DejaVuSans-30" x="63.623047"/>
       <use xlink:href="#DejaVuSans-30" x="127.246094"/>
       <use xlink:href="#DejaVuSans-30" x="190.869141"/>
      </g>
     </g>
    </g>
    <g id="ytick_21">
     <g id="line2d_44">
      <path d="M 916.329063 97.2237 
L 1281.189063 97.2237 
" clip-path="url(#p88cf3498de)" style="fill: none; stroke-dasharray: 3.7,1.6; stroke-dashoffset: 0; stroke: #cccccc; stroke-opacity: 0.3"/>
     </g>
     <g id="text_47">
      <!-- 5000 -->
      <g style="fill: #262626" transform="translate(878.834063 101.402841) scale(0.11 -0.11)">
       <use xlink:href="#DejaVuSans-35"/>
       <use xlink:href="#DejaVuSans-30" x="63.623047"/>
       <use xlink:href="#DejaVuSans-30" x="127.246094"/>
       <use xlink:href="#DejaVuSans-30" x="190.869141"/>
      </g>
     </g>
    </g>
    <g id="ytick_22">
     <g id="line2d_45">
      <path d="M 916.329063 68.894898 
L 1281.189063 68.894898 
" clip-path="url(#p88cf3498de)" style="fill: none; stroke-dasharray: 3.7,1.6; stroke-dashoffset: 0; stroke: #cccccc; stroke-opacity: 0.3"/>
     </g>
     <g id="text_48">
      <!-- 6000 -->
      <g style="fill: #262626" transform="translate(878.834063 73.074039) scale(0.11 -0.11)">
       <use xlink:href="#DejaVuSans-36"/>
       <use xlink:href="#DejaVuSans-30" x="63.623047"/>
       <use xlink:href="#DejaVuSans-30" x="127.246094"/>
       <use xlink:href="#DejaVuSans-30" x="190.869141"/>
      </g>
     </g>
    </g>
    <g id="ytick_23">
     <g id="line2d_46">
      <path d="M 916.329063 40.566096 
L 1281.189063 40.566096 
" clip-path="url(#p88cf3498de)" style="fill: none; stroke-dasharray: 3.7,1.6; stroke-dashoffset: 0; stroke: #cccccc; stroke-opacity: 0.3"/>
     </g>
     <g id="text_49">
      <!-- 7000 -->
      <g style="fill: #262626" transform="translate(878.834063 44.745237) scale(0.11 -0.11)">
       <use xlink:href="#DejaVuSans-37"/>
       <use xlink:href="#DejaVuSans-30" x="63.623047"/>
       <use xlink:href="#DejaVuSans-30" x="127.246094"/>
       <use xlink:href="#DejaVuSans-30" x="190.869141"/>
      </g>
     </g>
    </g>
    <g id="text_50">
     <!-- MAPE [%] -->
     <g style="fill: #262626" transform="translate(872.754375 154.918125) rotate(-90) scale(0.1 -0.1)">
      <defs>
       <path id="DejaVuSans-50" d="M 1259 4147 
L 1259 2394 
L 2053 2394 
Q 2494 2394 2734 2622 
Q 2975 2850 2975 3272 
Q 2975 3691 2734 3919 
Q 2494 4147 2053 4147 
L 1259 4147 
z
M 628 4666 
L 2053 4666 
Q 2838 4666 3239 4311 
Q 3641 3956 3641 3272 
Q 3641 2581 3239 2228 
Q 2838 1875 2053 1875 
L 1259 1875 
L 1259 0 
L 628 0 
L 628 4666 
z
" transform="scale(0.015625)"/>
       <path id="DejaVuSans-25" d="M 4653 2053 
Q 4381 2053 4226 1822 
Q 4072 1591 4072 1178 
Q 4072 772 4226 539 
Q 4381 306 4653 306 
Q 4919 306 5073 539 
Q 5228 772 5228 1178 
Q 5228 1588 5073 1820 
Q 4919 2053 4653 2053 
z
M 4653 2450 
Q 5147 2450 5437 2106 
Q 5728 1763 5728 1178 
Q 5728 594 5436 251 
Q 5144 -91 4653 -91 
Q 4153 -91 3862 251 
Q 3572 594 3572 1178 
Q 3572 1766 3864 2108 
Q 4156 2450 4653 2450 
z
M 1428 4353 
Q 1159 4353 1004 4120 
Q 850 3888 850 3481 
Q 850 3069 1003 2837 
Q 1156 2606 1428 2606 
Q 1700 2606 1854 2837 
Q 2009 3069 2009 3481 
Q 2009 3884 1853 4118 
Q 1697 4353 1428 4353 
z
M 4250 4750 
L 4750 4750 
L 1831 -91 
L 1331 -91 
L 4250 4750 
z
M 1428 4750 
Q 1922 4750 2215 4408 
Q 2509 4066 2509 3481 
Q 2509 2891 2217 2550 
Q 1925 2209 1428 2209 
Q 931 2209 642 2551 
Q 353 2894 353 3481 
Q 353 4063 643 4406 
Q 934 4750 1428 4750 
z
" transform="scale(0.015625)"/>
      </defs>
      <use xlink:href="#DejaVuSans-4d"/>
      <use xlink:href="#DejaVuSans-41" x="86.279297"/>
      <use xlink:href="#DejaVuSans-50" x="154.6875"/>
      <use xlink:href="#DejaVuSans-45" x="214.990234"/>
      <use xlink:href="#DejaVuSans-20" x="278.173828"/>
      <use xlink:href="#DejaVuSans-5b" x="309.960938"/>
      <use xlink:href="#DejaVuSans-25" x="348.974609"/>
      <use xlink:href="#DejaVuSans-5d" x="443.994141"/>
     </g>
    </g>
   </g>
   <g id="line2d_47">
    <path d="M 932.913608 32.177216 
L 936.770479 138.736593 
L 940.62735 169.340026 
L 944.484221 186.186399 
L 948.341092 196.5599 
L 952.197963 202.942021 
L 956.054834 204.750807 
L 959.911705 208.411547 
L 963.768576 211.681204 
L 967.625447 212.469859 
L 971.482318 214.629685 
L 975.339189 215.829378 
L 979.19606 216.314678 
L 983.052931 215.757529 
L 986.909802 217.705214 
L 990.766673 219.380794 
L 994.623545 219.237018 
L 998.480416 220.516593 
L 1002.337287 221.151878 
L 1006.194158 221.746387 
L 1010.051029 221.641478 
L 1013.9079 221.200845 
L 1017.764771 222.036225 
L 1021.621642 222.890923 
L 1025.478513 222.133183 
L 1029.335384 223.118736 
L 1033.192255 223.342294 
L 1037.049126 223.606384 
L 1040.905997 223.978727 
L 1044.762868 224.277945 
L 1048.619739 224.271593 
L 1052.47661 224.334058 
L 1056.333481 224.602743 
L 1060.190352 224.590151 
L 1064.047223 224.550451 
L 1067.904094 225.133147 
L 1071.760965 225.281614 
L 1075.617836 224.571347 
L 1079.474707 225.985238 
L 1083.331578 225.226983 
L 1087.188449 225.815495 
L 1091.04532 225.479792 
L 1094.902191 225.530859 
L 1098.759063 225.747891 
L 1102.615934 225.692382 
L 1106.472805 225.425939 
L 1110.329676 225.640528 
L 1114.186547 226.251637 
L 1118.043418 225.882209 
L 1121.900289 226.308975 
L 1125.75716 225.86616 
L 1129.614031 225.74574 
L 1133.470902 226.866558 
L 1137.327773 226.307885 
L 1141.184644 226.637621 
L 1145.041515 226.308213 
L 1148.898386 226.631366 
L 1152.755257 226.66441 
L 1156.612128 226.898131 
L 1160.468999 226.761379 
L 1164.32587 227.156346 
L 1168.182741 226.507613 
L 1172.039612 227.349357 
L 1175.896483 227.352694 
L 1179.753354 227.246661 
L 1183.610225 227.267346 
L 1187.467096 228.161631 
L 1191.323967 228.227161 
L 1195.180838 228.230078 
L 1199.037709 227.822701 
L 1202.89458 228.005869 
L 1206.751452 228.309926 
L 1210.608323 227.854002 
L 1214.465194 228.142077 
L 1218.322065 228.099381 
L 1222.178936 228.422942 
L 1226.035807 228.236101 
L 1229.892678 228.065965 
L 1233.749549 228.055584 
L 1237.60642 228.091232 
L 1241.463291 228.592781 
L 1245.320162 227.75664 
L 1249.177033 228.531067 
L 1253.033904 228.280658 
L 1256.890775 228.936079 
L 1260.747646 228.331918 
L 1264.604517 228.641205 
" clip-path="url(#p88cf3498de)" style="fill: none; stroke: #0072b2; stroke-width: 1.8; stroke-linecap: round"/>
   </g>
   <g id="line2d_48">
    <path d="M 932.913608 155.604091 
L 936.770479 178.583328 
L 940.62735 198.522807 
L 944.484221 207.246529 
L 948.341092 206.78797 
L 952.197963 207.404551 
L 956.054834 213.765254 
L 959.911705 211.089638 
L 963.768576 214.789887 
L 967.625447 218.013313 
L 971.482318 216.749898 
L 975.339189 219.174502 
L 979.19606 219.844654 
L 983.052931 220.418943 
L 986.909802 222.840891 
L 990.766673 222.786004 
L 994.623545 223.71527 
L 998.480416 221.638351 
L 1002.337287 223.003239 
L 1006.194158 225.614856 
L 1010.051029 224.370551 
L 1013.9079 223.819246 
L 1017.764771 224.906888 
L 1021.621642 225.317995 
L 1025.478513 226.09283 
L 1029.335384 225.139155 
L 1033.192255 226.364536 
L 1037.049126 225.454803 
L 1040.905997 226.346616 
L 1044.762868 226.476521 
L 1048.619739 227.087801 
L 1052.47661 226.726804 
L 1056.333481 226.208508 
L 1060.190352 226.973378 
L 1064.047223 227.424551 
L 1067.904094 227.460794 
L 1071.760965 227.734683 
L 1075.617836 227.847192 
L 1079.474707 227.858053 
L 1083.331578 227.729528 
L 1087.188449 228.363117 
L 1091.04532 228.017814 
L 1094.902191 227.945165 
L 1098.759063 227.102547 
L 1102.615934 228.39541 
L 1106.472805 228.432139 
L 1110.329676 228.258763 
L 1114.186547 228.072369 
L 1118.043418 228.667951 
L 1121.900289 228.588082 
L 1125.75716 227.677201 
L 1129.614031 229.001767 
L 1133.470902 228.436915 
L 1137.327773 228.708199 
L 1141.184644 228.748336 
L 1145.041515 228.544602 
L 1148.898386 228.684327 
L 1152.755257 228.829461 
L 1156.612128 228.169722 
L 1160.468999 227.858029 
L 1164.32587 228.587426 
L 1168.182741 228.487356 
L 1172.039612 228.999892 
L 1175.896483 228.785708 
L 1179.753354 229.359034 
L 1183.610225 228.878363 
L 1187.467096 229.069396 
L 1191.323967 228.944163 
L 1195.180838 229.015272 
L 1199.037709 228.899778 
L 1202.89458 228.975069 
L 1206.751452 228.747224 
L 1210.608323 228.933049 
L 1214.465194 228.948525 
L 1218.322065 228.738885 
L 1222.178936 228.408552 
L 1226.035807 229.197699 
L 1229.892678 229.288343 
L 1233.749549 229.309534 
L 1237.60642 229.133314 
L 1241.463291 229.253327 
L 1245.320162 229.020551 
L 1249.177033 228.816382 
L 1253.033904 229.221962 
L 1256.890775 229.116877 
L 1260.747646 229.081896 
L 1264.604517 229.218576 
" clip-path="url(#p88cf3498de)" style="fill: none; stroke: #009e73; stroke-width: 1.8; stroke-linecap: round"/>
   </g>
   <g id="patch_11">
    <path d="M 916.329063 239.218125 
L 916.329063 22.318125 
" style="fill: none; stroke: #cccccc; stroke-width: 1.25; stroke-linejoin: miter; stroke-linecap: square"/>
   </g>
   <g id="patch_12">
    <path d="M 916.329063 239.218125 
L 1281.189063 239.218125 
" style="fill: none; stroke: #cccccc; stroke-width: 1.25; stroke-linejoin: miter; stroke-linecap: square"/>
   </g>
   <g id="text_51">
    <!-- VanillaTransformer — MAPE [%] -->
    <g style="fill: #262626" transform="translate(991.777188 16.318125) scale(0.12 -0.12)">
     <defs>
      <path id="DejaVuSans-Bold-50" d="M 588 4666 
L 2584 4666 
Q 3475 4666 3951 4270 
Q 4428 3875 4428 3144 
Q 4428 2409 3951 2014 
Q 3475 1619 2584 1619 
L 1791 1619 
L 1791 0 
L 588 0 
L 588 4666 
z
M 1791 3794 
L 1791 2491 
L 2456 2491 
Q 2806 2491 2997 2661 
Q 3188 2831 3188 3144 
Q 3188 3456 2997 3625 
Q 2806 3794 2456 3794 
L 1791 3794 
z
" transform="scale(0.015625)"/>
      <path id="DejaVuSans-Bold-25" d="M 4959 1925 
Q 4738 1925 4616 1733 
Q 4494 1541 4494 1184 
Q 4494 825 4614 633 
Q 4734 441 4959 441 
Q 5184 441 5303 633 
Q 5422 825 5422 1184 
Q 5422 1541 5301 1733 
Q 5181 1925 4959 1925 
z
M 4959 2450 
Q 5541 2450 5875 2112 
Q 6209 1775 6209 1184 
Q 6209 594 5875 251 
Q 5541 -91 4959 -91 
Q 4378 -91 4042 251 
Q 3706 594 3706 1184 
Q 3706 1772 4042 2111 
Q 4378 2450 4959 2450 
z
M 2094 -91 
L 1403 -91 
L 4319 4750 
L 5013 4750 
L 2094 -91 
z
M 1453 4750 
Q 2034 4750 2367 4411 
Q 2700 4072 2700 3481 
Q 2700 2891 2367 2550 
Q 2034 2209 1453 2209 
Q 872 2209 539 2550 
Q 206 2891 206 3481 
Q 206 4072 539 4411 
Q 872 4750 1453 4750 
z
M 1453 4225 
Q 1228 4225 1106 4031 
Q 984 3838 984 3481 
Q 984 3122 1106 2926 
Q 1228 2731 1453 2731 
Q 1678 2731 1798 2926 
Q 1919 3122 1919 3481 
Q 1919 3838 1797 4031 
Q 1675 4225 1453 4225 
z
" transform="scale(0.015625)"/>
     </defs>
     <use xlink:href="#DejaVuSans-Bold-56"/>
     <use xlink:href="#DejaVuSans-Bold-61" x="71.892578"/>
     <use xlink:href="#DejaVuSans-Bold-6e" x="139.373047"/>
     <use xlink:href="#DejaVuSans-Bold-69" x="210.564453"/>
     <use xlink:href="#DejaVuSans-Bold-6c" x="244.841797"/>
     <use xlink:href="#DejaVuSans-Bold-6c" x="279.119141"/>
     <use xlink:href="#DejaVuSans-Bold-61" x="313.396484"/>
     <use xlink:href="#DejaVuSans-Bold-54" x="380.876953"/>
     <use xlink:href="#DejaVuSans-Bold-72" x="438.089844"/>
     <use xlink:href="#DejaVuSans-Bold-61" x="487.40625"/>
     <use xlink:href="#DejaVuSans-Bold-6e" x="554.886719"/>
     <use xlink:href="#DejaVuSans-Bold-73" x="626.078125"/>
     <use xlink:href="#DejaVuSans-Bold-66" x="685.599609"/>
     <use xlink:href="#DejaVuSans-Bold-6f" x="729.105469"/>
     <use xlink:href="#DejaVuSans-Bold-72" x="797.806641"/>
     <use xlink:href="#DejaVuSans-Bold-6d" x="847.123047"/>
     <use xlink:href="#DejaVuSans-Bold-65" x="951.322266"/>
     <use xlink:href="#DejaVuSans-Bold-72" x="1019.144531"/>
     <use xlink:href="#DejaVuSans-Bold-20" x="1068.460938"/>
     <use xlink:href="#DejaVuSans-Bold-2014" x="1103.275391"/>
     <use xlink:href="#DejaVuSans-Bold-20" x="1203.275391"/>
     <use xlink:href="#DejaVuSans-Bold-4d" x="1238.089844"/>
     <use xlink:href="#DejaVuSans-Bold-41" x="1337.601562"/>
     <use xlink:href="#DejaVuSans-Bold-50" x="1414.994141"/>
     <use xlink:href="#DejaVuSans-Bold-45" x="1488.285156"/>
     <use xlink:href="#DejaVuSans-Bold-20" x="1556.595703"/>
     <use xlink:href="#DejaVuSans-Bold-5b" x="1591.410156"/>
     <use xlink:href="#DejaVuSans-Bold-25" x="1637.113281"/>
     <use xlink:href="#DejaVuSans-Bold-5d" x="1737.308594"/>
    </g>
   </g>
   <g id="legend_3">
    <g id="patch_13">
     <path d="M 1177.807969 63.41 
L 1273.489063 63.41 
Q 1275.689063 63.41 1275.689063 61.21 
L 1275.689063 30.018125 
Q 1275.689063 27.818125 1273.489063 27.818125 
L 1177.807969 27.818125 
Q 1175.607969 27.818125 1175.607969 30.018125 
L 1175.607969 61.21 
Q 1175.607969 63.41 1177.807969 63.41 
z
" style="fill: #ffffff; opacity: 0.95; stroke: #cccccc; stroke-linejoin: miter"/>
    </g>
    <g id="line2d_49">
     <path d="M 1180.007969 36.726406 
L 1191.007969 36.726406 
L 1202.007969 36.726406 
" style="fill: none; stroke: #0072b2; stroke-width: 1.8; stroke-linecap: round"/>
    </g>
    <g id="text_52">
     <!-- Train MAPE -->
     <g style="fill: #262626" transform="translate(1210.807969 40.576406) scale(0.11 -0.11)">
      <use xlink:href="#DejaVuSans-54"/>
      <use xlink:href="#DejaVuSans-72" x="46.333984"/>
      <use xlink:href="#DejaVuSans-61" x="87.447266"/>
      <use xlink:href="#DejaVuSans-69" x="148.726562"/>
      <use xlink:href="#DejaVuSans-6e" x="176.509766"/>
      <use xlink:href="#DejaVuSans-20" x="239.888672"/>
      <use xlink:href="#DejaVuSans-4d" x="271.675781"/>
      <use xlink:href="#DejaVuSans-41" x="357.955078"/>
      <use xlink:href="#DejaVuSans-50" x="426.363281"/>
      <use xlink:href="#DejaVuSans-45" x="486.666016"/>
     </g>
    </g>
    <g id="line2d_50">
     <path d="M 1180.007969 52.872344 
L 1191.007969 52.872344 
L 1202.007969 52.872344 
" style="fill: none; stroke: #009e73; stroke-width: 1.8; stroke-linecap: round"/>
    </g>
    <g id="text_53">
     <!-- Val MAPE -->
     <g style="fill: #262626" transform="translate(1210.807969 56.722344) scale(0.11 -0.11)">
      <use xlink:href="#DejaVuSans-56"/>
      <use xlink:href="#DejaVuSans-61" x="60.658203"/>
      <use xlink:href="#DejaVuSans-6c" x="121.9375"/>
      <use xlink:href="#DejaVuSans-20" x="149.720703"/>
      <use xlink:href="#DejaVuSans-4d" x="181.507812"/>
      <use xlink:href="#DejaVuSans-41" x="267.787109"/>
      <use xlink:href="#DejaVuSans-50" x="336.195312"/>
      <use xlink:href="#DejaVuSans-45" x="396.498047"/>
     </g>
    </g>
   </g>
  </g>
 </g>
 <defs>
  <clipPath id="p089a2e5eaf">
   <rect x="61.869063" y="22.318125" width="364.86" height="216.9"/>
  </clipPath>
  <clipPath id="pee21a2201b">
   <rect x="489.099063" y="22.318125" width="364.86" height="216.9"/>
  </clipPath>
  <clipPath id="p88cf3498de">
   <rect x="916.329063" y="22.318125" width="364.86" height="216.9"/>
  </clipPath>
 </defs>
</svg>
