<?xml version="1.0" encoding="utf-8" standalone="no"?>
<!DOCTYPE svg PUBLIC "-//W3C//DTD SVG 1.1//EN"
  "http://www.w3.org/Graphics/SVG/1.1/DTD/svg11.dtd">
<svg xmlns:xlink="http://www.w3.org/1999/xlink" width="856.389063pt" height="280.242187pt" viewBox="0 0 856.389063 280.242187" xmlns="http://www.w3.org/2000/svg" version="1.1">
 <metadata>
  <rdf:RDF xmlns:dc="http://purl.org/dc/elements/1.1/" xmlns:cc="http://creativecommons.org/ns#" xmlns:rdf="http://www.w3.org/1999/02/22-rdf-syntax-ns#">
   <cc:Work>
    <dc:type rdf:resource="http://purl.org/dc/dcmitype/StillImage"/>
    <dc:date>2026-04-12T04:00:23.445176</dc:date>
    <dc:format>image/svg+xml</dc:format>
    <dc:creator>
     <cc:Agent>
      <dc:title>Matplotlib v3.9.0, https://matplotlib.org/</dc:title>
     </cc:Agent>
    </dc:creator>
   </cc:Work>
  </rdf:RDF>
 </metadata>
 <defs>
  <style type="text/css">*{stroke-linejoin: round; stroke-linecap: butt}</style>
 </defs>
 <g id="figure_1">
  <g id="patch_1">
   <path d="M 0 280.242187 
L 856.389063 280.242187 
L 856.389063 0 
L 0 0 
z
" style="fill: #ffffff"/>
  </g>
  <g id="axes_1">
   <g id="patch_2">
    <path d="M 61.869063 239.218125 
L 422.574063 239.218125 
L 422.574063 22.318125 
L 61.869063 22.318125 
z
" style="fill: #ffffff"/>
   </g>
   <g id="matplotlib.axis_1">
    <g id="xtick_1">
     <g id="line2d_1">
      <path d="M 78.264744 239.218125 
L 78.264744 22.318125 
" clip-path="url(#p086276caad)" style="fill: none; stroke-dasharray: 3.7,1.6; stroke-dashoffset: 0; stroke: #cccccc; stroke-opacity: 0.3"/>
     </g>
     <g id="text_1">
      <!-- 0 -->
      <g style="fill: #262626" transform="translate(74.765369 257.076406) scale(0.11 -0.11)">
       <defs>
        <path id="DejaVuSans-30" d="M 2034 4250 
Q 1547 4250 1301 3770 
Q 1056 3291 1056 2328 
Q 1056 1369 1301 889 
Q 1547 409 2034 409 
Q 2525 409 2770 889 
Q 3016 1369 3016 2328 
Q 3016 3291 2770 3770 
Q 2525 4250 2034 4250 
z
M 2034 4750 
Q 2819 4750 3233 4129 
Q 3647 3509 3647 2328 
Q 3647 1150 3233 529 
Q 2819 -91 2034 -91 
Q 1250 -91 836 529 
Q 422 1150 422 2328 
Q 422 3509 836 4129 
Q 1250 4750 2034 4750 
z
" transform="scale(0.015625)"/>
       </defs>
       <use xlink:href="#DejaVuSans-30"/>
      </g>
     </g>
    </g>
    <g id="xtick_2">
     <g id="line2d_2">
      <path d="M 123.808305 239.218125 
L 123.808305 22.318125 
" clip-path="url(#p086276caad)" style="fill: none; stroke-dasharray: 3.7,1.6; stroke-dashoffset: 0; stroke: #cccccc; stroke-opacity: 0.3"/>
     </g>
     <g id="text_2">
      <!-- 25 -->
      <g style="fill: #262626" transform="translate(116.809555 257.076406) scale(0.11 -0.11)">
       <defs>
        <path id="DejaVuSans-32" d="M 1228 531 
L 3431 531 
L 3431 0 
L 469 0 
L 469 531 
Q 828 903 1448 1529 
Q 2069 2156 2228 2338 
Q 2531 2678 2651 2914 
Q 2772 3150 2772 3378 
Q 2772 3750 2511 3984 
Q 2250 4219 1831 4219 
Q 1534 4219 1204 4116 
Q 875 4013 500 3803 
L 500 4441 
Q 881 4594 1212 4672 
Q 1544 4750 1819 4750 
Q 2544 4750 2975 4387 
Q 3406 4025 3406 3419 
Q 3406 3131 3298 2873 
Q 3191 2616 2906 2266 
Q 2828 2175 2409 1742 
Q 1991 1309 1228 531 
z
" transform="scale(0.015625)"/>
        <path id="DejaVuSans-35" d="M 691 4666 
L 3169 4666 
L 3169 4134 
L 1269 4134 
L 1269 2991 
Q 1406 3038 1543 3061 
Q 1681 3084 1819 3084 
Q 2600 3084 3056 2656 
Q 3513 2228 3513 1497 
Q 3513 744 3044 326 
Q 2575 -91 1722 -91 
Q 1428 -91 1123 -41 
Q 819 9 494 109 
L 494 744 
Q 775 591 1075 516 
Q 1375 441 1709 441 
Q 2250 441 2565 725 
Q 2881 1009 2881 1497 
Q 2881 1984 2565 2268 
Q 2250 2553 1709 2553 
Q 1456 2553 1204 2497 
Q 953 2441 691 2322 
L 691 4666 
z
" transform="scale(0.015625)"/>
       </defs>
       <use xlink:href="#DejaVuSans-32"/>
       <use xlink:href="#DejaVuSans-35" x="63.623047"/>
      </g>
     </g>
    </g>
    <g id="xtick_3">
     <g id="line2d_3">
      <path d="M 169.351866 239.218125 
L 169.351866 22.318125 
" clip-path="url(#p086276caad)" style="fill: none; stroke-dasharray: 3.7,1.6; stroke-dashoffset: 0; stroke: #cccccc; stroke-opacity: 0.3"/>
     </g>
     <g id="text_3">
      <!-- 50 -->
      <g style="fill: #262626" transform="translate(162.353116 257.076406) scale(0.11 -0.11)">
       <use xlink:href="#DejaVuSans-35"/>
       <use xlink:href="#DejaVuSans-30" x="63.623047"/>
      </g>
     </g>
    </g>
    <g id="xtick_4">
     <g id="line2d_4">
      <path d="M 214.895426 239.218125 
L 214.895426 22.318125 
" clip-path="url(#p086276caad)" style="fill: none; stroke-dasharray: 3.7,1.6; stroke-dashoffset: 0; stroke: #cccccc; stroke-opacity: 0.3"/>
     </g>
     <g id="text_4">
      <!-- 75 -->
      <g style="fill: #262626" transform="translate(207.896676 257.076406) scale(0.11 -0.11)">
       <defs>
        <path id="DejaVuSans-37" d="M 525 4666 
L 3525 4666 
L 3525 4397 
L 1831 0 
L 1172 0 
L 2766 4134 
L 525 4134 
L 525 4666 
z
" transform="scale(0.015625)"/>
       </defs>
       <use xlink:href="#DejaVuSans-37"/>
       <use xlink:href="#DejaVuSans-35" x="63.623047"/>
      </g>
     </g>
    </g>
    <g id="xtick_5">
     <g id="line2d_5">
      <path d="M 260.438987 239.218125 
L 260.438987 22.318125 
" clip-path="url(#p086276caad)" style="fill: none; stroke-dasharray: 3.7,1.6; stroke-dashoffset: 0; stroke: #cccccc; stroke-opacity: 0.3"/>
     </g>
     <g id="text_5">
      <!-- 100 -->
      <g style="fill: #262626" transform="translate(249.940862 257.076406) scale(0.11 -0.11)">
       <defs>
        <path id="DejaVuSans-31" d="M 794 531 
L 1825 531 
L 1825 4091 
L 703 3866 
L 703 4441 
L 1819 4666 
L 2450 4666 
L 2450 531 
L 3481 531 
L 3481 0 
L 794 0 
L 794 531 
z
" transform="scale(0.015625)"/>
       </defs>
       <use xlink:href="#DejaVuSans-31"/>
       <use xlink:href="#DejaVuSans-30" x="63.623047"/>
       <use xlink:href="#DejaVuSans-30" x="127.246094"/>
      </g>
     </g>
    </g>
    <g id="xtick_6">
     <g id="line2d_6">
      <path d="M 305.982547 239.218125 
L 305.982547 22.318125 
" clip-path="url(#p086276caad)" style="fill: none; stroke-dasharray: 3.7,1.6; stroke-dashoffset: 0; stroke: #cccccc; stroke-opacity: 0.3"/>
     </g>
     <g id="text_6">
      <!-- 125 -->
      <g style="fill: #262626" transform="translate(295.484422 257.076406) scale(0.11 -0.11)">
       <use xlink:href="#DejaVuSans-31"/>
       <use xlink:href="#DejaVuSans-32" x="63.623047"/>
       <use xlink:href="#DejaVuSans-35" x="127.246094"/>
      </g>
     </g>
    </g>
    <g id="xtick_7">
     <g id="line2d_7">
      <path d="M 351.526108 239.218125 
L 351.526108 22.318125 
" clip-path="url(#p086276caad)" style="fill: none; stroke-dasharray: 3.7,1.6; stroke-dashoffset: 0; stroke: #cccccc; stroke-opacity: 0.3"/>
     </g>
     <g id="text_7">
      <!-- 150 -->
      <g style="fill: #262626" transform="translate(341.027983 257.076406) scale(0.11 -0.11)">
       <use xlink:href="#DejaVuSans-31"/>
       <use xlink:href="#DejaVuSans-35" x="63.623047"/>
       <use xlink:href="#DejaVuSans-30" x="127.246094"/>
      </g>
     </g>
    </g>
    <g id="xtick_8">
     <g id="line2d_8">
      <path d="M 397.069669 239.218125 
L 397.069669 22.318125 
" clip-path="url(#p086276caad)" style="fill: none; stroke-dasharray: 3.7,1.6; stroke-dashoffset: 0; stroke: #cccccc; stroke-opacity: 0.3"/>
     </g>
     <g id="text_8">
      <!-- 175 -->
      <g style="fill: #262626" transform="translate(386.571544 257.076406) scale(0.11 -0.11)">
       <use xlink:href="#DejaVuSans-31"/>
       <use xlink:href="#DejaVuSans-37" x="63.623047"/>
       <use xlink:href="#DejaVuSans-35" x="127.246094"/>
      </g>
     </g>
    </g>
    <g id="text_9">
     <!-- Эпоха [-] -->
     <g style="fill: #262626" transform="translate(219.084063 270.9625) scale(0.1 -0.1)">
      <defs>
       <path id="DejaVuSans-42d" d="M 347 1019 
Q 1006 428 1806 428 
Q 2631 428 3003 872 
Q 3375 1316 3444 2063 
L 950 2063 
L 950 2594 
L 3444 2594 
Q 3375 3341 3003 3786 
Q 2631 4231 1806 4231 
Q 1006 4231 347 3641 
L 347 4306 
Q 997 4750 1844 4750 
Q 2891 4750 3500 4101 
Q 4109 3453 4109 2331 
Q 4109 1206 3500 557 
Q 2891 -91 1844 -91 
Q 1009 -91 347 359 
L 347 1019 
z
" transform="scale(0.015625)"/>
       <path id="DejaVuSans-43f" d="M 3603 3500 
L 3603 0 
L 3025 0 
L 3025 3041 
L 1159 3041 
L 1159 0 
L 581 0 
L 581 3500 
L 3603 3500 
z
" transform="scale(0.015625)"/>
       <path id="DejaVuSans-43e" d="M 1959 3097 
Q 1497 3097 1228 2736 
Q 959 2375 959 1747 
Q 959 1119 1226 758 
Q 1494 397 1959 397 
Q 2419 397 2687 759 
Q 2956 1122 2956 1747 
Q 2956 2369 2687 2733 
Q 2419 3097 1959 3097 
z
M 1959 3584 
Q 2709 3584 3137 3096 
Q 3566 2609 3566 1747 
Q 3566 888 3137 398 
Q 2709 -91 1959 -91 
Q 1206 -91 779 398 
Q 353 888 353 1747 
Q 353 2609 779 3096 
Q 1206 3584 1959 3584 
z
" transform="scale(0.015625)"/>
       <path id="DejaVuSans-445" d="M 3513 3500 
L 2247 1797 
L 3578 0 
L 2900 0 
L 1881 1375 
L 863 0 
L 184 0 
L 1544 1831 
L 300 3500 
L 978 3500 
L 1906 2253 
L 2834 3500 
L 3513 3500 
z
" transform="scale(0.015625)"/>
       <path id="DejaVuSans-430" d="M 2194 1759 
Q 1497 1759 1228 1600 
Q 959 1441 959 1056 
Q 959 750 1161 570 
Q 1363 391 1709 391 
Q 2188 391 2477 730 
Q 2766 1069 2766 1631 
L 2766 1759 
L 2194 1759 
z
M 3341 1997 
L 3341 0 
L 2766 0 
L 2766 531 
Q 2569 213 2275 61 
Q 1981 -91 1556 -91 
Q 1019 -91 701 211 
Q 384 513 384 1019 
Q 384 1609 779 1909 
Q 1175 2209 1959 2209 
L 2766 2209 
L 2766 2266 
Q 2766 2663 2505 2880 
Q 2244 3097 1772 3097 
Q 1472 3097 1187 3025 
Q 903 2953 641 2809 
L 641 3341 
Q 956 3463 1253 3523 
Q 1550 3584 1831 3584 
Q 2591 3584 2966 3190 
Q 3341 2797 3341 1997 
z
" transform="scale(0.015625)"/>
       <path id="DejaVuSans-20" transform="scale(0.015625)"/>
       <path id="DejaVuSans-5b" d="M 550 4863 
L 1875 4863 
L 1875 4416 
L 1125 4416 
L 1125 -397 
L 1875 -397 
L 1875 -844 
L 550 -844 
L 550 4863 
z
" transform="scale(0.015625)"/>
       <path id="DejaVuSans-2d" d="M 313 2009 
L 1997 2009 
L 1997 1497 
L 313 1497 
L 313 2009 
z
" transform="scale(0.015625)"/>
       <path id="DejaVuSans-5d" d="M 1947 4863 
L 1947 -844 
L 622 -844 
L 622 -397 
L 1369 -397 
L 1369 4416 
L 622 4416 
L 622 4863 
L 1947 4863 
z
" transform="scale(0.015625)"/>
      </defs>
      <use xlink:href="#DejaVuSans-42d"/>
      <use xlink:href="#DejaVuSans-43f" x="69.824219"/>
      <use xlink:href="#DejaVuSans-43e" x="135.205078"/>
      <use xlink:href="#DejaVuSans-445" x="196.386719"/>
      <use xlink:href="#DejaVuSans-430" x="255.566406"/>
      <use xlink:href="#DejaVuSans-20" x="316.845703"/>
      <use xlink:href="#DejaVuSans-5b" x="348.632812"/>
      <use xlink:href="#DejaVuSans-2d" x="387.646484"/>
      <use xlink:href="#DejaVuSans-5d" x="423.730469"/>
     </g>
    </g>
   </g>
   <g id="matplotlib.axis_2">
    <g id="ytick_1">
     <g id="line2d_9">
      <path d="M 61.869063 235.811334 
L 422.574063 235.811334 
" clip-path="url(#p086276caad)" style="fill: none; stroke-dasharray: 3.7,1.6; stroke-dashoffset: 0; stroke: #cccccc; stroke-opacity: 0.3"/>
     </g>
     <g id="text_10">
      <!-- 0.000 -->
      <g style="fill: #262626" transform="translate(20.878125 239.990474) scale(0.11 -0.11)">
       <defs>
        <path id="DejaVuSans-2e" d="M 684 794 
L 1344 794 
L 1344 0 
L 684 0 
L 684 794 
z
" transform="scale(0.015625)"/>
       </defs>
       <use xlink:href="#DejaVuSans-30"/>
       <use xlink:href="#DejaVuSans-2e" x="63.623047"/>
       <use xlink:href="#DejaVuSans-30" x="95.410156"/>
       <use xlink:href="#DejaVuSans-30" x="159.033203"/>
       <use xlink:href="#DejaVuSans-30" x="222.65625"/>
      </g>
     </g>
    </g>
    <g id="ytick_2">
     <g id="line2d_10">
      <path d="M 61.869063 204.200526 
L 422.574063 204.200526 
" clip-path="url(#p086276caad)" style="fill: none; stroke-dasharray: 3.7,1.6; stroke-dashoffset: 0; stroke: #cccccc; stroke-opacity: 0.3"/>
     </g>
     <g id="text_11">
      <!-- 0.001 -->
      <g style="fill: #262626" transform="translate(20.878125 208.379667) scale(0.11 -0.11)">
       <use xlink:href="#DejaVuSans-30"/>
       <use xlink:href="#DejaVuSans-2e" x="63.623047"/>
       <use xlink:href="#DejaVuSans-30" x="95.410156"/>
       <use xlink:href="#DejaVuSans-30" x="159.033203"/>
       <use xlink:href="#DejaVuSans-31" x="222.65625"/>
      </g>
     </g>
    </g>
    <g id="ytick_3">
     <g id="line2d_11">
      <path d="M 61.869063 172.589719 
L 422.574063 172.589719 
" clip-path="url(#p086276caad)" style="fill: none; stroke-dasharray: 3.7,1.6; stroke-dashoffset: 0; stroke: #cccccc; stroke-opacity: 0.3"/>
     </g>
     <g id="text_12">
      <!-- 0.002 -->
      <g style="fill: #262626" transform="translate(20.878125 176.76886) scale(0.11 -0.11)">
       <use xlink:href="#DejaVuSans-30"/>
       <use xlink:href="#DejaVuSans-2e" x="63.623047"/>
       <use xlink:href="#DejaVuSans-30" x="95.410156"/>
       <use xlink:href="#DejaVuSans-30" x="159.033203"/>
       <use xlink:href="#DejaVuSans-32" x="222.65625"/>
      </g>
     </g>
    </g>
    <g id="ytick_4">
     <g id="line2d_12">
      <path d="M 61.869063 140.978912 
L 422.574063 140.978912 
" clip-path="url(#p086276caad)" style="fill: none; stroke-dasharray: 3.7,1.6; stroke-dashoffset: 0; stroke: #cccccc; stroke-opacity: 0.3"/>
     </g>
     <g id="text_13">
      <!-- 0.003 -->
      <g style="fill: #262626" transform="translate(20.878125 145.158052) scale(0.11 -0.11)">
       <defs>
        <path id="DejaVuSans-33" d="M 2597 2516 
Q 3050 2419 3304 2112 
Q 3559 1806 3559 1356 
Q 3559 666 3084 287 
Q 2609 -91 1734 -91 
Q 1441 -91 1130 -33 
Q 819 25 488 141 
L 488 750 
Q 750 597 1062 519 
Q 1375 441 1716 441 
Q 2309 441 2620 675 
Q 2931 909 2931 1356 
Q 2931 1769 2642 2001 
Q 2353 2234 1838 2234 
L 1294 2234 
L 1294 2753 
L 1863 2753 
Q 2328 2753 2575 2939 
Q 2822 3125 2822 3475 
Q 2822 3834 2567 4026 
Q 2313 4219 1838 4219 
Q 1578 4219 1281 4162 
Q 984 4106 628 3988 
L 628 4550 
Q 988 4650 1302 4700 
Q 1616 4750 1894 4750 
Q 2613 4750 3031 4423 
Q 3450 4097 3450 3541 
Q 3450 3153 3228 2886 
Q 3006 2619 2597 2516 
z
" transform="scale(0.015625)"/>
       </defs>
       <use xlink:href="#DejaVuSans-30"/>
       <use xlink:href="#DejaVuSans-2e" x="63.623047"/>
       <use xlink:href="#DejaVuSans-30" x="95.410156"/>
       <use xlink:href="#DejaVuSans-30" x="159.033203"/>
       <use xlink:href="#DejaVuSans-33" x="222.65625"/>
      </g>
     </g>
    </g>
    <g id="ytick_5">
     <g id="line2d_13">
      <path d="M 61.869063 109.368104 
L 422.574063 109.368104 
" clip-path="url(#p086276caad)" style="fill: none; stroke-dasharray: 3.7,1.6; stroke-dashoffset: 0; stroke: #cccccc; stroke-opacity: 0.3"/>
     </g>
     <g id="text_14">
      <!-- 0.004 -->
      <g style="fill: #262626" transform="translate(20.878125 113.547245) scale(0.11 -0.11)">
       <defs>
        <path id="DejaVuSans-34" d="M 2419 4116 
L 825 1625 
L 2419 1625 
L 2419 4116 
z
M 2253 4666 
L 3047 4666 
L 3047 1625 
L 3713 1625 
L 3713 1100 
L 3047 1100 
L 3047 0 
L 2419 0 
L 2419 1100 
L 313 1100 
L 313 1709 
L 2253 4666 
z
" transform="scale(0.015625)"/>
       </defs>
       <use xlink:href="#DejaVuSans-30"/>
       <use xlink:href="#DejaVuSans-2e" x="63.623047"/>
       <use xlink:href="#DejaVuSans-30" x="95.410156"/>
       <use xlink:href="#DejaVuSans-30" x="159.033203"/>
       <use xlink:href="#DejaVuSans-34" x="222.65625"/>
      </g>
     </g>
    </g>
    <g id="ytick_6">
     <g id="line2d_14">
      <path d="M 61.869063 77.757297 
L 422.574063 77.757297 
" clip-path="url(#p086276caad)" style="fill: none; stroke-dasharray: 3.7,1.6; stroke-dashoffset: 0; stroke: #cccccc; stroke-opacity: 0.3"/>
     </g>
     <g id="text_15">
      <!-- 0.005 -->
      <g style="fill: #262626" transform="translate(20.878125 81.936437) scale(0.11 -0.11)">
       <use xlink:href="#DejaVuSans-30"/>
       <use xlink:href="#DejaVuSans-2e" x="63.623047"/>
       <use xlink:href="#DejaVuSans-30" x="95.410156"/>
       <use xlink:href="#DejaVuSans-30" x="159.033203"/>
       <use xlink:href="#DejaVuSans-35" x="222.65625"/>
      </g>
     </g>
    </g>
    <g id="ytick_7">
     <g id="line2d_15">
      <path d="M 61.869063 46.146489 
L 422.574063 46.146489 
" clip-path="url(#p086276caad)" style="fill: none; stroke-dasharray: 3.7,1.6; stroke-dashoffset: 0; stroke: #cccccc; stroke-opacity: 0.3"/>
     </g>
     <g id="text_16">
      <!-- 0.006 -->
      <g style="fill: #262626" transform="translate(20.878125 50.32563) scale(0.11 -0.11)">
       <defs>
        <path id="DejaVuSans-36" d="M 2113 2584 
Q 1688 2584 1439 2293 
Q 1191 2003 1191 1497 
Q 1191 994 1439 701 
Q 1688 409 2113 409 
Q 2538 409 2786 701 
Q 3034 994 3034 1497 
Q 3034 2003 2786 2293 
Q 2538 2584 2113 2584 
z
M 3366 4563 
L 3366 3988 
Q 3128 4100 2886 4159 
Q 2644 4219 2406 4219 
Q 1781 4219 1451 3797 
Q 1122 3375 1075 2522 
Q 1259 2794 1537 2939 
Q 1816 3084 2150 3084 
Q 2853 3084 3261 2657 
Q 3669 2231 3669 1497 
Q 3669 778 3244 343 
Q 2819 -91 2113 -91 
Q 1303 -91 875 529 
Q 447 1150 447 2328 
Q 447 3434 972 4092 
Q 1497 4750 2381 4750 
Q 2619 4750 2861 4703 
Q 3103 4656 3366 4563 
z
" transform="scale(0.015625)"/>
       </defs>
       <use xlink:href="#DejaVuSans-30"/>
       <use xlink:href="#DejaVuSans-2e" x="63.623047"/>
       <use xlink:href="#DejaVuSans-30" x="95.410156"/>
       <use xlink:href="#DejaVuSans-30" x="159.033203"/>
       <use xlink:href="#DejaVuSans-36" x="222.65625"/>
      </g>
     </g>
    </g>
    <g id="text_17">
     <!-- LOSS [кВт·ч] -->
     <g style="fill: #262626" transform="translate(14.798438 163.054062) rotate(-90) scale(0.1 -0.1)">
      <defs>
       <path id="DejaVuSans-4c" d="M 628 4666 
L 1259 4666 
L 1259 531 
L 3531 531 
L 3531 0 
L 628 0 
L 628 4666 
z
" transform="scale(0.015625)"/>
       <path id="DejaVuSans-4f" d="M 2522 4238 
Q 1834 4238 1429 3725 
Q 1025 3213 1025 2328 
Q 1025 1447 1429 934 
Q 1834 422 2522 422 
Q 3209 422 3611 934 
Q 4013 1447 4013 2328 
Q 4013 3213 3611 3725 
Q 3209 4238 2522 4238 
z
M 2522 4750 
Q 3503 4750 4090 4092 
Q 4678 3434 4678 2328 
Q 4678 1225 4090 567 
Q 3503 -91 2522 -91 
Q 1538 -91 948 565 
Q 359 1222 359 2328 
Q 359 3434 948 4092 
Q 1538 4750 2522 4750 
z
" transform="scale(0.015625)"/>
       <path id="DejaVuSans-53" d="M 3425 4513 
L 3425 3897 
Q 3066 4069 2747 4153 
Q 2428 4238 2131 4238 
Q 1616 4238 1336 4038 
Q 1056 3838 1056 3469 
Q 1056 3159 1242 3001 
Q 1428 2844 1947 2747 
L 2328 2669 
Q 3034 2534 3370 2195 
Q 3706 1856 3706 1288 
Q 3706 609 3251 259 
Q 2797 -91 1919 -91 
Q 1588 -91 1214 -16 
Q 841 59 441 206 
L 441 856 
Q 825 641 1194 531 
Q 1563 422 1919 422 
Q 2459 422 2753 634 
Q 3047 847 3047 1241 
Q 3047 1584 2836 1778 
Q 2625 1972 2144 2069 
L 1759 2144 
Q 1053 2284 737 2584 
Q 422 2884 422 3419 
Q 422 4038 858 4394 
Q 1294 4750 2059 4750 
Q 2388 4750 2728 4690 
Q 3069 4631 3425 4513 
z
" transform="scale(0.015625)"/>
       <path id="DejaVuSans-43a" d="M 581 3500 
L 1153 3500 
L 1153 1856 
L 2775 3500 
L 3481 3500 
L 2144 2147 
L 3653 0 
L 3009 0 
L 1769 1766 
L 1153 1141 
L 1153 0 
L 581 0 
L 581 3500 
z
" transform="scale(0.015625)"/>
       <path id="DejaVuSans-412" d="M 1259 2228 
L 1259 519 
L 2272 519 
Q 2781 519 3026 730 
Q 3272 941 3272 1375 
Q 3272 1813 3026 2020 
Q 2781 2228 2272 2228 
L 1259 2228 
z
M 1259 4147 
L 1259 2741 
L 2194 2741 
Q 2656 2741 2882 2914 
Q 3109 3088 3109 3444 
Q 3109 3797 2882 3972 
Q 2656 4147 2194 4147 
L 1259 4147 
z
M 628 4666 
L 2241 4666 
Q 2963 4666 3353 4366 
Q 3744 4066 3744 3513 
Q 3744 3084 3544 2831 
Q 3344 2578 2956 2516 
Q 3422 2416 3680 2098 
Q 3938 1781 3938 1306 
Q 3938 681 3513 340 
Q 3088 0 2303 0 
L 628 0 
L 628 4666 
z
" transform="scale(0.015625)"/>
       <path id="DejaVuSans-442" d="M 188 3500 
L 3541 3500 
L 3541 3041 
L 2147 3041 
L 2147 0 
L 1581 0 
L 1581 3041 
L 188 3041 
L 188 3500 
z
" transform="scale(0.015625)"/>
       <path id="DejaVuSans-b7" d="M 684 2619 
L 1344 2619 
L 1344 1825 
L 684 1825 
L 684 2619 
z
" transform="scale(0.015625)"/>
       <path id="DejaVuSans-447" d="M 2625 0 
L 2625 1472 
L 1553 1472 
Q 1075 1472 756 1769 
Q 469 2038 469 2613 
L 469 3500 
L 1044 3500 
L 1044 2666 
Q 1044 2300 1206 2116 
Q 1372 1931 1697 1931 
L 2625 1931 
L 2625 3500 
L 3200 3500 
L 3200 0 
L 2625 0 
z
" transform="scale(0.015625)"/>
      </defs>
      <use xlink:href="#DejaVuSans-4c"/>
      <use xlink:href="#DejaVuSans-4f" x="52.087891"/>
      <use xlink:href="#DejaVuSans-53" x="130.798828"/>
      <use xlink:href="#DejaVuSans-53" x="194.275391"/>
      <use xlink:href="#DejaVuSans-20" x="257.751953"/>
      <use xlink:href="#DejaVuSans-5b" x="289.539062"/>
      <use xlink:href="#DejaVuSans-43a" x="328.552734"/>
      <use xlink:href="#DejaVuSans-412" x="388.953125"/>
      <use xlink:href="#DejaVuSans-442" x="457.556641"/>
      <use xlink:href="#DejaVuSans-b7" x="515.808594"/>
      <use xlink:href="#DejaVuSans-447" x="547.595703"/>
      <use xlink:href="#DejaVuSans-5d" x="606.677734"/>
     </g>
    </g>
   </g>
   <g id="line2d_16">
    <path d="M 78.264744 32.177216 
L 80.086487 118.984576 
L 81.908229 156.55802 
L 83.729972 177.999143 
L 85.551714 191.647564 
L 87.373456 200.586131 
L 89.195199 206.444124 
L 91.016941 210.332106 
L 92.838684 213.02051 
L 94.660426 215.004775 
L 96.482169 216.547924 
L 98.303911 217.87597 
L 100.125653 218.975317 
L 101.947396 219.879465 
L 103.769138 220.63656 
L 107.412623 221.793403 
L 109.234366 222.297964 
L 116.521335 223.637634 
L 123.808305 224.453984 
L 131.095275 225.1305 
L 143.847472 225.939848 
L 152.956184 226.335548 
L 165.708381 226.774229 
L 185.747547 227.302996 
L 202.143229 227.599378 
L 214.895426 227.786494 
L 231.291108 227.967848 
L 284.121638 228.406555 
L 285.943381 228.72257 
L 293.23035 228.83516 
L 300.51732 228.863795 
L 315.091259 228.922011 
L 322.378229 228.917525 
L 356.991335 229.188745 
L 406.178381 229.332499 
L 406.178381 229.332499 
" clip-path="url(#p086276caad)" style="fill: none; stroke: #0072b2; stroke-width: 1.8; stroke-linecap: round"/>
   </g>
   <g id="line2d_17">
    <path d="M 78.264744 126.284822 
L 80.086487 165.163512 
L 81.908229 187.652171 
L 83.729972 201.620798 
L 85.551714 210.423154 
L 87.373456 216.419525 
L 89.195199 219.509395 
L 91.016941 222.015529 
L 92.838684 223.613578 
L 94.660426 224.35484 
L 96.482169 224.63501 
L 98.303911 225.322658 
L 100.125653 225.461022 
L 101.947396 225.758952 
L 105.590881 225.725776 
L 107.412623 225.803635 
L 109.234366 226.025384 
L 111.056108 225.989142 
L 112.87785 226.066617 
L 114.699593 225.868538 
L 118.343078 226.231013 
L 120.16482 225.914682 
L 121.986563 226.218983 
L 127.45179 226.395513 
L 129.273532 226.249934 
L 131.095275 226.32068 
L 132.917017 226.276861 
L 136.560502 226.547965 
L 142.025729 226.293468 
L 145.669214 226.741621 
L 147.490956 226.467482 
L 149.312699 226.472048 
L 151.134441 226.675864 
L 154.777926 226.773132 
L 160.243153 226.566846 
L 163.886638 226.817086 
L 165.708381 226.64758 
L 167.530123 226.928932 
L 169.351866 226.808531 
L 171.173608 226.879157 
L 172.99535 226.697631 
L 174.817093 226.870927 
L 178.460578 226.805898 
L 183.925805 226.944511 
L 185.747547 226.84111 
L 187.56929 226.933348 
L 191.212775 226.934712 
L 193.034517 227.016619 
L 194.856259 226.898367 
L 196.678002 226.905956 
L 198.499744 227.093465 
L 200.321487 226.967942 
L 202.143229 227.061601 
L 203.964972 226.794895 
L 205.786714 227.095762 
L 209.430199 226.95324 
L 211.251941 227.107225 
L 214.895426 227.039504 
L 216.717169 227.101653 
L 218.538911 226.855157 
L 220.360653 227.156858 
L 222.182396 227.003516 
L 225.825881 227.152785 
L 227.647623 226.993758 
L 231.291108 227.228715 
L 234.934593 227.133236 
L 236.756335 227.069798 
L 240.39982 227.260714 
L 249.508532 227.257253 
L 251.330275 227.307043 
L 253.152017 227.191079 
L 260.438987 227.210657 
L 262.260729 227.416708 
L 265.904214 227.186066 
L 269.547699 227.3475 
L 271.369441 227.146944 
L 273.191184 227.263963 
L 284.121638 227.204846 
L 285.943381 227.469075 
L 291.408608 227.392793 
L 295.052093 227.495519 
L 296.873835 227.363955 
L 298.695578 227.478747 
L 340.595653 227.505217 
L 344.239138 227.551461 
L 347.882623 227.540549 
L 351.526108 227.54645 
L 355.169593 227.508743 
L 406.178381 227.529926 
L 406.178381 227.529926 
" clip-path="url(#p086276caad)" style="fill: none; stroke: #009e73; stroke-width: 1.8; stroke-linecap: round"/>
   </g>
   <g id="patch_3">
    <path d="M 61.869063 239.218125 
L 61.869063 22.318125 
" style="fill: none; stroke: #cccccc; stroke-width: 1.25; stroke-linejoin: miter; stroke-linecap: square"/>
   </g>
   <g id="patch_4">
    <path d="M 61.869063 239.218125 
L 422.574063 239.218125 
" style="fill: none; stroke: #cccccc; stroke-width: 1.25; stroke-linejoin: miter; stroke-linecap: square"/>
   </g>
   <g id="text_18">
    <!-- LSTM — LOSS [кВт·ч] -->
    <g style="fill: #262626" transform="translate(170.663125 16.318125) scale(0.12 -0.12)">
     <defs>
      <path id="DejaVuSans-Bold-4c" d="M 588 4666 
L 1791 4666 
L 1791 909 
L 3903 909 
L 3903 0 
L 588 0 
L 588 4666 
z
" transform="scale(0.015625)"/>
      <path id="DejaVuSans-Bold-53" d="M 3834 4519 
L 3834 3531 
Q 3450 3703 3084 3790 
Q 2719 3878 2394 3878 
Q 1963 3878 1756 3759 
Q 1550 3641 1550 3391 
Q 1550 3203 1689 3098 
Q 1828 2994 2194 2919 
L 2706 2816 
Q 3484 2659 3812 2340 
Q 4141 2022 4141 1434 
Q 4141 663 3683 286 
Q 3225 -91 2284 -91 
Q 1841 -91 1394 -6 
Q 947 78 500 244 
L 500 1259 
Q 947 1022 1364 901 
Q 1781 781 2169 781 
Q 2563 781 2772 912 
Q 2981 1044 2981 1288 
Q 2981 1506 2839 1625 
Q 2697 1744 2272 1838 
L 1806 1941 
Q 1106 2091 782 2419 
Q 459 2747 459 3303 
Q 459 4000 909 4375 
Q 1359 4750 2203 4750 
Q 2588 4750 2994 4692 
Q 3400 4634 3834 4519 
z
" transform="scale(0.015625)"/>
      <path id="DejaVuSans-Bold-54" d="M 31 4666 
L 4331 4666 
L 4331 3756 
L 2784 3756 
L 2784 0 
L 1581 0 
L 1581 3756 
L 31 3756 
L 31 4666 
z
" transform="scale(0.015625)"/>
      <path id="DejaVuSans-Bold-4d" d="M 588 4666 
L 2119 4666 
L 3181 2169 
L 4250 4666 
L 5778 4666 
L 5778 0 
L 4641 0 
L 4641 3413 
L 3566 897 
L 2803 897 
L 1728 3413 
L 1728 0 
L 588 0 
L 588 4666 
z
" transform="scale(0.015625)"/>
      <path id="DejaVuSans-Bold-20" transform="scale(0.015625)"/>
      <path id="DejaVuSans-Bold-2014" d="M 344 2156 
L 6056 2156 
L 6056 1350 
L 344 1350 
L 344 2156 
z
" transform="scale(0.015625)"/>
      <path id="DejaVuSans-Bold-4f" d="M 2719 3878 
Q 2169 3878 1866 3472 
Q 1563 3066 1563 2328 
Q 1563 1594 1866 1187 
Q 2169 781 2719 781 
Q 3272 781 3575 1187 
Q 3878 1594 3878 2328 
Q 3878 3066 3575 3472 
Q 3272 3878 2719 3878 
z
M 2719 4750 
Q 3844 4750 4481 4106 
Q 5119 3463 5119 2328 
Q 5119 1197 4481 553 
Q 3844 -91 2719 -91 
Q 1597 -91 958 553 
Q 319 1197 319 2328 
Q 319 3463 958 4106 
Q 1597 4750 2719 4750 
z
" transform="scale(0.015625)"/>
      <path id="DejaVuSans-Bold-5b" d="M 550 4863 
L 2491 4863 
L 2491 4159 
L 1613 4159 
L 1613 -141 
L 2491 -141 
L 2491 -844 
L 550 -844 
L 550 4863 
z
" transform="scale(0.015625)"/>
      <path id="DejaVuSans-Bold-43a" d="M 538 3500 
L 1656 3500 
L 1656 2316 
L 2903 3500 
L 4128 3500 
L 2634 2078 
L 4250 0 
L 3094 0 
L 1972 1447 
L 1656 1147 
L 1656 0 
L 538 0 
L 538 3500 
z
" transform="scale(0.015625)"/>
      <path id="DejaVuSans-Bold-412" d="M 2456 2859 
Q 2741 2859 2887 2984 
Q 3034 3109 3034 3353 
Q 3034 3594 2887 3720 
Q 2741 3847 2456 3847 
L 1791 3847 
L 1791 2859 
L 2456 2859 
z
M 2497 819 
Q 2859 819 3042 972 
Q 3225 1125 3225 1434 
Q 3225 1738 3044 1889 
Q 2863 2041 2497 2041 
L 1791 2041 
L 1791 819 
L 2497 819 
z
M 3616 2497 
Q 4003 2384 4215 2081 
Q 4428 1778 4428 1338 
Q 4428 663 3972 331 
Q 3516 0 2584 0 
L 588 0 
L 588 4666 
L 2394 4666 
Q 3366 4666 3802 4372 
Q 4238 4078 4238 3431 
Q 4238 3091 4078 2852 
Q 3919 2613 3616 2497 
z
" transform="scale(0.015625)"/>
      <path id="DejaVuSans-Bold-442" d="M 25 3500 
L 3681 3500 
L 3681 2809 
L 2413 2809 
L 2413 0 
L 1297 0 
L 1297 2809 
L 25 2809 
L 25 3500 
z
" transform="scale(0.015625)"/>
      <path id="DejaVuSans-Bold-b7" d="M 653 2828 
L 1778 2828 
L 1778 1619 
L 653 1619 
L 653 2828 
z
" transform="scale(0.015625)"/>
      <path id="DejaVuSans-Bold-447" d="M 2550 0 
L 2550 1353 
L 1400 1353 
Q 931 1353 672 1629 
Q 413 1906 413 2450 
L 413 3500 
L 1531 3500 
L 1531 2878 
Q 1531 2322 1622 2183 
Q 1713 2044 1950 2044 
L 2550 2044 
L 2550 3500 
L 3669 3500 
L 3669 0 
L 2550 0 
z
" transform="scale(0.015625)"/>
      <path id="DejaVuSans-Bold-5d" d="M 2375 -844 
L 434 -844 
L 434 -141 
L 1313 -141 
L 1313 4159 
L 434 4159 
L 434 4863 
L 2375 4863 
L 2375 -844 
z
" transform="scale(0.015625)"/>
     </defs>
     <use xlink:href="#DejaVuSans-Bold-4c"/>
     <use xlink:href="#DejaVuSans-Bold-53" x="63.720703"/>
     <use xlink:href="#DejaVuSans-Bold-54" x="135.742188"/>
     <use xlink:href="#DejaVuSans-Bold-4d" x="203.955078"/>
     <use xlink:href="#DejaVuSans-Bold-20" x="303.466797"/>
     <use xlink:href="#DejaVuSans-Bold-2014" x="338.28125"/>
     <use xlink:href="#DejaVuSans-Bold-20" x="438.28125"/>
     <use xlink:href="#DejaVuSans-Bold-4c" x="473.095703"/>
     <use xlink:href="#DejaVuSans-Bold-4f" x="533.191406"/>
     <use xlink:href="#DejaVuSans-Bold-53" x="618.201172"/>
     <use xlink:href="#DejaVuSans-Bold-53" x="685.722656"/>
     <use xlink:href="#DejaVuSans-Bold-20" x="757.744141"/>
     <use xlink:href="#DejaVuSans-Bold-5b" x="792.558594"/>
     <use xlink:href="#DejaVuSans-Bold-43a" x="838.261719"/>
     <use xlink:href="#DejaVuSans-Bold-412" x="906.132812"/>
     <use xlink:href="#DejaVuSans-Bold-442" x="982.353516"/>
     <use xlink:href="#DejaVuSans-Bold-b7" x="1040.3125"/>
     <use xlink:href="#DejaVuSans-Bold-447" x="1078.300781"/>
     <use xlink:href="#DejaVuSans-Bold-5d" x="1146.953125"/>
    </g>
   </g>
   <g id="legend_1">
    <g id="patch_5">
     <path d="M 321.435938 63.41 
L 414.874063 63.41 
Q 417.074063 63.41 417.074063 61.21 
L 417.074063 30.018125 
Q 417.074063 27.818125 414.874063 27.818125 
L 321.435938 27.818125 
Q 319.235938 27.818125 319.235938 30.018125 
L 319.235938 61.21 
Q 319.235938 63.41 321.435938 63.41 
z
" style="fill: #ffffff; opacity: 0.95; stroke: #cccccc; stroke-linejoin: miter"/>
    </g>
    <g id="line2d_18">
     <path d="M 323.635938 36.726406 
L 334.635938 36.726406 
L 345.635938 36.726406 
" style="fill: none; stroke: #0072b2; stroke-width: 1.8; stroke-linecap: round"/>
    </g>
    <g id="text_19">
     <!-- Train LOSS -->
     <g style="fill: #262626" transform="translate(354.435938 40.576406) scale(0.11 -0.11)">
      <defs>
       <path id="DejaVuSans-54" d="M -19 4666 
L 3928 4666 
L 3928 4134 
L 2272 4134 
L 2272 0 
L 1638 0 
L 1638 4134 
L -19 4134 
L -19 4666 
z
" transform="scale(0.015625)"/>
       <path id="DejaVuSans-72" d="M 2631 2963 
Q 2534 3019 2420 3045 
Q 2306 3072 2169 3072 
Q 1681 3072 1420 2755 
Q 1159 2438 1159 1844 
L 1159 0 
L 581 0 
L 581 3500 
L 1159 3500 
L 1159 2956 
Q 1341 3275 1631 3429 
Q 1922 3584 2338 3584 
Q 2397 3584 2469 3576 
Q 2541 3569 2628 3553 
L 2631 2963 
z
" transform="scale(0.015625)"/>
       <path id="DejaVuSans-61" d="M 2194 1759 
Q 1497 1759 1228 1600 
Q 959 1441 959 1056 
Q 959 750 1161 570 
Q 1363 391 1709 391 
Q 2188 391 2477 730 
Q 2766 1069 2766 1631 
L 2766 1759 
L 2194 1759 
z
M 3341 1997 
L 3341 0 
L 2766 0 
L 2766 531 
Q 2569 213 2275 61 
Q 1981 -91 1556 -91 
Q 1019 -91 701 211 
Q 384 513 384 1019 
Q 384 1609 779 1909 
Q 1175 2209 1959 2209 
L 2766 2209 
L 2766 2266 
Q 2766 2663 2505 2880 
Q 2244 3097 1772 3097 
Q 1472 3097 1187 3025 
Q 903 2953 641 2809 
L 641 3341 
Q 956 3463 1253 3523 
Q 1550 3584 1831 3584 
Q 2591 3584 2966 3190 
Q 3341 2797 3341 1997 
z
" transform="scale(0.015625)"/>
       <path id="DejaVuSans-69" d="M 603 3500 
L 1178 3500 
L 1178 0 
L 603 0 
L 603 3500 
z
M 603 4863 
L 1178 4863 
L 1178 4134 
L 603 4134 
L 603 4863 
z
" transform="scale(0.015625)"/>
       <path id="DejaVuSans-6e" d="M 3513 2113 
L 3513 0 
L 2938 0 
L 2938 2094 
Q 2938 2591 2744 2837 
Q 2550 3084 2163 3084 
Q 1697 3084 1428 2787 
Q 1159 2491 1159 1978 
L 1159 0 
L 581 0 
L 581 3500 
L 1159 3500 
L 1159 2956 
Q 1366 3272 1645 3428 
Q 1925 3584 2291 3584 
Q 2894 3584 3203 3211 
Q 3513 2838 3513 2113 
z
" transform="scale(0.015625)"/>
      </defs>
      <use xlink:href="#DejaVuSans-54"/>
      <use xlink:href="#DejaVuSans-72" x="46.333984"/>
      <use xlink:href="#DejaVuSans-61" x="87.447266"/>
      <use xlink:href="#DejaVuSans-69" x="148.726562"/>
      <use xlink:href="#DejaVuSans-6e" x="176.509766"/>
      <use xlink:href="#DejaVuSans-20" x="239.888672"/>
      <use xlink:href="#DejaVuSans-4c" x="271.675781"/>
      <use xlink:href="#DejaVuSans-4f" x="323.763672"/>
      <use xlink:href="#DejaVuSans-53" x="402.474609"/>
      <use xlink:href="#DejaVuSans-53" x="465.951172"/>
     </g>
    </g>
    <g id="line2d_19">
     <path d="M 323.635938 52.872344 
L 334.635938 52.872344 
L 345.635938 52.872344 
" style="fill: none; stroke: #009e73; stroke-width: 1.8; stroke-linecap: round"/>
    </g>
    <g id="text_20">
     <!-- Val LOSS -->
     <g style="fill: #262626" transform="translate(354.435938 56.722344) scale(0.11 -0.11)">
      <defs>
       <path id="DejaVuSans-56" d="M 1831 0 
L 50 4666 
L 709 4666 
L 2188 738 
L 3669 4666 
L 4325 4666 
L 2547 0 
L 1831 0 
z
" transform="scale(0.015625)"/>
       <path id="DejaVuSans-6c" d="M 603 4863 
L 1178 4863 
L 1178 0 
L 603 0 
L 603 4863 
z
" transform="scale(0.015625)"/>
      </defs>
      <use xlink:href="#DejaVuSans-56"/>
      <use xlink:href="#DejaVuSans-61" x="60.658203"/>
      <use xlink:href="#DejaVuSans-6c" x="121.9375"/>
      <use xlink:href="#DejaVuSans-20" x="149.720703"/>
      <use xlink:href="#DejaVuSans-4c" x="181.507812"/>
      <use xlink:href="#DejaVuSans-4f" x="233.595703"/>
      <use xlink:href="#DejaVuSans-53" x="312.306641"/>
      <use xlink:href="#DejaVuSans-53" x="375.783203"/>
     </g>
    </g>
   </g>
  </g>
  <g id="axes_2">
   <g id="patch_6">
    <path d="M 488.484062 239.218125 
L 849.189063 239.218125 
L 849.189063 22.318125 
L 488.484062 22.318125 
z
" style="fill: #ffffff"/>
   </g>
   <g id="matplotlib.axis_3">
    <g id="xtick_9">
     <g id="line2d_20">
      <path d="M 504.879744 239.218125 
L 504.879744 22.318125 
" clip-path="url(#p28c2e8d95c)" style="fill: none; stroke-dasharray: 3.7,1.6; stroke-dashoffset: 0; stroke: #cccccc; stroke-opacity: 0.3"/>
     </g>
     <g id="text_21">
      <!-- 0 -->
      <g style="fill: #262626" transform="translate(501.380369 257.076406) scale(0.11 -0.11)">
       <use xlink:href="#DejaVuSans-30"/>
      </g>
     </g>
    </g>
    <g id="xtick_10">
     <g id="line2d_21">
      <path d="M 550.423305 239.218125 
L 550.423305 22.318125 
" clip-path="url(#p28c2e8d95c)" style="fill: none; stroke-dasharray: 3.7,1.6; stroke-dashoffset: 0; stroke: #cccccc; stroke-opacity: 0.3"/>
     </g>
     <g id="text_22">
      <!-- 25 -->
      <g style="fill: #262626" transform="translate(543.424555 257.076406) scale(0.11 -0.11)">
       <use xlink:href="#DejaVuSans-32"/>
       <use xlink:href="#DejaVuSans-35" x="63.623047"/>
      </g>
     </g>
    </g>
    <g id="xtick_11">
     <g id="line2d_22">
      <path d="M 595.966866 239.218125 
L 595.966866 22.318125 
" clip-path="url(#p28c2e8d95c)" style="fill: none; stroke-dasharray: 3.7,1.6; stroke-dashoffset: 0; stroke: #cccccc; stroke-opacity: 0.3"/>
     </g>
     <g id="text_23">
      <!-- 50 -->
      <g style="fill: #262626" transform="translate(588.968116 257.076406) scale(0.11 -0.11)">
       <use xlink:href="#DejaVuSans-35"/>
       <use xlink:href="#DejaVuSans-30" x="63.623047"/>
      </g>
     </g>
    </g>
    <g id="xtick_12">
     <g id="line2d_23">
      <path d="M 641.510426 239.218125 
L 641.510426 22.318125 
" clip-path="url(#p28c2e8d95c)" style="fill: none; stroke-dasharray: 3.7,1.6; stroke-dashoffset: 0; stroke: #cccccc; stroke-opacity: 0.3"/>
     </g>
     <g id="text_24">
      <!-- 75 -->
      <g style="fill: #262626" transform="translate(634.511676 257.076406) scale(0.11 -0.11)">
       <use xlink:href="#DejaVuSans-37"/>
       <use xlink:href="#DejaVuSans-35" x="63.623047"/>
      </g>
     </g>
    </g>
    <g id="xtick_13">
     <g id="line2d_24">
      <path d="M 687.053987 239.218125 
L 687.053987 22.318125 
" clip-path="url(#p28c2e8d95c)" style="fill: none; stroke-dasharray: 3.7,1.6; stroke-dashoffset: 0; stroke: #cccccc; stroke-opacity: 0.3"/>
     </g>
     <g id="text_25">
      <!-- 100 -->
      <g style="fill: #262626" transform="translate(676.555862 257.076406) scale(0.11 -0.11)">
       <use xlink:href="#DejaVuSans-31"/>
       <use xlink:href="#DejaVuSans-30" x="63.623047"/>
       <use xlink:href="#DejaVuSans-30" x="127.246094"/>
      </g>
     </g>
    </g>
    <g id="xtick_14">
     <g id="line2d_25">
      <path d="M 732.597547 239.218125 
L 732.597547 22.318125 
" clip-path="url(#p28c2e8d95c)" style="fill: none; stroke-dasharray: 3.7,1.6; stroke-dashoffset: 0; stroke: #cccccc; stroke-opacity: 0.3"/>
     </g>
     <g id="text_26">
      <!-- 125 -->
      <g style="fill: #262626" transform="translate(722.099422 257.076406) scale(0.11 -0.11)">
       <use xlink:href="#DejaVuSans-31"/>
       <use xlink:href="#DejaVuSans-32" x="63.623047"/>
       <use xlink:href="#DejaVuSans-35" x="127.246094"/>
      </g>
     </g>
    </g>
    <g id="xtick_15">
     <g id="line2d_26">
      <path d="M 778.141108 239.218125 
L 778.141108 22.318125 
" clip-path="url(#p28c2e8d95c)" style="fill: none; stroke-dasharray: 3.7,1.6; stroke-dashoffset: 0; stroke: #cccccc; stroke-opacity: 0.3"/>
     </g>
     <g id="text_27">
      <!-- 150 -->
      <g style="fill: #262626" transform="translate(767.642983 257.076406) scale(0.11 -0.11)">
       <use xlink:href="#DejaVuSans-31"/>
       <use xlink:href="#DejaVuSans-35" x="63.623047"/>
       <use xlink:href="#DejaVuSans-30" x="127.246094"/>
      </g>
     </g>
    </g>
    <g id="xtick_16">
     <g id="line2d_27">
      <path d="M 823.684669 239.218125 
L 823.684669 22.318125 
" clip-path="url(#p28c2e8d95c)" style="fill: none; stroke-dasharray: 3.7,1.6; stroke-dashoffset: 0; stroke: #cccccc; stroke-opacity: 0.3"/>
     </g>
     <g id="text_28">
      <!-- 175 -->
      <g style="fill: #262626" transform="translate(813.186544 257.076406) scale(0.11 -0.11)">
       <use xlink:href="#DejaVuSans-31"/>
       <use xlink:href="#DejaVuSans-37" x="63.623047"/>
       <use xlink:href="#DejaVuSans-35" x="127.246094"/>
      </g>
     </g>
    </g>
    <g id="text_29">
     <!-- Эпоха [-] -->
     <g style="fill: #262626" transform="translate(645.699063 270.9625) scale(0.1 -0.1)">
      <use xlink:href="#DejaVuSans-42d"/>
      <use xlink:href="#DejaVuSans-43f" x="69.824219"/>
      <use xlink:href="#DejaVuSans-43e" x="135.205078"/>
      <use xlink:href="#DejaVuSans-445" x="196.386719"/>
      <use xlink:href="#DejaVuSans-430" x="255.566406"/>
      <use xlink:href="#DejaVuSans-20" x="316.845703"/>
      <use xlink:href="#DejaVuSans-5b" x="348.632812"/>
      <use xlink:href="#DejaVuSans-2d" x="387.646484"/>
      <use xlink:href="#DejaVuSans-5d" x="423.730469"/>
     </g>
    </g>
   </g>
   <g id="matplotlib.axis_4">
    <g id="ytick_8">
     <g id="line2d_28">
      <path d="M 488.484062 220.769083 
L 849.189063 220.769083 
" clip-path="url(#p28c2e8d95c)" style="fill: none; stroke-dasharray: 3.7,1.6; stroke-dashoffset: 0; stroke: #cccccc; stroke-opacity: 0.3"/>
     </g>
     <g id="text_30">
      <!-- 0.025 -->
      <g style="fill: #262626" transform="translate(447.493125 224.948224) scale(0.11 -0.11)">
       <use xlink:href="#DejaVuSans-30"/>
       <use xlink:href="#DejaVuSans-2e" x="63.623047"/>
       <use xlink:href="#DejaVuSans-30" x="95.410156"/>
       <use xlink:href="#DejaVuSans-32" x="159.033203"/>
       <use xlink:href="#DejaVuSans-35" x="222.65625"/>
      </g>
     </g>
    </g>
    <g id="ytick_9">
     <g id="line2d_29">
      <path d="M 488.484062 195.090472 
L 849.189063 195.090472 
" clip-path="url(#p28c2e8d95c)" style="fill: none; stroke-dasharray: 3.7,1.6; stroke-dashoffset: 0; stroke: #cccccc; stroke-opacity: 0.3"/>
     </g>
     <g id="text_31">
      <!-- 0.050 -->
      <g style="fill: #262626" transform="translate(447.493125 199.269612) scale(0.11 -0.11)">
       <use xlink:href="#DejaVuSans-30"/>
       <use xlink:href="#DejaVuSans-2e" x="63.623047"/>
       <use xlink:href="#DejaVuSans-30" x="95.410156"/>
       <use xlink:href="#DejaVuSans-35" x="159.033203"/>
       <use xlink:href="#DejaVuSans-30" x="222.65625"/>
      </g>
     </g>
    </g>
    <g id="ytick_10">
     <g id="line2d_30">
      <path d="M 488.484062 169.41186 
L 849.189063 169.41186 
" clip-path="url(#p28c2e8d95c)" style="fill: none; stroke-dasharray: 3.7,1.6; stroke-dashoffset: 0; stroke: #cccccc; stroke-opacity: 0.3"/>
     </g>
     <g id="text_32">
      <!-- 0.075 -->
      <g style="fill: #262626" transform="translate(447.493125 173.591) scale(0.11 -0.11)">
       <use xlink:href="#DejaVuSans-30"/>
       <use xlink:href="#DejaVuSans-2e" x="63.623047"/>
       <use xlink:href="#DejaVuSans-30" x="95.410156"/>
       <use xlink:href="#DejaVuSans-37" x="159.033203"/>
       <use xlink:href="#DejaVuSans-35" x="222.65625"/>
      </g>
     </g>
    </g>
    <g id="ytick_11">
     <g id="line2d_31">
      <path d="M 488.484062 143.733248 
L 849.189063 143.733248 
" clip-path="url(#p28c2e8d95c)" style="fill: none; stroke-dasharray: 3.7,1.6; stroke-dashoffset: 0; stroke: #cccccc; stroke-opacity: 0.3"/>
     </g>
     <g id="text_33">
      <!-- 0.100 -->
      <g style="fill: #262626" transform="translate(447.493125 147.912389) scale(0.11 -0.11)">
       <use xlink:href="#DejaVuSans-30"/>
       <use xlink:href="#DejaVuSans-2e" x="63.623047"/>
       <use xlink:href="#DejaVuSans-31" x="95.410156"/>
       <use xlink:href="#DejaVuSans-30" x="159.033203"/>
       <use xlink:href="#DejaVuSans-30" x="222.65625"/>
      </g>
     </g>
    </g>
    <g id="ytick_12">
     <g id="line2d_32">
      <path d="M 488.484062 118.054636 
L 849.189063 118.054636 
" clip-path="url(#p28c2e8d95c)" style="fill: none; stroke-dasharray: 3.7,1.6; stroke-dashoffset: 0; stroke: #cccccc; stroke-opacity: 0.3"/>
     </g>
     <g id="text_34">
      <!-- 0.125 -->
      <g style="fill: #262626" transform="translate(447.493125 122.233777) scale(0.11 -0.11)">
       <use xlink:href="#DejaVuSans-30"/>
       <use xlink:href="#DejaVuSans-2e" x="63.623047"/>
       <use xlink:href="#DejaVuSans-31" x="95.410156"/>
       <use xlink:href="#DejaVuSans-32" x="159.033203"/>
       <use xlink:href="#DejaVuSans-35" x="222.65625"/>
      </g>
     </g>
    </g>
    <g id="ytick_13">
     <g id="line2d_33">
      <path d="M 488.484062 92.376024 
L 849.189063 92.376024 
" clip-path="url(#p28c2e8d95c)" style="fill: none; stroke-dasharray: 3.7,1.6; stroke-dashoffset: 0; stroke: #cccccc; stroke-opacity: 0.3"/>
     </g>
     <g id="text_35">
      <!-- 0.150 -->
      <g style="fill: #262626" transform="translate(447.493125 96.555165) scale(0.11 -0.11)">
       <use xlink:href="#DejaVuSans-30"/>
       <use xlink:href="#DejaVuSans-2e" x="63.623047"/>
       <use xlink:href="#DejaVuSans-31" x="95.410156"/>
       <use xlink:href="#DejaVuSans-35" x="159.033203"/>
       <use xlink:href="#DejaVuSans-30" x="222.65625"/>
      </g>
     </g>
    </g>
    <g id="ytick_14">
     <g id="line2d_34">
      <path d="M 488.484062 66.697412 
L 849.189063 66.697412 
" clip-path="url(#p28c2e8d95c)" style="fill: none; stroke-dasharray: 3.7,1.6; stroke-dashoffset: 0; stroke: #cccccc; stroke-opacity: 0.3"/>
     </g>
     <g id="text_36">
      <!-- 0.175 -->
      <g style="fill: #262626" transform="translate(447.493125 70.876553) scale(0.11 -0.11)">
       <use xlink:href="#DejaVuSans-30"/>
       <use xlink:href="#DejaVuSans-2e" x="63.623047"/>
       <use xlink:href="#DejaVuSans-31" x="95.410156"/>
       <use xlink:href="#DejaVuSans-37" x="159.033203"/>
       <use xlink:href="#DejaVuSans-35" x="222.65625"/>
      </g>
     </g>
    </g>
    <g id="ytick_15">
     <g id="line2d_35">
      <path d="M 488.484062 41.018801 
L 849.189063 41.018801 
" clip-path="url(#p28c2e8d95c)" style="fill: none; stroke-dasharray: 3.7,1.6; stroke-dashoffset: 0; stroke: #cccccc; stroke-opacity: 0.3"/>
     </g>
     <g id="text_37">
      <!-- 0.200 -->
      <g style="fill: #262626" transform="translate(447.493125 45.197941) scale(0.11 -0.11)">
       <use xlink:href="#DejaVuSans-30"/>
       <use xlink:href="#DejaVuSans-2e" x="63.623047"/>
       <use xlink:href="#DejaVuSans-32" x="95.410156"/>
       <use xlink:href="#DejaVuSans-30" x="159.033203"/>
       <use xlink:href="#DejaVuSans-30" x="222.65625"/>
      </g>
     </g>
    </g>
    <g id="text_38">
     <!-- MAE [кВт·ч] -->
     <g style="fill: #262626" transform="translate(441.413437 161.05875) rotate(-90) scale(0.1 -0.1)">
      <defs>
       <path id="DejaVuSans-4d" d="M 628 4666 
L 1569 4666 
L 2759 1491 
L 3956 4666 
L 4897 4666 
L 4897 0 
L 4281 0 
L 4281 4097 
L 3078 897 
L 2444 897 
L 1241 4097 
L 1241 0 
L 628 0 
L 628 4666 
z
" transform="scale(0.015625)"/>
       <path id="DejaVuSans-41" d="M 2188 4044 
L 1331 1722 
L 3047 1722 
L 2188 4044 
z
M 1831 4666 
L 2547 4666 
L 4325 0 
L 3669 0 
L 3244 1197 
L 1141 1197 
L 716 0 
L 50 0 
L 1831 4666 
z
" transform="scale(0.015625)"/>
       <path id="DejaVuSans-45" d="M 628 4666 
L 3578 4666 
L 3578 4134 
L 1259 4134 
L 1259 2753 
L 3481 2753 
L 3481 2222 
L 1259 2222 
L 1259 531 
L 3634 531 
L 3634 0 
L 628 0 
L 628 4666 
z
" transform="scale(0.015625)"/>
      </defs>
      <use xlink:href="#DejaVuSans-4d"/>
      <use xlink:href="#DejaVuSans-41" x="86.279297"/>
      <use xlink:href="#DejaVuSans-45" x="154.6875"/>
      <use xlink:href="#DejaVuSans-20" x="217.871094"/>
      <use xlink:href="#DejaVuSans-5b" x="249.658203"/>
      <use xlink:href="#DejaVuSans-43a" x="288.671875"/>
      <use xlink:href="#DejaVuSans-412" x="349.072266"/>
      <use xlink:href="#DejaVuSans-442" x="417.675781"/>
      <use xlink:href="#DejaVuSans-b7" x="475.927734"/>
      <use xlink:href="#DejaVuSans-447" x="507.714844"/>
      <use xlink:href="#DejaVuSans-5d" x="566.796875"/>
     </g>
    </g>
   </g>
   <g id="line2d_36">
    <path d="M 504.879744 32.177216 
L 506.701487 130.478596 
L 508.523229 160.96301 
L 510.344972 176.114314 
L 512.166714 185.980562 
L 513.988456 193.035164 
L 515.810199 198.127869 
L 517.631941 201.830782 
L 519.453684 204.624575 
L 521.275426 206.878213 
L 524.918911 210.548453 
L 526.740653 212.114871 
L 528.562396 213.499623 
L 530.384138 214.68948 
L 532.205881 215.690729 
L 535.849366 217.383677 
L 543.136335 219.590661 
L 550.423305 220.92381 
L 555.888532 221.804229 
L 563.175502 222.664347 
L 566.818987 223.006485 
L 570.462472 223.392323 
L 575.927699 223.750326 
L 590.501638 224.707712 
L 610.540805 225.678371 
L 626.936487 226.18198 
L 636.045199 226.424609 
L 650.619138 226.736902 
L 654.262623 226.853534 
L 659.72785 226.91393 
L 667.01482 227.070968 
L 707.093153 227.622115 
L 710.736638 227.658898 
L 712.558381 228.261198 
L 718.023608 228.41208 
L 738.062775 228.556025 
L 743.528002 228.535261 
L 747.171487 228.609205 
L 750.814972 228.60132 
L 754.458456 228.605675 
L 756.280199 228.861983 
L 761.745426 228.978882 
L 769.032396 228.966729 
L 772.675881 228.986055 
L 794.53679 229.207629 
L 807.288987 229.275171 
L 818.219441 229.310852 
L 830.971638 229.346436 
L 832.793381 229.30502 
L 832.793381 229.30502 
" clip-path="url(#p28c2e8d95c)" style="fill: none; stroke: #0072b2; stroke-width: 1.8; stroke-linecap: round"/>
   </g>
   <g id="line2d_37">
    <path d="M 504.879744 162.2635 
L 506.701487 188.398682 
L 508.523229 200.533702 
L 510.344972 207.818531 
L 512.166714 212.663973 
L 513.988456 216.780769 
L 515.810199 218.440088 
L 517.631941 220.56583 
L 519.453684 221.979888 
L 521.275426 222.389513 
L 523.097169 222.263813 
L 524.918911 223.098591 
L 526.740653 223.121117 
L 528.562396 223.553461 
L 532.205881 223.307595 
L 534.027623 223.401579 
L 535.849366 223.770819 
L 537.671108 223.665101 
L 539.49285 223.753133 
L 541.314593 223.387493 
L 543.136335 223.754095 
L 544.958078 223.984405 
L 546.77982 223.364685 
L 548.601562 223.934882 
L 552.245047 223.914305 
L 554.06679 224.196019 
L 555.888532 223.855061 
L 557.710275 223.976569 
L 559.532017 223.862721 
L 563.175502 224.36014 
L 564.997244 224.180109 
L 566.818987 224.246172 
L 568.640729 223.821419 
L 572.284214 224.653748 
L 574.105956 224.121098 
L 575.927699 224.143528 
L 577.749441 224.489331 
L 581.392926 224.653807 
L 586.858153 224.242487 
L 590.501638 224.677075 
L 592.323381 224.356162 
L 594.145123 224.85437 
L 595.966866 224.639607 
L 597.788608 224.768395 
L 599.61035 224.393601 
L 601.432093 224.75779 
L 603.253835 224.560198 
L 605.075578 224.58417 
L 606.89732 224.737028 
L 610.540805 224.847494 
L 612.362547 224.624135 
L 614.18429 224.795028 
L 616.006032 224.699603 
L 619.649517 224.959306 
L 621.471259 224.72503 
L 623.293002 224.707662 
L 625.114744 225.115446 
L 626.936487 224.852304 
L 628.758229 225.000411 
L 630.579972 224.488064 
L 632.401714 225.051666 
L 636.045199 224.771268 
L 637.866941 225.072122 
L 641.510426 224.962009 
L 643.332169 225.067551 
L 645.153911 224.588423 
L 646.975653 225.152209 
L 648.797396 224.850022 
L 650.619138 225.108159 
L 652.440881 225.137653 
L 654.262623 224.811786 
L 656.084366 225.107239 
L 657.906108 225.258206 
L 659.72785 225.053935 
L 661.549593 225.092143 
L 663.371335 224.988972 
L 667.01482 225.297647 
L 668.836563 225.305032 
L 670.658305 225.108415 
L 672.480047 225.078456 
L 677.945275 225.403675 
L 679.767017 225.184903 
L 687.053987 225.220493 
L 688.875729 225.59057 
L 692.519214 225.172529 
L 696.162699 225.471737 
L 697.984441 225.082428 
L 699.806184 225.319503 
L 710.736638 225.16703 
L 712.558381 225.630418 
L 714.380123 225.492845 
L 716.201866 225.582634 
L 718.023608 225.442694 
L 721.667093 225.651551 
L 723.488835 225.375947 
L 725.310578 225.61949 
L 730.775805 225.620406 
L 732.597547 225.730833 
L 736.241032 225.421802 
L 741.706259 225.709885 
L 745.349744 225.522027 
L 748.993229 225.639779 
L 750.814972 225.496926 
L 761.745426 225.700355 
L 763.567169 225.597809 
L 765.388911 225.649118 
L 767.210653 225.587773 
L 769.032396 225.700308 
L 787.24982 225.48345 
L 789.071563 225.620743 
L 809.110729 225.609895 
L 814.575956 225.597448 
L 816.397699 225.539881 
L 820.041184 225.617933 
L 829.149896 225.579326 
L 830.971638 225.643034 
L 832.793381 225.588655 
L 832.793381 225.588655 
" clip-path="url(#p28c2e8d95c)" style="fill: none; stroke: #009e73; stroke-width: 1.8; stroke-linecap: round"/>
   </g>
   <g id="patch_7">
    <path d="M 488.484062 239.218125 
L 488.484062 22.318125 
" style="fill: none; stroke: #cccccc; stroke-width: 1.25; stroke-linejoin: miter; stroke-linecap: square"/>
   </g>
   <g id="patch_8">
    <path d="M 488.484062 239.218125 
L 849.189063 239.218125 
" style="fill: none; stroke: #cccccc; stroke-width: 1.25; stroke-linejoin: miter; stroke-linecap: square"/>
   </g>
   <g id="text_39">
    <!-- LSTM — MAE [кВт·ч] -->
    <g style="fill: #262626" transform="translate(599.643438 16.318125) scale(0.12 -0.12)">
     <defs>
      <path id="DejaVuSans-Bold-41" d="M 3419 850 
L 1538 850 
L 1241 0 
L 31 0 
L 1759 4666 
L 3194 4666 
L 4922 0 
L 3713 0 
L 3419 850 
z
M 1838 1716 
L 3116 1716 
L 2478 3572 
L 1838 1716 
z
" transform="scale(0.015625)"/>
      <path id="DejaVuSans-Bold-45" d="M 588 4666 
L 3834 4666 
L 3834 3756 
L 1791 3756 
L 1791 2888 
L 3713 2888 
L 3713 1978 
L 1791 1978 
L 1791 909 
L 3903 909 
L 3903 0 
L 588 0 
L 588 4666 
z
" transform="scale(0.015625)"/>
     </defs>
     <use xlink:href="#DejaVuSans-Bold-4c"/>
     <use xlink:href="#DejaVuSans-Bold-53" x="63.720703"/>
     <use xlink:href="#DejaVuSans-Bold-54" x="135.742188"/>
     <use xlink:href="#DejaVuSans-Bold-4d" x="203.955078"/>
     <use xlink:href="#DejaVuSans-Bold-20" x="303.466797"/>
     <use xlink:href="#DejaVuSans-Bold-2014" x="338.28125"/>
     <use xlink:href="#DejaVuSans-Bold-20" x="438.28125"/>
     <use xlink:href="#DejaVuSans-Bold-4d" x="473.095703"/>
     <use xlink:href="#DejaVuSans-Bold-41" x="572.607422"/>
     <use xlink:href="#DejaVuSans-Bold-45" x="650"/>
     <use xlink:href="#DejaVuSans-Bold-20" x="718.310547"/>
     <use xlink:href="#DejaVuSans-Bold-5b" x="753.125"/>
     <use xlink:href="#DejaVuSans-Bold-43a" x="798.828125"/>
     <use xlink:href="#DejaVuSans-Bold-412" x="866.699219"/>
     <use xlink:href="#DejaVuSans-Bold-442" x="942.919922"/>
     <use xlink:href="#DejaVuSans-Bold-b7" x="1000.878906"/>
     <use xlink:href="#DejaVuSans-Bold-447" x="1038.867188"/>
     <use xlink:href="#DejaVuSans-Bold-5d" x="1107.519531"/>
    </g>
   </g>
   <g id="legend_2">
    <g id="patch_9">
     <path d="M 752.440625 63.41 
L 841.489063 63.41 
Q 843.689063 63.41 843.689063 61.21 
L 843.689063 30.018125 
Q 843.689063 27.818125 841.489063 27.818125 
L 752.440625 27.818125 
Q 750.240625 27.818125 750.240625 30.018125 
L 750.240625 61.21 
Q 750.240625 63.41 752.440625 63.41 
z
" style="fill: #ffffff; opacity: 0.95; stroke: #cccccc; stroke-linejoin: miter"/>
    </g>
    <g id="line2d_38">
     <path d="M 754.640625 36.726406 
L 765.640625 36.726406 
L 776.640625 36.726406 
" style="fill: none; stroke: #0072b2; stroke-width: 1.8; stroke-linecap: round"/>
    </g>
    <g id="text_40">
     <!-- Train MAE -->
     <g style="fill: #262626" transform="translate(785.440625 40.576406) scale(0.11 -0.11)">
      <use xlink:href="#DejaVuSans-54"/>
      <use xlink:href="#DejaVuSans-72" x="46.333984"/>
      <use xlink:href="#DejaVuSans-61" x="87.447266"/>
      <use xlink:href="#DejaVuSans-69" x="148.726562"/>
      <use xlink:href="#DejaVuSans-6e" x="176.509766"/>
      <use xlink:href="#DejaVuSans-20" x="239.888672"/>
      <use xlink:href="#DejaVuSans-4d" x="271.675781"/>
      <use xlink:href="#DejaVuSans-41" x="357.955078"/>
      <use xlink:href="#DejaVuSans-45" x="426.363281"/>
     </g>
    </g>
    <g id="line2d_39">
     <path d="M 754.640625 52.872344 
L 765.640625 52.872344 
L 776.640625 52.872344 
" style="fill: none; stroke: #009e73; stroke-width: 1.8; stroke-linecap: round"/>
    </g>
    <g id="text_41">
     <!-- Val MAE -->
     <g style="fill: #262626" transform="translate(785.440625 56.722344) scale(0.11 -0.11)">
      <use xlink:href="#DejaVuSans-56"/>
      <use xlink:href="#DejaVuSans-61" x="60.658203"/>
      <use xlink:href="#DejaVuSans-6c" x="121.9375"/>
      <use xlink:href="#DejaVuSans-20" x="149.720703"/>
      <use xlink:href="#DejaVuSans-4d" x="181.507812"/>
      <use xlink:href="#DejaVuSans-41" x="267.787109"/>
      <use xlink:href="#DejaVuSans-45" x="336.195312"/>
     </g>
    </g>
   </g>
  </g>
 </g>
 <defs>
  <clipPath id="p086276caad">
   <rect x="61.869063" y="22.318125" width="360.705" height="216.9"/>
  </clipPath>
  <clipPath id="p28c2e8d95c">
   <rect x="488.484062" y="22.318125" width="360.705" height="216.9"/>
  </clipPath>
 </defs>
</svg>
