<?xml version="1.0" encoding="utf-8" standalone="no"?>
<!DOCTYPE svg PUBLIC "-//W3C//DTD SVG 1.1//EN"
  "http://www.w3.org/Graphics/SVG/1.1/DTD/svg11.dtd">
<svg xmlns:xlink="http://www.w3.org/1999/xlink" width="1288.376562pt" height="280.242187pt" viewBox="0 0 1288.376562 280.242187" xmlns="http://www.w3.org/2000/svg" version="1.1">
 <metadata>
  <rdf:RDF xmlns:dc="http://purl.org/dc/elements/1.1/" xmlns:cc="http://creativecommons.org/ns#" xmlns:rdf="http://www.w3.org/1999/02/22-rdf-syntax-ns#">
   <cc:Work>
    <dc:type rdf:resource="http://purl.org/dc/dcmitype/StillImage"/>
    <dc:date>2026-04-11T12:46:24.600327</dc:date>
    <dc:format>image/svg+xml</dc:format>
    <dc:creator>
     <cc:Agent>
      <dc:title>Matplotlib v3.9.0, https://matplotlib.org/</dc:title>
     </cc:Agent>
    </dc:creator>
   </cc:Work>
  </rdf:RDF>
 </metadata>
 <defs>
  <style type="text/css">*{stroke-linejoin: round; stroke-linecap: butt}</style>
 </defs>
 <g id="figure_1">
  <g id="patch_1">
   <path d="M 0 280.242187 
L 1288.376562 280.242187 
L 1288.376562 0 
L 0 0 
z
" style="fill: #ffffff"/>
  </g>
  <g id="axes_1">
   <g id="patch_2">
    <path d="M 75.866563 239.218125 
L 431.396562 239.218125 
L 431.396562 22.318125 
L 75.866563 22.318125 
z
" style="fill: #ffffff"/>
   </g>
   <g id="matplotlib.axis_1">
    <g id="xtick_1">
     <g id="line2d_1">
      <path d="M 92.027017 239.218125 
L 92.027017 22.318125 
" clip-path="url(#p4139cc3115)" style="fill: none; stroke-dasharray: 3.7,1.6; stroke-dashoffset: 0; stroke: #cccccc; stroke-opacity: 0.3"/>
     </g>
     <g id="text_1">
      <!-- 0 -->
      <g style="fill: #262626" transform="translate(88.527642 257.076406) scale(0.11 -0.11)">
       <defs>
        <path id="DejaVuSans-30" d="M 2034 4250 
Q 1547 4250 1301 3770 
Q 1056 3291 1056 2328 
Q 1056 1369 1301 889 
Q 1547 409 2034 409 
Q 2525 409 2770 889 
Q 3016 1369 3016 2328 
Q 3016 3291 2770 3770 
Q 2525 4250 2034 4250 
z
M 2034 4750 
Q 2819 4750 3233 4129 
Q 3647 3509 3647 2328 
Q 3647 1150 3233 529 
Q 2819 -91 2034 -91 
Q 1250 -91 836 529 
Q 422 1150 422 2328 
Q 422 3509 836 4129 
Q 1250 4750 2034 4750 
z
" transform="scale(0.015625)"/>
       </defs>
       <use xlink:href="#DejaVuSans-30"/>
      </g>
     </g>
    </g>
    <g id="xtick_2">
     <g id="line2d_2">
      <path d="M 168.981562 239.218125 
L 168.981562 22.318125 
" clip-path="url(#p4139cc3115)" style="fill: none; stroke-dasharray: 3.7,1.6; stroke-dashoffset: 0; stroke: #cccccc; stroke-opacity: 0.3"/>
     </g>
     <g id="text_2">
      <!-- 10 -->
      <g style="fill: #262626" transform="translate(161.982812 257.076406) scale(0.11 -0.11)">
       <defs>
        <path id="DejaVuSans-31" d="M 794 531 
L 1825 531 
L 1825 4091 
L 703 3866 
L 703 4441 
L 1819 4666 
L 2450 4666 
L 2450 531 
L 3481 531 
L 3481 0 
L 794 0 
L 794 531 
z
" transform="scale(0.015625)"/>
       </defs>
       <use xlink:href="#DejaVuSans-31"/>
       <use xlink:href="#DejaVuSans-30" x="63.623047"/>
      </g>
     </g>
    </g>
    <g id="xtick_3">
     <g id="line2d_3">
      <path d="M 245.936108 239.218125 
L 245.936108 22.318125 
" clip-path="url(#p4139cc3115)" style="fill: none; stroke-dasharray: 3.7,1.6; stroke-dashoffset: 0; stroke: #cccccc; stroke-opacity: 0.3"/>
     </g>
     <g id="text_3">
      <!-- 20 -->
      <g style="fill: #262626" transform="translate(238.937358 257.076406) scale(0.11 -0.11)">
       <defs>
        <path id="DejaVuSans-32" d="M 1228 531 
L 3431 531 
L 3431 0 
L 469 0 
L 469 531 
Q 828 903 1448 1529 
Q 2069 2156 2228 2338 
Q 2531 2678 2651 2914 
Q 2772 3150 2772 3378 
Q 2772 3750 2511 3984 
Q 2250 4219 1831 4219 
Q 1534 4219 1204 4116 
Q 875 4013 500 3803 
L 500 4441 
Q 881 4594 1212 4672 
Q 1544 4750 1819 4750 
Q 2544 4750 2975 4387 
Q 3406 4025 3406 3419 
Q 3406 3131 3298 2873 
Q 3191 2616 2906 2266 
Q 2828 2175 2409 1742 
Q 1991 1309 1228 531 
z
" transform="scale(0.015625)"/>
       </defs>
       <use xlink:href="#DejaVuSans-32"/>
       <use xlink:href="#DejaVuSans-30" x="63.623047"/>
      </g>
     </g>
    </g>
    <g id="xtick_4">
     <g id="line2d_4">
      <path d="M 322.890653 239.218125 
L 322.890653 22.318125 
" clip-path="url(#p4139cc3115)" style="fill: none; stroke-dasharray: 3.7,1.6; stroke-dashoffset: 0; stroke: #cccccc; stroke-opacity: 0.3"/>
     </g>
     <g id="text_4">
      <!-- 30 -->
      <g style="fill: #262626" transform="translate(315.891903 257.076406) scale(0.11 -0.11)">
       <defs>
        <path id="DejaVuSans-33" d="M 2597 2516 
Q 3050 2419 3304 2112 
Q 3559 1806 3559 1356 
Q 3559 666 3084 287 
Q 2609 -91 1734 -91 
Q 1441 -91 1130 -33 
Q 819 25 488 141 
L 488 750 
Q 750 597 1062 519 
Q 1375 441 1716 441 
Q 2309 441 2620 675 
Q 2931 909 2931 1356 
Q 2931 1769 2642 2001 
Q 2353 2234 1838 2234 
L 1294 2234 
L 1294 2753 
L 1863 2753 
Q 2328 2753 2575 2939 
Q 2822 3125 2822 3475 
Q 2822 3834 2567 4026 
Q 2313 4219 1838 4219 
Q 1578 4219 1281 4162 
Q 984 4106 628 3988 
L 628 4550 
Q 988 4650 1302 4700 
Q 1616 4750 1894 4750 
Q 2613 4750 3031 4423 
Q 3450 4097 3450 3541 
Q 3450 3153 3228 2886 
Q 3006 2619 2597 2516 
z
" transform="scale(0.015625)"/>
       </defs>
       <use xlink:href="#DejaVuSans-33"/>
       <use xlink:href="#DejaVuSans-30" x="63.623047"/>
      </g>
     </g>
    </g>
    <g id="xtick_5">
     <g id="line2d_5">
      <path d="M 399.845199 239.218125 
L 399.845199 22.318125 
" clip-path="url(#p4139cc3115)" style="fill: none; stroke-dasharray: 3.7,1.6; stroke-dashoffset: 0; stroke: #cccccc; stroke-opacity: 0.3"/>
     </g>
     <g id="text_5">
      <!-- 40 -->
      <g style="fill: #262626" transform="translate(392.846449 257.076406) scale(0.11 -0.11)">
       <defs>
        <path id="DejaVuSans-34" d="M 2419 4116 
L 825 1625 
L 2419 1625 
L 2419 4116 
z
M 2253 4666 
L 3047 4666 
L 3047 1625 
L 3713 1625 
L 3713 1100 
L 3047 1100 
L 3047 0 
L 2419 0 
L 2419 1100 
L 313 1100 
L 313 1709 
L 2253 4666 
z
" transform="scale(0.015625)"/>
       </defs>
       <use xlink:href="#DejaVuSans-34"/>
       <use xlink:href="#DejaVuSans-30" x="63.623047"/>
      </g>
     </g>
    </g>
    <g id="text_6">
     <!-- Эпоха [-] -->
     <g style="fill: #262626" transform="translate(230.494062 270.9625) scale(0.1 -0.1)">
      <defs>
       <path id="DejaVuSans-42d" d="M 347 1019 
Q 1006 428 1806 428 
Q 2631 428 3003 872 
Q 3375 1316 3444 2063 
L 950 2063 
L 950 2594 
L 3444 2594 
Q 3375 3341 3003 3786 
Q 2631 4231 1806 4231 
Q 1006 4231 347 3641 
L 347 4306 
Q 997 4750 1844 4750 
Q 2891 4750 3500 4101 
Q 4109 3453 4109 2331 
Q 4109 1206 3500 557 
Q 2891 -91 1844 -91 
Q 1009 -91 347 359 
L 347 1019 
z
" transform="scale(0.015625)"/>
       <path id="DejaVuSans-43f" d="M 3603 3500 
L 3603 0 
L 3025 0 
L 3025 3041 
L 1159 3041 
L 1159 0 
L 581 0 
L 581 3500 
L 3603 3500 
z
" transform="scale(0.015625)"/>
       <path id="DejaVuSans-43e" d="M 1959 3097 
Q 1497 3097 1228 2736 
Q 959 2375 959 1747 
Q 959 1119 1226 758 
Q 1494 397 1959 397 
Q 2419 397 2687 759 
Q 2956 1122 2956 1747 
Q 2956 2369 2687 2733 
Q 2419 3097 1959 3097 
z
M 1959 3584 
Q 2709 3584 3137 3096 
Q 3566 2609 3566 1747 
Q 3566 888 3137 398 
Q 2709 -91 1959 -91 
Q 1206 -91 779 398 
Q 353 888 353 1747 
Q 353 2609 779 3096 
Q 1206 3584 1959 3584 
z
" transform="scale(0.015625)"/>
       <path id="DejaVuSans-445" d="M 3513 3500 
L 2247 1797 
L 3578 0 
L 2900 0 
L 1881 1375 
L 863 0 
L 184 0 
L 1544 1831 
L 300 3500 
L 978 3500 
L 1906 2253 
L 2834 3500 
L 3513 3500 
z
" transform="scale(0.015625)"/>
       <path id="DejaVuSans-430" d="M 2194 1759 
Q 1497 1759 1228 1600 
Q 959 1441 959 1056 
Q 959 750 1161 570 
Q 1363 391 1709 391 
Q 2188 391 2477 730 
Q 2766 1069 2766 1631 
L 2766 1759 
L 2194 1759 
z
M 3341 1997 
L 3341 0 
L 2766 0 
L 2766 531 
Q 2569 213 2275 61 
Q 1981 -91 1556 -91 
Q 1019 -91 701 211 
Q 384 513 384 1019 
Q 384 1609 779 1909 
Q 1175 2209 1959 2209 
L 2766 2209 
L 2766 2266 
Q 2766 2663 2505 2880 
Q 2244 3097 1772 3097 
Q 1472 3097 1187 3025 
Q 903 2953 641 2809 
L 641 3341 
Q 956 3463 1253 3523 
Q 1550 3584 1831 3584 
Q 2591 3584 2966 3190 
Q 3341 2797 3341 1997 
z
" transform="scale(0.015625)"/>
       <path id="DejaVuSans-20" transform="scale(0.015625)"/>
       <path id="DejaVuSans-5b" d="M 550 4863 
L 1875 4863 
L 1875 4416 
L 1125 4416 
L 1125 -397 
L 1875 -397 
L 1875 -844 
L 550 -844 
L 550 4863 
z
" transform="scale(0.015625)"/>
       <path id="DejaVuSans-2d" d="M 313 2009 
L 1997 2009 
L 1997 1497 
L 313 1497 
L 313 2009 
z
" transform="scale(0.015625)"/>
       <path id="DejaVuSans-5d" d="M 1947 4863 
L 1947 -844 
L 622 -844 
L 622 -397 
L 1369 -397 
L 1369 4416 
L 622 4416 
L 622 4863 
L 1947 4863 
z
" transform="scale(0.015625)"/>
      </defs>
      <use xlink:href="#DejaVuSans-42d"/>
      <use xlink:href="#DejaVuSans-43f" x="69.824219"/>
      <use xlink:href="#DejaVuSans-43e" x="135.205078"/>
      <use xlink:href="#DejaVuSans-445" x="196.386719"/>
      <use xlink:href="#DejaVuSans-430" x="255.566406"/>
      <use xlink:href="#DejaVuSans-20" x="316.845703"/>
      <use xlink:href="#DejaVuSans-5b" x="348.632812"/>
      <use xlink:href="#DejaVuSans-2d" x="387.646484"/>
      <use xlink:href="#DejaVuSans-5d" x="423.730469"/>
     </g>
    </g>
   </g>
   <g id="matplotlib.axis_2">
    <g id="ytick_1">
     <g id="line2d_6">
      <path d="M 75.866563 226.708579 
L 431.396562 226.708579 
" clip-path="url(#p4139cc3115)" style="fill: none; stroke-dasharray: 3.7,1.6; stroke-dashoffset: 0; stroke: #cccccc; stroke-opacity: 0.3"/>
     </g>
     <g id="text_7">
      <!-- 0.00025 -->
      <g style="fill: #262626" transform="translate(20.878125 230.88772) scale(0.11 -0.11)">
       <defs>
        <path id="DejaVuSans-2e" d="M 684 794 
L 1344 794 
L 1344 0 
L 684 0 
L 684 794 
z
" transform="scale(0.015625)"/>
        <path id="DejaVuSans-35" d="M 691 4666 
L 3169 4666 
L 3169 4134 
L 1269 4134 
L 1269 2991 
Q 1406 3038 1543 3061 
Q 1681 3084 1819 3084 
Q 2600 3084 3056 2656 
Q 3513 2228 3513 1497 
Q 3513 744 3044 326 
Q 2575 -91 1722 -91 
Q 1428 -91 1123 -41 
Q 819 9 494 109 
L 494 744 
Q 775 591 1075 516 
Q 1375 441 1709 441 
Q 2250 441 2565 725 
Q 2881 1009 2881 1497 
Q 2881 1984 2565 2268 
Q 2250 2553 1709 2553 
Q 1456 2553 1204 2497 
Q 953 2441 691 2322 
L 691 4666 
z
" transform="scale(0.015625)"/>
       </defs>
       <use xlink:href="#DejaVuSans-30"/>
       <use xlink:href="#DejaVuSans-2e" x="63.623047"/>
       <use xlink:href="#DejaVuSans-30" x="95.410156"/>
       <use xlink:href="#DejaVuSans-30" x="159.033203"/>
       <use xlink:href="#DejaVuSans-30" x="222.65625"/>
       <use xlink:href="#DejaVuSans-32" x="286.279297"/>
       <use xlink:href="#DejaVuSans-35" x="349.902344"/>
      </g>
     </g>
    </g>
    <g id="ytick_2">
     <g id="line2d_7">
      <path d="M 75.866563 197.224181 
L 431.396562 197.224181 
" clip-path="url(#p4139cc3115)" style="fill: none; stroke-dasharray: 3.7,1.6; stroke-dashoffset: 0; stroke: #cccccc; stroke-opacity: 0.3"/>
     </g>
     <g id="text_8">
      <!-- 0.00050 -->
      <g style="fill: #262626" transform="translate(20.878125 201.403321) scale(0.11 -0.11)">
       <use xlink:href="#DejaVuSans-30"/>
       <use xlink:href="#DejaVuSans-2e" x="63.623047"/>
       <use xlink:href="#DejaVuSans-30" x="95.410156"/>
       <use xlink:href="#DejaVuSans-30" x="159.033203"/>
       <use xlink:href="#DejaVuSans-30" x="222.65625"/>
       <use xlink:href="#DejaVuSans-35" x="286.279297"/>
       <use xlink:href="#DejaVuSans-30" x="349.902344"/>
      </g>
     </g>
    </g>
    <g id="ytick_3">
     <g id="line2d_8">
      <path d="M 75.866563 167.739782 
L 431.396562 167.739782 
" clip-path="url(#p4139cc3115)" style="fill: none; stroke-dasharray: 3.7,1.6; stroke-dashoffset: 0; stroke: #cccccc; stroke-opacity: 0.3"/>
     </g>
     <g id="text_9">
      <!-- 0.00075 -->
      <g style="fill: #262626" transform="translate(20.878125 171.918923) scale(0.11 -0.11)">
       <defs>
        <path id="DejaVuSans-37" d="M 525 4666 
L 3525 4666 
L 3525 4397 
L 1831 0 
L 1172 0 
L 2766 4134 
L 525 4134 
L 525 4666 
z
" transform="scale(0.015625)"/>
       </defs>
       <use xlink:href="#DejaVuSans-30"/>
       <use xlink:href="#DejaVuSans-2e" x="63.623047"/>
       <use xlink:href="#DejaVuSans-30" x="95.410156"/>
       <use xlink:href="#DejaVuSans-30" x="159.033203"/>
       <use xlink:href="#DejaVuSans-30" x="222.65625"/>
       <use xlink:href="#DejaVuSans-37" x="286.279297"/>
       <use xlink:href="#DejaVuSans-35" x="349.902344"/>
      </g>
     </g>
    </g>
    <g id="ytick_4">
     <g id="line2d_9">
      <path d="M 75.866563 138.255384 
L 431.396562 138.255384 
" clip-path="url(#p4139cc3115)" style="fill: none; stroke-dasharray: 3.7,1.6; stroke-dashoffset: 0; stroke: #cccccc; stroke-opacity: 0.3"/>
     </g>
     <g id="text_10">
      <!-- 0.00100 -->
      <g style="fill: #262626" transform="translate(20.878125 142.434525) scale(0.11 -0.11)">
       <use xlink:href="#DejaVuSans-30"/>
       <use xlink:href="#DejaVuSans-2e" x="63.623047"/>
       <use xlink:href="#DejaVuSans-30" x="95.410156"/>
       <use xlink:href="#DejaVuSans-30" x="159.033203"/>
       <use xlink:href="#DejaVuSans-31" x="222.65625"/>
       <use xlink:href="#DejaVuSans-30" x="286.279297"/>
       <use xlink:href="#DejaVuSans-30" x="349.902344"/>
      </g>
     </g>
    </g>
    <g id="ytick_5">
     <g id="line2d_10">
      <path d="M 75.866563 108.770986 
L 431.396562 108.770986 
" clip-path="url(#p4139cc3115)" style="fill: none; stroke-dasharray: 3.7,1.6; stroke-dashoffset: 0; stroke: #cccccc; stroke-opacity: 0.3"/>
     </g>
     <g id="text_11">
      <!-- 0.00125 -->
      <g style="fill: #262626" transform="translate(20.878125 112.950126) scale(0.11 -0.11)">
       <use xlink:href="#DejaVuSans-30"/>
       <use xlink:href="#DejaVuSans-2e" x="63.623047"/>
       <use xlink:href="#DejaVuSans-30" x="95.410156"/>
       <use xlink:href="#DejaVuSans-30" x="159.033203"/>
       <use xlink:href="#DejaVuSans-31" x="222.65625"/>
       <use xlink:href="#DejaVuSans-32" x="286.279297"/>
       <use xlink:href="#DejaVuSans-35" x="349.902344"/>
      </g>
     </g>
    </g>
    <g id="ytick_6">
     <g id="line2d_11">
      <path d="M 75.866563 79.286588 
L 431.396562 79.286588 
" clip-path="url(#p4139cc3115)" style="fill: none; stroke-dasharray: 3.7,1.6; stroke-dashoffset: 0; stroke: #cccccc; stroke-opacity: 0.3"/>
     </g>
     <g id="text_12">
      <!-- 0.00150 -->
      <g style="fill: #262626" transform="translate(20.878125 83.465728) scale(0.11 -0.11)">
       <use xlink:href="#DejaVuSans-30"/>
       <use xlink:href="#DejaVuSans-2e" x="63.623047"/>
       <use xlink:href="#DejaVuSans-30" x="95.410156"/>
       <use xlink:href="#DejaVuSans-30" x="159.033203"/>
       <use xlink:href="#DejaVuSans-31" x="222.65625"/>
       <use xlink:href="#DejaVuSans-35" x="286.279297"/>
       <use xlink:href="#DejaVuSans-30" x="349.902344"/>
      </g>
     </g>
    </g>
    <g id="ytick_7">
     <g id="line2d_12">
      <path d="M 75.866563 49.802189 
L 431.396562 49.802189 
" clip-path="url(#p4139cc3115)" style="fill: none; stroke-dasharray: 3.7,1.6; stroke-dashoffset: 0; stroke: #cccccc; stroke-opacity: 0.3"/>
     </g>
     <g id="text_13">
      <!-- 0.00175 -->
      <g style="fill: #262626" transform="translate(20.878125 53.98133) scale(0.11 -0.11)">
       <use xlink:href="#DejaVuSans-30"/>
       <use xlink:href="#DejaVuSans-2e" x="63.623047"/>
       <use xlink:href="#DejaVuSans-30" x="95.410156"/>
       <use xlink:href="#DejaVuSans-30" x="159.033203"/>
       <use xlink:href="#DejaVuSans-31" x="222.65625"/>
       <use xlink:href="#DejaVuSans-37" x="286.279297"/>
       <use xlink:href="#DejaVuSans-35" x="349.902344"/>
      </g>
     </g>
    </g>
    <g id="text_14">
     <!-- LOSS [кВт·ч] -->
     <g style="fill: #262626" transform="translate(14.798438 163.054062) rotate(-90) scale(0.1 -0.1)">
      <defs>
       <path id="DejaVuSans-4c" d="M 628 4666 
L 1259 4666 
L 1259 531 
L 3531 531 
L 3531 0 
L 628 0 
L 628 4666 
z
" transform="scale(0.015625)"/>
       <path id="DejaVuSans-4f" d="M 2522 4238 
Q 1834 4238 1429 3725 
Q 1025 3213 1025 2328 
Q 1025 1447 1429 934 
Q 1834 422 2522 422 
Q 3209 422 3611 934 
Q 4013 1447 4013 2328 
Q 4013 3213 3611 3725 
Q 3209 4238 2522 4238 
z
M 2522 4750 
Q 3503 4750 4090 4092 
Q 4678 3434 4678 2328 
Q 4678 1225 4090 567 
Q 3503 -91 2522 -91 
Q 1538 -91 948 565 
Q 359 1222 359 2328 
Q 359 3434 948 4092 
Q 1538 4750 2522 4750 
z
" transform="scale(0.015625)"/>
       <path id="DejaVuSans-53" d="M 3425 4513 
L 3425 3897 
Q 3066 4069 2747 4153 
Q 2428 4238 2131 4238 
Q 1616 4238 1336 4038 
Q 1056 3838 1056 3469 
Q 1056 3159 1242 3001 
Q 1428 2844 1947 2747 
L 2328 2669 
Q 3034 2534 3370 2195 
Q 3706 1856 3706 1288 
Q 3706 609 3251 259 
Q 2797 -91 1919 -91 
Q 1588 -91 1214 -16 
Q 841 59 441 206 
L 441 856 
Q 825 641 1194 531 
Q 1563 422 1919 422 
Q 2459 422 2753 634 
Q 3047 847 3047 1241 
Q 3047 1584 2836 1778 
Q 2625 1972 2144 2069 
L 1759 2144 
Q 1053 2284 737 2584 
Q 422 2884 422 3419 
Q 422 4038 858 4394 
Q 1294 4750 2059 4750 
Q 2388 4750 2728 4690 
Q 3069 4631 3425 4513 
z
" transform="scale(0.015625)"/>
       <path id="DejaVuSans-43a" d="M 581 3500 
L 1153 3500 
L 1153 1856 
L 2775 3500 
L 3481 3500 
L 2144 2147 
L 3653 0 
L 3009 0 
L 1769 1766 
L 1153 1141 
L 1153 0 
L 581 0 
L 581 3500 
z
" transform="scale(0.015625)"/>
       <path id="DejaVuSans-412" d="M 1259 2228 
L 1259 519 
L 2272 519 
Q 2781 519 3026 730 
Q 3272 941 3272 1375 
Q 3272 1813 3026 2020 
Q 2781 2228 2272 2228 
L 1259 2228 
z
M 1259 4147 
L 1259 2741 
L 2194 2741 
Q 2656 2741 2882 2914 
Q 3109 3088 3109 3444 
Q 3109 3797 2882 3972 
Q 2656 4147 2194 4147 
L 1259 4147 
z
M 628 4666 
L 2241 4666 
Q 2963 4666 3353 4366 
Q 3744 4066 3744 3513 
Q 3744 3084 3544 2831 
Q 3344 2578 2956 2516 
Q 3422 2416 3680 2098 
Q 3938 1781 3938 1306 
Q 3938 681 3513 340 
Q 3088 0 2303 0 
L 628 0 
L 628 4666 
z
" transform="scale(0.015625)"/>
       <path id="DejaVuSans-442" d="M 188 3500 
L 3541 3500 
L 3541 3041 
L 2147 3041 
L 2147 0 
L 1581 0 
L 1581 3041 
L 188 3041 
L 188 3500 
z
" transform="scale(0.015625)"/>
       <path id="DejaVuSans-b7" d="M 684 2619 
L 1344 2619 
L 1344 1825 
L 684 1825 
L 684 2619 
z
" transform="scale(0.015625)"/>
       <path id="DejaVuSans-447" d="M 2625 0 
L 2625 1472 
L 1553 1472 
Q 1075 1472 756 1769 
Q 469 2038 469 2613 
L 469 3500 
L 1044 3500 
L 1044 2666 
Q 1044 2300 1206 2116 
Q 1372 1931 1697 1931 
L 2625 1931 
L 2625 3500 
L 3200 3500 
L 3200 0 
L 2625 0 
z
" transform="scale(0.015625)"/>
      </defs>
      <use xlink:href="#DejaVuSans-4c"/>
      <use xlink:href="#DejaVuSans-4f" x="52.087891"/>
      <use xlink:href="#DejaVuSans-53" x="130.798828"/>
      <use xlink:href="#DejaVuSans-53" x="194.275391"/>
      <use xlink:href="#DejaVuSans-20" x="257.751953"/>
      <use xlink:href="#DejaVuSans-5b" x="289.539062"/>
      <use xlink:href="#DejaVuSans-43a" x="328.552734"/>
      <use xlink:href="#DejaVuSans-412" x="388.953125"/>
      <use xlink:href="#DejaVuSans-442" x="457.556641"/>
      <use xlink:href="#DejaVuSans-b7" x="515.808594"/>
      <use xlink:href="#DejaVuSans-447" x="547.595703"/>
      <use xlink:href="#DejaVuSans-5d" x="606.677734"/>
     </g>
    </g>
   </g>
   <g id="line2d_13">
    <path d="M 92.027017 32.177216 
L 99.722472 116.008651 
L 107.417926 134.649756 
L 115.113381 146.263622 
L 122.808835 155.994165 
L 130.50429 164.873238 
L 138.199744 171.52214 
L 145.895199 177.065298 
L 153.590653 182.04397 
L 161.286108 187.724692 
L 168.981562 191.587212 
L 176.677017 194.636025 
L 184.372472 198.427837 
L 192.067926 201.778186 
L 199.763381 204.191435 
L 207.458835 206.382431 
L 215.15429 208.674807 
L 222.849744 210.061203 
L 230.545199 211.794257 
L 238.240653 213.281634 
L 245.936108 218.375386 
L 253.631563 219.858328 
L 261.327017 220.426129 
L 269.022472 221.280332 
L 276.717926 221.93257 
L 284.413381 222.422753 
L 292.108835 222.946635 
L 299.80429 223.46933 
L 307.499744 223.875431 
L 315.195199 224.291082 
L 322.890653 224.708387 
L 330.586108 225.245516 
L 338.281562 226.807597 
L 345.977017 227.509305 
L 353.672472 227.857773 
L 361.367926 228.174464 
L 369.063381 228.27793 
L 376.758835 228.408689 
L 384.45429 228.634653 
L 392.149744 228.851878 
L 399.845199 228.997223 
L 407.540653 229.187345 
L 415.236108 229.359034 
" clip-path="url(#p4139cc3115)" style="fill: none; stroke: #0072b2; stroke-width: 1.8; stroke-linecap: round"/>
   </g>
   <g id="line2d_14">
    <path d="M 92.027017 202.666789 
L 99.722472 204.547945 
L 107.417926 203.565531 
L 115.113381 205.667891 
L 122.808835 206.742635 
L 130.50429 207.596566 
L 138.199744 209.422368 
L 145.895199 210.279935 
L 153.590653 208.496235 
L 161.286108 208.992569 
L 168.981562 208.755786 
L 176.677017 207.837581 
L 184.372472 207.302266 
L 192.067926 206.905778 
L 199.763381 207.019488 
L 207.458835 208.708253 
L 215.15429 208.394501 
L 222.849744 206.646437 
L 230.545199 208.059286 
L 238.240653 208.176696 
L 245.936108 207.666001 
L 253.631563 206.542994 
L 261.327017 207.755821 
L 269.022472 207.686932 
L 276.717926 207.446071 
L 284.413381 204.945593 
L 292.108835 206.729711 
L 299.80429 207.977652 
L 307.499744 206.489637 
L 315.195199 207.036286 
L 322.890653 207.609143 
L 330.586108 205.817926 
L 338.281562 205.289739 
L 345.977017 206.023316 
L 353.672472 206.387038 
L 361.367926 206.252376 
L 369.063381 205.993279 
L 376.758835 206.490165 
L 384.45429 205.469558 
L 392.149744 205.729836 
L 399.845199 205.574299 
L 407.540653 206.356561 
L 415.236108 205.106008 
" clip-path="url(#p4139cc3115)" style="fill: none; stroke: #009e73; stroke-width: 1.8; stroke-linecap: round"/>
   </g>
   <g id="patch_3">
    <path d="M 75.866563 239.218125 
L 75.866563 22.318125 
" style="fill: none; stroke: #cccccc; stroke-width: 1.25; stroke-linejoin: miter; stroke-linecap: square"/>
   </g>
   <g id="patch_4">
    <path d="M 75.866563 239.218125 
L 431.396562 239.218125 
" style="fill: none; stroke: #cccccc; stroke-width: 1.25; stroke-linejoin: miter; stroke-linecap: square"/>
   </g>
   <g id="text_15">
    <!-- PatchTST — LOSS [кВт·ч] -->
    <g style="fill: #262626" transform="translate(168.78875 16.318125) scale(0.12 -0.12)">
     <defs>
      <path id="DejaVuSans-Bold-50" d="M 588 4666 
L 2584 4666 
Q 3475 4666 3951 4270 
Q 4428 3875 4428 3144 
Q 4428 2409 3951 2014 
Q 3475 1619 2584 1619 
L 1791 1619 
L 1791 0 
L 588 0 
L 588 4666 
z
M 1791 3794 
L 1791 2491 
L 2456 2491 
Q 2806 2491 2997 2661 
Q 3188 2831 3188 3144 
Q 3188 3456 2997 3625 
Q 2806 3794 2456 3794 
L 1791 3794 
z
" transform="scale(0.015625)"/>
      <path id="DejaVuSans-Bold-61" d="M 2106 1575 
Q 1756 1575 1579 1456 
Q 1403 1338 1403 1106 
Q 1403 894 1545 773 
Q 1688 653 1941 653 
Q 2256 653 2472 879 
Q 2688 1106 2688 1447 
L 2688 1575 
L 2106 1575 
z
M 3816 1997 
L 3816 0 
L 2688 0 
L 2688 519 
Q 2463 200 2181 54 
Q 1900 -91 1497 -91 
Q 953 -91 614 226 
Q 275 544 275 1050 
Q 275 1666 698 1953 
Q 1122 2241 2028 2241 
L 2688 2241 
L 2688 2328 
Q 2688 2594 2478 2717 
Q 2269 2841 1825 2841 
Q 1466 2841 1156 2769 
Q 847 2697 581 2553 
L 581 3406 
Q 941 3494 1303 3539 
Q 1666 3584 2028 3584 
Q 2975 3584 3395 3211 
Q 3816 2838 3816 1997 
z
" transform="scale(0.015625)"/>
      <path id="DejaVuSans-Bold-74" d="M 1759 4494 
L 1759 3500 
L 2913 3500 
L 2913 2700 
L 1759 2700 
L 1759 1216 
Q 1759 972 1856 886 
Q 1953 800 2241 800 
L 2816 800 
L 2816 0 
L 1856 0 
Q 1194 0 917 276 
Q 641 553 641 1216 
L 641 2700 
L 84 2700 
L 84 3500 
L 641 3500 
L 641 4494 
L 1759 4494 
z
" transform="scale(0.015625)"/>
      <path id="DejaVuSans-Bold-63" d="M 3366 3391 
L 3366 2478 
Q 3138 2634 2908 2709 
Q 2678 2784 2431 2784 
Q 1963 2784 1702 2511 
Q 1441 2238 1441 1747 
Q 1441 1256 1702 982 
Q 1963 709 2431 709 
Q 2694 709 2930 787 
Q 3166 866 3366 1019 
L 3366 103 
Q 3103 6 2833 -42 
Q 2563 -91 2291 -91 
Q 1344 -91 809 395 
Q 275 881 275 1747 
Q 275 2613 809 3098 
Q 1344 3584 2291 3584 
Q 2566 3584 2833 3536 
Q 3100 3488 3366 3391 
z
" transform="scale(0.015625)"/>
      <path id="DejaVuSans-Bold-68" d="M 4056 2131 
L 4056 0 
L 2931 0 
L 2931 347 
L 2931 1625 
Q 2931 2084 2911 2256 
Q 2891 2428 2841 2509 
Q 2775 2619 2662 2680 
Q 2550 2741 2406 2741 
Q 2056 2741 1856 2470 
Q 1656 2200 1656 1722 
L 1656 0 
L 538 0 
L 538 4863 
L 1656 4863 
L 1656 2988 
Q 1909 3294 2193 3439 
Q 2478 3584 2822 3584 
Q 3428 3584 3742 3212 
Q 4056 2841 4056 2131 
z
" transform="scale(0.015625)"/>
      <path id="DejaVuSans-Bold-54" d="M 31 4666 
L 4331 4666 
L 4331 3756 
L 2784 3756 
L 2784 0 
L 1581 0 
L 1581 3756 
L 31 3756 
L 31 4666 
z
" transform="scale(0.015625)"/>
      <path id="DejaVuSans-Bold-53" d="M 3834 4519 
L 3834 3531 
Q 3450 3703 3084 3790 
Q 2719 3878 2394 3878 
Q 1963 3878 1756 3759 
Q 1550 3641 1550 3391 
Q 1550 3203 1689 3098 
Q 1828 2994 2194 2919 
L 2706 2816 
Q 3484 2659 3812 2340 
Q 4141 2022 4141 1434 
Q 4141 663 3683 286 
Q 3225 -91 2284 -91 
Q 1841 -91 1394 -6 
Q 947 78 500 244 
L 500 1259 
Q 947 1022 1364 901 
Q 1781 781 2169 781 
Q 2563 781 2772 912 
Q 2981 1044 2981 1288 
Q 2981 1506 2839 1625 
Q 2697 1744 2272 1838 
L 1806 1941 
Q 1106 2091 782 2419 
Q 459 2747 459 3303 
Q 459 4000 909 4375 
Q 1359 4750 2203 4750 
Q 2588 4750 2994 4692 
Q 3400 4634 3834 4519 
z
" transform="scale(0.015625)"/>
      <path id="DejaVuSans-Bold-20" transform="scale(0.015625)"/>
      <path id="DejaVuSans-Bold-2014" d="M 344 2156 
L 6056 2156 
L 6056 1350 
L 344 1350 
L 344 2156 
z
" transform="scale(0.015625)"/>
      <path id="DejaVuSans-Bold-4c" d="M 588 4666 
L 1791 4666 
L 1791 909 
L 3903 909 
L 3903 0 
L 588 0 
L 588 4666 
z
" transform="scale(0.015625)"/>
      <path id="DejaVuSans-Bold-4f" d="M 2719 3878 
Q 2169 3878 1866 3472 
Q 1563 3066 1563 2328 
Q 1563 1594 1866 1187 
Q 2169 781 2719 781 
Q 3272 781 3575 1187 
Q 3878 1594 3878 2328 
Q 3878 3066 3575 3472 
Q 3272 3878 2719 3878 
z
M 2719 4750 
Q 3844 4750 4481 4106 
Q 5119 3463 5119 2328 
Q 5119 1197 4481 553 
Q 3844 -91 2719 -91 
Q 1597 -91 958 553 
Q 319 1197 319 2328 
Q 319 3463 958 4106 
Q 1597 4750 2719 4750 
z
" transform="scale(0.015625)"/>
      <path id="DejaVuSans-Bold-5b" d="M 550 4863 
L 2491 4863 
L 2491 4159 
L 1613 4159 
L 1613 -141 
L 2491 -141 
L 2491 -844 
L 550 -844 
L 550 4863 
z
" transform="scale(0.015625)"/>
      <path id="DejaVuSans-Bold-43a" d="M 538 3500 
L 1656 3500 
L 1656 2316 
L 2903 3500 
L 4128 3500 
L 2634 2078 
L 4250 0 
L 3094 0 
L 1972 1447 
L 1656 1147 
L 1656 0 
L 538 0 
L 538 3500 
z
" transform="scale(0.015625)"/>
      <path id="DejaVuSans-Bold-412" d="M 2456 2859 
Q 2741 2859 2887 2984 
Q 3034 3109 3034 3353 
Q 3034 3594 2887 3720 
Q 2741 3847 2456 3847 
L 1791 3847 
L 1791 2859 
L 2456 2859 
z
M 2497 819 
Q 2859 819 3042 972 
Q 3225 1125 3225 1434 
Q 3225 1738 3044 1889 
Q 2863 2041 2497 2041 
L 1791 2041 
L 1791 819 
L 2497 819 
z
M 3616 2497 
Q 4003 2384 4215 2081 
Q 4428 1778 4428 1338 
Q 4428 663 3972 331 
Q 3516 0 2584 0 
L 588 0 
L 588 4666 
L 2394 4666 
Q 3366 4666 3802 4372 
Q 4238 4078 4238 3431 
Q 4238 3091 4078 2852 
Q 3919 2613 3616 2497 
z
" transform="scale(0.015625)"/>
      <path id="DejaVuSans-Bold-442" d="M 25 3500 
L 3681 3500 
L 3681 2809 
L 2413 2809 
L 2413 0 
L 1297 0 
L 1297 2809 
L 25 2809 
L 25 3500 
z
" transform="scale(0.015625)"/>
      <path id="DejaVuSans-Bold-b7" d="M 653 2828 
L 1778 2828 
L 1778 1619 
L 653 1619 
L 653 2828 
z
" transform="scale(0.015625)"/>
      <path id="DejaVuSans-Bold-447" d="M 2550 0 
L 2550 1353 
L 1400 1353 
Q 931 1353 672 1629 
Q 413 1906 413 2450 
L 413 3500 
L 1531 3500 
L 1531 2878 
Q 1531 2322 1622 2183 
Q 1713 2044 1950 2044 
L 2550 2044 
L 2550 3500 
L 3669 3500 
L 3669 0 
L 2550 0 
z
" transform="scale(0.015625)"/>
      <path id="DejaVuSans-Bold-5d" d="M 2375 -844 
L 434 -844 
L 434 -141 
L 1313 -141 
L 1313 4159 
L 434 4159 
L 434 4863 
L 2375 4863 
L 2375 -844 
z
" transform="scale(0.015625)"/>
     </defs>
     <use xlink:href="#DejaVuSans-Bold-50"/>
     <use xlink:href="#DejaVuSans-Bold-61" x="70.666016"/>
     <use xlink:href="#DejaVuSans-Bold-74" x="138.146484"/>
     <use xlink:href="#DejaVuSans-Bold-63" x="185.949219"/>
     <use xlink:href="#DejaVuSans-Bold-68" x="245.226562"/>
     <use xlink:href="#DejaVuSans-Bold-54" x="316.417969"/>
     <use xlink:href="#DejaVuSans-Bold-53" x="384.630859"/>
     <use xlink:href="#DejaVuSans-Bold-54" x="456.652344"/>
     <use xlink:href="#DejaVuSans-Bold-20" x="524.865234"/>
     <use xlink:href="#DejaVuSans-Bold-2014" x="559.679688"/>
     <use xlink:href="#DejaVuSans-Bold-20" x="659.679688"/>
     <use xlink:href="#DejaVuSans-Bold-4c" x="694.494141"/>
     <use xlink:href="#DejaVuSans-Bold-4f" x="754.589844"/>
     <use xlink:href="#DejaVuSans-Bold-53" x="839.599609"/>
     <use xlink:href="#DejaVuSans-Bold-53" x="907.121094"/>
     <use xlink:href="#DejaVuSans-Bold-20" x="979.142578"/>
     <use xlink:href="#DejaVuSans-Bold-5b" x="1013.957031"/>
     <use xlink:href="#DejaVuSans-Bold-43a" x="1059.660156"/>
     <use xlink:href="#DejaVuSans-Bold-412" x="1127.53125"/>
     <use xlink:href="#DejaVuSans-Bold-442" x="1203.751953"/>
     <use xlink:href="#DejaVuSans-Bold-b7" x="1261.710938"/>
     <use xlink:href="#DejaVuSans-Bold-447" x="1299.699219"/>
     <use xlink:href="#DejaVuSans-Bold-5d" x="1368.351562"/>
    </g>
   </g>
   <g id="legend_1">
    <g id="patch_5">
     <path d="M 330.258437 63.41 
L 423.696562 63.41 
Q 425.896562 63.41 425.896562 61.21 
L 425.896562 30.018125 
Q 425.896562 27.818125 423.696562 27.818125 
L 330.258437 27.818125 
Q 328.058437 27.818125 328.058437 30.018125 
L 328.058437 61.21 
Q 328.058437 63.41 330.258437 63.41 
z
" style="fill: #ffffff; opacity: 0.95; stroke: #cccccc; stroke-linejoin: miter"/>
    </g>
    <g id="line2d_15">
     <path d="M 332.458437 36.726406 
L 343.458437 36.726406 
L 354.458437 36.726406 
" style="fill: none; stroke: #0072b2; stroke-width: 1.8; stroke-linecap: round"/>
    </g>
    <g id="text_16">
     <!-- Train LOSS -->
     <g style="fill: #262626" transform="translate(363.258437 40.576406) scale(0.11 -0.11)">
      <defs>
       <path id="DejaVuSans-54" d="M -19 4666 
L 3928 4666 
L 3928 4134 
L 2272 4134 
L 2272 0 
L 1638 0 
L 1638 4134 
L -19 4134 
L -19 4666 
z
" transform="scale(0.015625)"/>
       <path id="DejaVuSans-72" d="M 2631 2963 
Q 2534 3019 2420 3045 
Q 2306 3072 2169 3072 
Q 1681 3072 1420 2755 
Q 1159 2438 1159 1844 
L 1159 0 
L 581 0 
L 581 3500 
L 1159 3500 
L 1159 2956 
Q 1341 3275 1631 3429 
Q 1922 3584 2338 3584 
Q 2397 3584 2469 3576 
Q 2541 3569 2628 3553 
L 2631 2963 
z
" transform="scale(0.015625)"/>
       <path id="DejaVuSans-61" d="M 2194 1759 
Q 1497 1759 1228 1600 
Q 959 1441 959 1056 
Q 959 750 1161 570 
Q 1363 391 1709 391 
Q 2188 391 2477 730 
Q 2766 1069 2766 1631 
L 2766 1759 
L 2194 1759 
z
M 3341 1997 
L 3341 0 
L 2766 0 
L 2766 531 
Q 2569 213 2275 61 
Q 1981 -91 1556 -91 
Q 1019 -91 701 211 
Q 384 513 384 1019 
Q 384 1609 779 1909 
Q 1175 2209 1959 2209 
L 2766 2209 
L 2766 2266 
Q 2766 2663 2505 2880 
Q 2244 3097 1772 3097 
Q 1472 3097 1187 3025 
Q 903 2953 641 2809 
L 641 3341 
Q 956 3463 1253 3523 
Q 1550 3584 1831 3584 
Q 2591 3584 2966 3190 
Q 3341 2797 3341 1997 
z
" transform="scale(0.015625)"/>
       <path id="DejaVuSans-69" d="M 603 3500 
L 1178 3500 
L 1178 0 
L 603 0 
L 603 3500 
z
M 603 4863 
L 1178 4863 
L 1178 4134 
L 603 4134 
L 603 4863 
z
" transform="scale(0.015625)"/>
       <path id="DejaVuSans-6e" d="M 3513 2113 
L 3513 0 
L 2938 0 
L 2938 2094 
Q 2938 2591 2744 2837 
Q 2550 3084 2163 3084 
Q 1697 3084 1428 2787 
Q 1159 2491 1159 1978 
L 1159 0 
L 581 0 
L 581 3500 
L 1159 3500 
L 1159 2956 
Q 1366 3272 1645 3428 
Q 1925 3584 2291 3584 
Q 2894 3584 3203 3211 
Q 3513 2838 3513 2113 
z
" transform="scale(0.015625)"/>
      </defs>
      <use xlink:href="#DejaVuSans-54"/>
      <use xlink:href="#DejaVuSans-72" x="46.333984"/>
      <use xlink:href="#DejaVuSans-61" x="87.447266"/>
      <use xlink:href="#DejaVuSans-69" x="148.726562"/>
      <use xlink:href="#DejaVuSans-6e" x="176.509766"/>
      <use xlink:href="#DejaVuSans-20" x="239.888672"/>
      <use xlink:href="#DejaVuSans-4c" x="271.675781"/>
      <use xlink:href="#DejaVuSans-4f" x="323.763672"/>
      <use xlink:href="#DejaVuSans-53" x="402.474609"/>
      <use xlink:href="#DejaVuSans-53" x="465.951172"/>
     </g>
    </g>
    <g id="line2d_16">
     <path d="M 332.458437 52.872344 
L 343.458437 52.872344 
L 354.458437 52.872344 
" style="fill: none; stroke: #009e73; stroke-width: 1.8; stroke-linecap: round"/>
    </g>
    <g id="text_17">
     <!-- Val LOSS -->
     <g style="fill: #262626" transform="translate(363.258437 56.722344) scale(0.11 -0.11)">
      <defs>
       <path id="DejaVuSans-56" d="M 1831 0 
L 50 4666 
L 709 4666 
L 2188 738 
L 3669 4666 
L 4325 4666 
L 2547 0 
L 1831 0 
z
" transform="scale(0.015625)"/>
       <path id="DejaVuSans-6c" d="M 603 4863 
L 1178 4863 
L 1178 0 
L 603 0 
L 603 4863 
z
" transform="scale(0.015625)"/>
      </defs>
      <use xlink:href="#DejaVuSans-56"/>
      <use xlink:href="#DejaVuSans-61" x="60.658203"/>
      <use xlink:href="#DejaVuSans-6c" x="121.9375"/>
      <use xlink:href="#DejaVuSans-20" x="149.720703"/>
      <use xlink:href="#DejaVuSans-4c" x="181.507812"/>
      <use xlink:href="#DejaVuSans-4f" x="233.595703"/>
      <use xlink:href="#DejaVuSans-53" x="312.306641"/>
      <use xlink:href="#DejaVuSans-53" x="375.783203"/>
     </g>
    </g>
   </g>
  </g>
  <g id="axes_2">
   <g id="patch_6">
    <path d="M 500.756562 239.218125 
L 856.286562 239.218125 
L 856.286562 22.318125 
L 500.756562 22.318125 
z
" style="fill: #ffffff"/>
   </g>
   <g id="matplotlib.axis_3">
    <g id="xtick_6">
     <g id="line2d_17">
      <path d="M 516.917017 239.218125 
L 516.917017 22.318125 
" clip-path="url(#pee28240176)" style="fill: none; stroke-dasharray: 3.7,1.6; stroke-dashoffset: 0; stroke: #cccccc; stroke-opacity: 0.3"/>
     </g>
     <g id="text_18">
      <!-- 0 -->
      <g style="fill: #262626" transform="translate(513.417642 257.076406) scale(0.11 -0.11)">
       <use xlink:href="#DejaVuSans-30"/>
      </g>
     </g>
    </g>
    <g id="xtick_7">
     <g id="line2d_18">
      <path d="M 593.871562 239.218125 
L 593.871562 22.318125 
" clip-path="url(#pee28240176)" style="fill: none; stroke-dasharray: 3.7,1.6; stroke-dashoffset: 0; stroke: #cccccc; stroke-opacity: 0.3"/>
     </g>
     <g id="text_19">
      <!-- 10 -->
      <g style="fill: #262626" transform="translate(586.872813 257.076406) scale(0.11 -0.11)">
       <use xlink:href="#DejaVuSans-31"/>
       <use xlink:href="#DejaVuSans-30" x="63.623047"/>
      </g>
     </g>
    </g>
    <g id="xtick_8">
     <g id="line2d_19">
      <path d="M 670.826108 239.218125 
L 670.826108 22.318125 
" clip-path="url(#pee28240176)" style="fill: none; stroke-dasharray: 3.7,1.6; stroke-dashoffset: 0; stroke: #cccccc; stroke-opacity: 0.3"/>
     </g>
     <g id="text_20">
      <!-- 20 -->
      <g style="fill: #262626" transform="translate(663.827358 257.076406) scale(0.11 -0.11)">
       <use xlink:href="#DejaVuSans-32"/>
       <use xlink:href="#DejaVuSans-30" x="63.623047"/>
      </g>
     </g>
    </g>
    <g id="xtick_9">
     <g id="line2d_20">
      <path d="M 747.780653 239.218125 
L 747.780653 22.318125 
" clip-path="url(#pee28240176)" style="fill: none; stroke-dasharray: 3.7,1.6; stroke-dashoffset: 0; stroke: #cccccc; stroke-opacity: 0.3"/>
     </g>
     <g id="text_21">
      <!-- 30 -->
      <g style="fill: #262626" transform="translate(740.781903 257.076406) scale(0.11 -0.11)">
       <use xlink:href="#DejaVuSans-33"/>
       <use xlink:href="#DejaVuSans-30" x="63.623047"/>
      </g>
     </g>
    </g>
    <g id="xtick_10">
     <g id="line2d_21">
      <path d="M 824.735199 239.218125 
L 824.735199 22.318125 
" clip-path="url(#pee28240176)" style="fill: none; stroke-dasharray: 3.7,1.6; stroke-dashoffset: 0; stroke: #cccccc; stroke-opacity: 0.3"/>
     </g>
     <g id="text_22">
      <!-- 40 -->
      <g style="fill: #262626" transform="translate(817.736449 257.076406) scale(0.11 -0.11)">
       <use xlink:href="#DejaVuSans-34"/>
       <use xlink:href="#DejaVuSans-30" x="63.623047"/>
      </g>
     </g>
    </g>
    <g id="text_23">
     <!-- Эпоха [-] -->
     <g style="fill: #262626" transform="translate(655.384062 270.9625) scale(0.1 -0.1)">
      <use xlink:href="#DejaVuSans-42d"/>
      <use xlink:href="#DejaVuSans-43f" x="69.824219"/>
      <use xlink:href="#DejaVuSans-43e" x="135.205078"/>
      <use xlink:href="#DejaVuSans-445" x="196.386719"/>
      <use xlink:href="#DejaVuSans-430" x="255.566406"/>
      <use xlink:href="#DejaVuSans-20" x="316.845703"/>
      <use xlink:href="#DejaVuSans-5b" x="348.632812"/>
      <use xlink:href="#DejaVuSans-2d" x="387.646484"/>
      <use xlink:href="#DejaVuSans-5d" x="423.730469"/>
     </g>
    </g>
   </g>
   <g id="matplotlib.axis_4">
    <g id="ytick_8">
     <g id="line2d_22">
      <path d="M 500.756562 232.407294 
L 856.286562 232.407294 
" clip-path="url(#pee28240176)" style="fill: none; stroke-dasharray: 3.7,1.6; stroke-dashoffset: 0; stroke: #cccccc; stroke-opacity: 0.3"/>
     </g>
     <g id="text_24">
      <!-- 0.015 -->
      <g style="fill: #262626" transform="translate(459.765625 236.586435) scale(0.11 -0.11)">
       <use xlink:href="#DejaVuSans-30"/>
       <use xlink:href="#DejaVuSans-2e" x="63.623047"/>
       <use xlink:href="#DejaVuSans-30" x="95.410156"/>
       <use xlink:href="#DejaVuSans-31" x="159.033203"/>
       <use xlink:href="#DejaVuSans-35" x="222.65625"/>
      </g>
     </g>
    </g>
    <g id="ytick_9">
     <g id="line2d_23">
      <path d="M 500.756562 200.85955 
L 856.286562 200.85955 
" clip-path="url(#pee28240176)" style="fill: none; stroke-dasharray: 3.7,1.6; stroke-dashoffset: 0; stroke: #cccccc; stroke-opacity: 0.3"/>
     </g>
     <g id="text_25">
      <!-- 0.020 -->
      <g style="fill: #262626" transform="translate(459.765625 205.038691) scale(0.11 -0.11)">
       <use xlink:href="#DejaVuSans-30"/>
       <use xlink:href="#DejaVuSans-2e" x="63.623047"/>
       <use xlink:href="#DejaVuSans-30" x="95.410156"/>
       <use xlink:href="#DejaVuSans-32" x="159.033203"/>
       <use xlink:href="#DejaVuSans-30" x="222.65625"/>
      </g>
     </g>
    </g>
    <g id="ytick_10">
     <g id="line2d_24">
      <path d="M 500.756562 169.311805 
L 856.286562 169.311805 
" clip-path="url(#pee28240176)" style="fill: none; stroke-dasharray: 3.7,1.6; stroke-dashoffset: 0; stroke: #cccccc; stroke-opacity: 0.3"/>
     </g>
     <g id="text_26">
      <!-- 0.025 -->
      <g style="fill: #262626" transform="translate(459.765625 173.490946) scale(0.11 -0.11)">
       <use xlink:href="#DejaVuSans-30"/>
       <use xlink:href="#DejaVuSans-2e" x="63.623047"/>
       <use xlink:href="#DejaVuSans-30" x="95.410156"/>
       <use xlink:href="#DejaVuSans-32" x="159.033203"/>
       <use xlink:href="#DejaVuSans-35" x="222.65625"/>
      </g>
     </g>
    </g>
    <g id="ytick_11">
     <g id="line2d_25">
      <path d="M 500.756562 137.764061 
L 856.286562 137.764061 
" clip-path="url(#pee28240176)" style="fill: none; stroke-dasharray: 3.7,1.6; stroke-dashoffset: 0; stroke: #cccccc; stroke-opacity: 0.3"/>
     </g>
     <g id="text_27">
      <!-- 0.030 -->
      <g style="fill: #262626" transform="translate(459.765625 141.943201) scale(0.11 -0.11)">
       <use xlink:href="#DejaVuSans-30"/>
       <use xlink:href="#DejaVuSans-2e" x="63.623047"/>
       <use xlink:href="#DejaVuSans-30" x="95.410156"/>
       <use xlink:href="#DejaVuSans-33" x="159.033203"/>
       <use xlink:href="#DejaVuSans-30" x="222.65625"/>
      </g>
     </g>
    </g>
    <g id="ytick_12">
     <g id="line2d_26">
      <path d="M 500.756562 106.216316 
L 856.286562 106.216316 
" clip-path="url(#pee28240176)" style="fill: none; stroke-dasharray: 3.7,1.6; stroke-dashoffset: 0; stroke: #cccccc; stroke-opacity: 0.3"/>
     </g>
     <g id="text_28">
      <!-- 0.035 -->
      <g style="fill: #262626" transform="translate(459.765625 110.395457) scale(0.11 -0.11)">
       <use xlink:href="#DejaVuSans-30"/>
       <use xlink:href="#DejaVuSans-2e" x="63.623047"/>
       <use xlink:href="#DejaVuSans-30" x="95.410156"/>
       <use xlink:href="#DejaVuSans-33" x="159.033203"/>
       <use xlink:href="#DejaVuSans-35" x="222.65625"/>
      </g>
     </g>
    </g>
    <g id="ytick_13">
     <g id="line2d_27">
      <path d="M 500.756562 74.668572 
L 856.286562 74.668572 
" clip-path="url(#pee28240176)" style="fill: none; stroke-dasharray: 3.7,1.6; stroke-dashoffset: 0; stroke: #cccccc; stroke-opacity: 0.3"/>
     </g>
     <g id="text_29">
      <!-- 0.040 -->
      <g style="fill: #262626" transform="translate(459.765625 78.847712) scale(0.11 -0.11)">
       <use xlink:href="#DejaVuSans-30"/>
       <use xlink:href="#DejaVuSans-2e" x="63.623047"/>
       <use xlink:href="#DejaVuSans-30" x="95.410156"/>
       <use xlink:href="#DejaVuSans-34" x="159.033203"/>
       <use xlink:href="#DejaVuSans-30" x="222.65625"/>
      </g>
     </g>
    </g>
    <g id="ytick_14">
     <g id="line2d_28">
      <path d="M 500.756562 43.120827 
L 856.286562 43.120827 
" clip-path="url(#pee28240176)" style="fill: none; stroke-dasharray: 3.7,1.6; stroke-dashoffset: 0; stroke: #cccccc; stroke-opacity: 0.3"/>
     </g>
     <g id="text_30">
      <!-- 0.045 -->
      <g style="fill: #262626" transform="translate(459.765625 47.299968) scale(0.11 -0.11)">
       <use xlink:href="#DejaVuSans-30"/>
       <use xlink:href="#DejaVuSans-2e" x="63.623047"/>
       <use xlink:href="#DejaVuSans-30" x="95.410156"/>
       <use xlink:href="#DejaVuSans-34" x="159.033203"/>
       <use xlink:href="#DejaVuSans-35" x="222.65625"/>
      </g>
     </g>
    </g>
    <g id="text_31">
     <!-- MAE [кВт·ч] -->
     <g style="fill: #262626" transform="translate(453.685937 161.05875) rotate(-90) scale(0.1 -0.1)">
      <defs>
       <path id="DejaVuSans-4d" d="M 628 4666 
L 1569 4666 
L 2759 1491 
L 3956 4666 
L 4897 4666 
L 4897 0 
L 4281 0 
L 4281 4097 
L 3078 897 
L 2444 897 
L 1241 4097 
L 1241 0 
L 628 0 
L 628 4666 
z
" transform="scale(0.015625)"/>
       <path id="DejaVuSans-41" d="M 2188 4044 
L 1331 1722 
L 3047 1722 
L 2188 4044 
z
M 1831 4666 
L 2547 4666 
L 4325 0 
L 3669 0 
L 3244 1197 
L 1141 1197 
L 716 0 
L 50 0 
L 1831 4666 
z
" transform="scale(0.015625)"/>
       <path id="DejaVuSans-45" d="M 628 4666 
L 3578 4666 
L 3578 4134 
L 1259 4134 
L 1259 2753 
L 3481 2753 
L 3481 2222 
L 1259 2222 
L 1259 531 
L 3634 531 
L 3634 0 
L 628 0 
L 628 4666 
z
" transform="scale(0.015625)"/>
      </defs>
      <use xlink:href="#DejaVuSans-4d"/>
      <use xlink:href="#DejaVuSans-41" x="86.279297"/>
      <use xlink:href="#DejaVuSans-45" x="154.6875"/>
      <use xlink:href="#DejaVuSans-20" x="217.871094"/>
      <use xlink:href="#DejaVuSans-5b" x="249.658203"/>
      <use xlink:href="#DejaVuSans-43a" x="288.671875"/>
      <use xlink:href="#DejaVuSans-412" x="349.072266"/>
      <use xlink:href="#DejaVuSans-442" x="417.675781"/>
      <use xlink:href="#DejaVuSans-b7" x="475.927734"/>
      <use xlink:href="#DejaVuSans-447" x="507.714844"/>
      <use xlink:href="#DejaVuSans-5d" x="566.796875"/>
     </g>
    </g>
   </g>
   <g id="line2d_29">
    <path d="M 516.917017 32.177216 
L 524.612472 102.272875 
L 532.307926 119.065693 
L 540.003381 129.754241 
L 547.698835 138.993606 
L 555.39429 147.38783 
L 563.089744 154.133772 
L 570.785199 159.729983 
L 578.480653 165.207459 
L 586.176108 171.355519 
L 593.871562 175.767659 
L 601.567017 179.330967 
L 609.262472 183.73548 
L 616.957926 187.639115 
L 624.653381 190.929449 
L 632.348835 193.575901 
L 640.04429 196.757853 
L 647.739744 198.64411 
L 655.435199 201.063364 
L 663.130653 203.239165 
L 670.826108 210.906676 
L 678.521562 213.309876 
L 686.217017 213.974465 
L 693.912472 215.328253 
L 701.607926 216.517272 
L 709.303381 217.215697 
L 716.998835 218.103066 
L 724.69429 219.050525 
L 732.389744 219.610482 
L 740.085199 220.55136 
L 747.780653 221.240006 
L 755.476108 222.065816 
L 763.171562 224.935024 
L 770.867017 226.111103 
L 778.562472 226.656041 
L 786.257926 227.295069 
L 793.953381 227.341397 
L 801.648835 227.563471 
L 809.34429 228.160037 
L 817.039744 228.462169 
L 824.735199 228.683045 
L 832.430653 228.987116 
L 840.126108 229.359034 
" clip-path="url(#pee28240176)" style="fill: none; stroke: #0072b2; stroke-width: 1.8; stroke-linecap: round"/>
   </g>
   <g id="line2d_30">
    <path d="M 516.917017 189.633976 
L 524.612472 192.531825 
L 532.307926 191.330854 
L 540.003381 195.559268 
L 547.698835 196.242285 
L 555.39429 197.849503 
L 563.089744 199.356978 
L 570.785199 201.766513 
L 578.480653 199.804124 
L 586.176108 201.516914 
L 593.871562 201.386497 
L 601.567017 201.04027 
L 609.262472 200.83606 
L 616.957926 199.293715 
L 624.653381 199.510889 
L 632.348835 202.276322 
L 640.04429 200.906139 
L 647.739744 199.305832 
L 655.435199 200.09636 
L 663.130653 200.063101 
L 670.826108 200.494287 
L 678.521562 199.304621 
L 686.217017 200.44126 
L 693.912472 200.475729 
L 701.607926 200.227447 
L 709.303381 197.131335 
L 716.998835 199.030319 
L 724.69429 200.758446 
L 732.389744 198.44299 
L 740.085199 199.38891 
L 747.780653 200.081834 
L 755.476108 197.930102 
L 763.171562 197.068518 
L 770.867017 197.735845 
L 778.562472 198.381995 
L 786.257926 198.300903 
L 793.953381 197.74694 
L 801.648835 198.840905 
L 809.34429 197.081152 
L 817.039744 197.594334 
L 824.735199 197.185161 
L 832.430653 198.370983 
L 840.126108 196.248385 
" clip-path="url(#pee28240176)" style="fill: none; stroke: #009e73; stroke-width: 1.8; stroke-linecap: round"/>
   </g>
   <g id="patch_7">
    <path d="M 500.756562 239.218125 
L 500.756562 22.318125 
" style="fill: none; stroke: #cccccc; stroke-width: 1.25; stroke-linejoin: miter; stroke-linecap: square"/>
   </g>
   <g id="patch_8">
    <path d="M 500.756562 239.218125 
L 856.286562 239.218125 
" style="fill: none; stroke: #cccccc; stroke-width: 1.25; stroke-linejoin: miter; stroke-linecap: square"/>
   </g>
   <g id="text_32">
    <!-- PatchTST — MAE [кВт·ч] -->
    <g style="fill: #262626" transform="translate(596.044062 16.318125) scale(0.12 -0.12)">
     <defs>
      <path id="DejaVuSans-Bold-4d" d="M 588 4666 
L 2119 4666 
L 3181 2169 
L 4250 4666 
L 5778 4666 
L 5778 0 
L 4641 0 
L 4641 3413 
L 3566 897 
L 2803 897 
L 1728 3413 
L 1728 0 
L 588 0 
L 588 4666 
z
" transform="scale(0.015625)"/>
      <path id="DejaVuSans-Bold-41" d="M 3419 850 
L 1538 850 
L 1241 0 
L 31 0 
L 1759 4666 
L 3194 4666 
L 4922 0 
L 3713 0 
L 3419 850 
z
M 1838 1716 
L 3116 1716 
L 2478 3572 
L 1838 1716 
z
" transform="scale(0.015625)"/>
      <path id="DejaVuSans-Bold-45" d="M 588 4666 
L 3834 4666 
L 3834 3756 
L 1791 3756 
L 1791 2888 
L 3713 2888 
L 3713 1978 
L 1791 1978 
L 1791 909 
L 3903 909 
L 3903 0 
L 588 0 
L 588 4666 
z
" transform="scale(0.015625)"/>
     </defs>
     <use xlink:href="#DejaVuSans-Bold-50"/>
     <use xlink:href="#DejaVuSans-Bold-61" x="70.666016"/>
     <use xlink:href="#DejaVuSans-Bold-74" x="138.146484"/>
     <use xlink:href="#DejaVuSans-Bold-63" x="185.949219"/>
     <use xlink:href="#DejaVuSans-Bold-68" x="245.226562"/>
     <use xlink:href="#DejaVuSans-Bold-54" x="316.417969"/>
     <use xlink:href="#DejaVuSans-Bold-53" x="384.630859"/>
     <use xlink:href="#DejaVuSans-Bold-54" x="456.652344"/>
     <use xlink:href="#DejaVuSans-Bold-20" x="524.865234"/>
     <use xlink:href="#DejaVuSans-Bold-2014" x="559.679688"/>
     <use xlink:href="#DejaVuSans-Bold-20" x="659.679688"/>
     <use xlink:href="#DejaVuSans-Bold-4d" x="694.494141"/>
     <use xlink:href="#DejaVuSans-Bold-41" x="794.005859"/>
     <use xlink:href="#DejaVuSans-Bold-45" x="871.398438"/>
     <use xlink:href="#DejaVuSans-Bold-20" x="939.708984"/>
     <use xlink:href="#DejaVuSans-Bold-5b" x="974.523438"/>
     <use xlink:href="#DejaVuSans-Bold-43a" x="1020.226562"/>
     <use xlink:href="#DejaVuSans-Bold-412" x="1088.097656"/>
     <use xlink:href="#DejaVuSans-Bold-442" x="1164.318359"/>
     <use xlink:href="#DejaVuSans-Bold-b7" x="1222.277344"/>
     <use xlink:href="#DejaVuSans-Bold-447" x="1260.265625"/>
     <use xlink:href="#DejaVuSans-Bold-5d" x="1328.917969"/>
    </g>
   </g>
   <g id="legend_2">
    <g id="patch_9">
     <path d="M 759.538125 63.41 
L 848.586562 63.41 
Q 850.786562 63.41 850.786562 61.21 
L 850.786562 30.018125 
Q 850.786562 27.818125 848.586562 27.818125 
L 759.538125 27.818125 
Q 757.338125 27.818125 757.338125 30.018125 
L 757.338125 61.21 
Q 757.338125 63.41 759.538125 63.41 
z
" style="fill: #ffffff; opacity: 0.95; stroke: #cccccc; stroke-linejoin: miter"/>
    </g>
    <g id="line2d_31">
     <path d="M 761.738125 36.726406 
L 772.738125 36.726406 
L 783.738125 36.726406 
" style="fill: none; stroke: #0072b2; stroke-width: 1.8; stroke-linecap: round"/>
    </g>
    <g id="text_33">
     <!-- Train MAE -->
     <g style="fill: #262626" transform="translate(792.538125 40.576406) scale(0.11 -0.11)">
      <use xlink:href="#DejaVuSans-54"/>
      <use xlink:href="#DejaVuSans-72" x="46.333984"/>
      <use xlink:href="#DejaVuSans-61" x="87.447266"/>
      <use xlink:href="#DejaVuSans-69" x="148.726562"/>
      <use xlink:href="#DejaVuSans-6e" x="176.509766"/>
      <use xlink:href="#DejaVuSans-20" x="239.888672"/>
      <use xlink:href="#DejaVuSans-4d" x="271.675781"/>
      <use xlink:href="#DejaVuSans-41" x="357.955078"/>
      <use xlink:href="#DejaVuSans-45" x="426.363281"/>
     </g>
    </g>
    <g id="line2d_32">
     <path d="M 761.738125 52.872344 
L 772.738125 52.872344 
L 783.738125 52.872344 
" style="fill: none; stroke: #009e73; stroke-width: 1.8; stroke-linecap: round"/>
    </g>
    <g id="text_34">
     <!-- Val MAE -->
     <g style="fill: #262626" transform="translate(792.538125 56.722344) scale(0.11 -0.11)">
      <use xlink:href="#DejaVuSans-56"/>
      <use xlink:href="#DejaVuSans-61" x="60.658203"/>
      <use xlink:href="#DejaVuSans-6c" x="121.9375"/>
      <use xlink:href="#DejaVuSans-20" x="149.720703"/>
      <use xlink:href="#DejaVuSans-4d" x="181.507812"/>
      <use xlink:href="#DejaVuSans-41" x="267.787109"/>
      <use xlink:href="#DejaVuSans-45" x="336.195312"/>
     </g>
    </g>
   </g>
  </g>
  <g id="axes_3">
   <g id="patch_10">
    <path d="M 925.646562 239.218125 
L 1281.176562 239.218125 
L 1281.176562 22.318125 
L 925.646562 22.318125 
z
" style="fill: #ffffff"/>
   </g>
   <g id="matplotlib.axis_5">
    <g id="xtick_11">
     <g id="line2d_33">
      <path d="M 941.807017 239.218125 
L 941.807017 22.318125 
" clip-path="url(#p45e37def13)" style="fill: none; stroke-dasharray: 3.7,1.6; stroke-dashoffset: 0; stroke: #cccccc; stroke-opacity: 0.3"/>
     </g>
     <g id="text_35">
      <!-- 0 -->
      <g style="fill: #262626" transform="translate(938.307642 257.076406) scale(0.11 -0.11)">
       <use xlink:href="#DejaVuSans-30"/>
      </g>
     </g>
    </g>
    <g id="xtick_12">
     <g id="line2d_34">
      <path d="M 1018.761562 239.218125 
L 1018.761562 22.318125 
" clip-path="url(#p45e37def13)" style="fill: none; stroke-dasharray: 3.7,1.6; stroke-dashoffset: 0; stroke: #cccccc; stroke-opacity: 0.3"/>
     </g>
     <g id="text_36">
      <!-- 10 -->
      <g style="fill: #262626" transform="translate(1011.762812 257.076406) scale(0.11 -0.11)">
       <use xlink:href="#DejaVuSans-31"/>
       <use xlink:href="#DejaVuSans-30" x="63.623047"/>
      </g>
     </g>
    </g>
    <g id="xtick_13">
     <g id="line2d_35">
      <path d="M 1095.716108 239.218125 
L 1095.716108 22.318125 
" clip-path="url(#p45e37def13)" style="fill: none; stroke-dasharray: 3.7,1.6; stroke-dashoffset: 0; stroke: #cccccc; stroke-opacity: 0.3"/>
     </g>
     <g id="text_37">
      <!-- 20 -->
      <g style="fill: #262626" transform="translate(1088.717358 257.076406) scale(0.11 -0.11)">
       <use xlink:href="#DejaVuSans-32"/>
       <use xlink:href="#DejaVuSans-30" x="63.623047"/>
      </g>
     </g>
    </g>
    <g id="xtick_14">
     <g id="line2d_36">
      <path d="M 1172.670653 239.218125 
L 1172.670653 22.318125 
" clip-path="url(#p45e37def13)" style="fill: none; stroke-dasharray: 3.7,1.6; stroke-dashoffset: 0; stroke: #cccccc; stroke-opacity: 0.3"/>
     </g>
     <g id="text_38">
      <!-- 30 -->
      <g style="fill: #262626" transform="translate(1165.671903 257.076406) scale(0.11 -0.11)">
       <use xlink:href="#DejaVuSans-33"/>
       <use xlink:href="#DejaVuSans-30" x="63.623047"/>
      </g>
     </g>
    </g>
    <g id="xtick_15">
     <g id="line2d_37">
      <path d="M 1249.625199 239.218125 
L 1249.625199 22.318125 
" clip-path="url(#p45e37def13)" style="fill: none; stroke-dasharray: 3.7,1.6; stroke-dashoffset: 0; stroke: #cccccc; stroke-opacity: 0.3"/>
     </g>
     <g id="text_39">
      <!-- 40 -->
      <g style="fill: #262626" transform="translate(1242.626449 257.076406) scale(0.11 -0.11)">
       <use xlink:href="#DejaVuSans-34"/>
       <use xlink:href="#DejaVuSans-30" x="63.623047"/>
      </g>
     </g>
    </g>
    <g id="text_40">
     <!-- Эпоха [-] -->
     <g style="fill: #262626" transform="translate(1080.274062 270.9625) scale(0.1 -0.1)">
      <use xlink:href="#DejaVuSans-42d"/>
      <use xlink:href="#DejaVuSans-43f" x="69.824219"/>
      <use xlink:href="#DejaVuSans-43e" x="135.205078"/>
      <use xlink:href="#DejaVuSans-445" x="196.386719"/>
      <use xlink:href="#DejaVuSans-430" x="255.566406"/>
      <use xlink:href="#DejaVuSans-20" x="316.845703"/>
      <use xlink:href="#DejaVuSans-5b" x="348.632812"/>
      <use xlink:href="#DejaVuSans-2d" x="387.646484"/>
      <use xlink:href="#DejaVuSans-5d" x="423.730469"/>
     </g>
    </g>
   </g>
   <g id="matplotlib.axis_6">
    <g id="ytick_15">
     <g id="line2d_38">
      <path d="M 925.646562 230.152233 
L 1281.176562 230.152233 
" clip-path="url(#p45e37def13)" style="fill: none; stroke-dasharray: 3.7,1.6; stroke-dashoffset: 0; stroke: #cccccc; stroke-opacity: 0.3"/>
     </g>
     <g id="text_41">
      <!-- 0 -->
      <g style="fill: #262626" transform="translate(909.147812 234.331374) scale(0.11 -0.11)">
       <use xlink:href="#DejaVuSans-30"/>
      </g>
     </g>
    </g>
    <g id="ytick_16">
     <g id="line2d_39">
      <path d="M 925.646562 199.461817 
L 1281.176562 199.461817 
" clip-path="url(#p45e37def13)" style="fill: none; stroke-dasharray: 3.7,1.6; stroke-dashoffset: 0; stroke: #cccccc; stroke-opacity: 0.3"/>
     </g>
     <g id="text_42">
      <!-- 2000 -->
      <g style="fill: #262626" transform="translate(888.151562 203.640958) scale(0.11 -0.11)">
       <use xlink:href="#DejaVuSans-32"/>
       <use xlink:href="#DejaVuSans-30" x="63.623047"/>
       <use xlink:href="#DejaVuSans-30" x="127.246094"/>
       <use xlink:href="#DejaVuSans-30" x="190.869141"/>
      </g>
     </g>
    </g>
    <g id="ytick_17">
     <g id="line2d_40">
      <path d="M 925.646562 168.771401 
L 1281.176562 168.771401 
" clip-path="url(#p45e37def13)" style="fill: none; stroke-dasharray: 3.7,1.6; stroke-dashoffset: 0; stroke: #cccccc; stroke-opacity: 0.3"/>
     </g>
     <g id="text_43">
      <!-- 4000 -->
      <g style="fill: #262626" transform="translate(888.151562 172.950542) scale(0.11 -0.11)">
       <use xlink:href="#DejaVuSans-34"/>
       <use xlink:href="#DejaVuSans-30" x="63.623047"/>
       <use xlink:href="#DejaVuSans-30" x="127.246094"/>
       <use xlink:href="#DejaVuSans-30" x="190.869141"/>
      </g>
     </g>
    </g>
    <g id="ytick_18">
     <g id="line2d_41">
      <path d="M 925.646562 138.080985 
L 1281.176562 138.080985 
" clip-path="url(#p45e37def13)" style="fill: none; stroke-dasharray: 3.7,1.6; stroke-dashoffset: 0; stroke: #cccccc; stroke-opacity: 0.3"/>
     </g>
     <g id="text_44">
      <!-- 6000 -->
      <g style="fill: #262626" transform="translate(888.151562 142.260126) scale(0.11 -0.11)">
       <defs>
        <path id="DejaVuSans-36" d="M 2113 2584 
Q 1688 2584 1439 2293 
Q 1191 2003 1191 1497 
Q 1191 994 1439 701 
Q 1688 409 2113 409 
Q 2538 409 2786 701 
Q 3034 994 3034 1497 
Q 3034 2003 2786 2293 
Q 2538 2584 2113 2584 
z
M 3366 4563 
L 3366 3988 
Q 3128 4100 2886 4159 
Q 2644 4219 2406 4219 
Q 1781 4219 1451 3797 
Q 1122 3375 1075 2522 
Q 1259 2794 1537 2939 
Q 1816 3084 2150 3084 
Q 2853 3084 3261 2657 
Q 3669 2231 3669 1497 
Q 3669 778 3244 343 
Q 2819 -91 2113 -91 
Q 1303 -91 875 529 
Q 447 1150 447 2328 
Q 447 3434 972 4092 
Q 1497 4750 2381 4750 
Q 2619 4750 2861 4703 
Q 3103 4656 3366 4563 
z
" transform="scale(0.015625)"/>
       </defs>
       <use xlink:href="#DejaVuSans-36"/>
       <use xlink:href="#DejaVuSans-30" x="63.623047"/>
       <use xlink:href="#DejaVuSans-30" x="127.246094"/>
       <use xlink:href="#DejaVuSans-30" x="190.869141"/>
      </g>
     </g>
    </g>
    <g id="ytick_19">
     <g id="line2d_42">
      <path d="M 925.646562 107.390569 
L 1281.176562 107.390569 
" clip-path="url(#p45e37def13)" style="fill: none; stroke-dasharray: 3.7,1.6; stroke-dashoffset: 0; stroke: #cccccc; stroke-opacity: 0.3"/>
     </g>
     <g id="text_45">
      <!-- 8000 -->
      <g style="fill: #262626" transform="translate(888.151562 111.56971) scale(0.11 -0.11)">
       <defs>
        <path id="DejaVuSans-38" d="M 2034 2216 
Q 1584 2216 1326 1975 
Q 1069 1734 1069 1313 
Q 1069 891 1326 650 
Q 1584 409 2034 409 
Q 2484 409 2743 651 
Q 3003 894 3003 1313 
Q 3003 1734 2745 1975 
Q 2488 2216 2034 2216 
z
M 1403 2484 
Q 997 2584 770 2862 
Q 544 3141 544 3541 
Q 544 4100 942 4425 
Q 1341 4750 2034 4750 
Q 2731 4750 3128 4425 
Q 3525 4100 3525 3541 
Q 3525 3141 3298 2862 
Q 3072 2584 2669 2484 
Q 3125 2378 3379 2068 
Q 3634 1759 3634 1313 
Q 3634 634 3220 271 
Q 2806 -91 2034 -91 
Q 1263 -91 848 271 
Q 434 634 434 1313 
Q 434 1759 690 2068 
Q 947 2378 1403 2484 
z
M 1172 3481 
Q 1172 3119 1398 2916 
Q 1625 2713 2034 2713 
Q 2441 2713 2670 2916 
Q 2900 3119 2900 3481 
Q 2900 3844 2670 4047 
Q 2441 4250 2034 4250 
Q 1625 4250 1398 4047 
Q 1172 3844 1172 3481 
z
" transform="scale(0.015625)"/>
       </defs>
       <use xlink:href="#DejaVuSans-38"/>
       <use xlink:href="#DejaVuSans-30" x="63.623047"/>
       <use xlink:href="#DejaVuSans-30" x="127.246094"/>
       <use xlink:href="#DejaVuSans-30" x="190.869141"/>
      </g>
     </g>
    </g>
    <g id="ytick_20">
     <g id="line2d_43">
      <path d="M 925.646562 76.700153 
L 1281.176562 76.700153 
" clip-path="url(#p45e37def13)" style="fill: none; stroke-dasharray: 3.7,1.6; stroke-dashoffset: 0; stroke: #cccccc; stroke-opacity: 0.3"/>
     </g>
     <g id="text_46">
      <!-- 10000 -->
      <g style="fill: #262626" transform="translate(881.152812 80.879294) scale(0.11 -0.11)">
       <use xlink:href="#DejaVuSans-31"/>
       <use xlink:href="#DejaVuSans-30" x="63.623047"/>
       <use xlink:href="#DejaVuSans-30" x="127.246094"/>
       <use xlink:href="#DejaVuSans-30" x="190.869141"/>
       <use xlink:href="#DejaVuSans-30" x="254.492188"/>
      </g>
     </g>
    </g>
    <g id="ytick_21">
     <g id="line2d_44">
      <path d="M 925.646562 46.009737 
L 1281.176562 46.009737 
" clip-path="url(#p45e37def13)" style="fill: none; stroke-dasharray: 3.7,1.6; stroke-dashoffset: 0; stroke: #cccccc; stroke-opacity: 0.3"/>
     </g>
     <g id="text_47">
      <!-- 12000 -->
      <g style="fill: #262626" transform="translate(881.152812 50.188878) scale(0.11 -0.11)">
       <use xlink:href="#DejaVuSans-31"/>
       <use xlink:href="#DejaVuSans-32" x="63.623047"/>
       <use xlink:href="#DejaVuSans-30" x="127.246094"/>
       <use xlink:href="#DejaVuSans-30" x="190.869141"/>
       <use xlink:href="#DejaVuSans-30" x="254.492188"/>
      </g>
     </g>
    </g>
    <g id="text_48">
     <!-- MAPE [%] -->
     <g style="fill: #262626" transform="translate(875.073125 154.918125) rotate(-90) scale(0.1 -0.1)">
      <defs>
       <path id="DejaVuSans-50" d="M 1259 4147 
L 1259 2394 
L 2053 2394 
Q 2494 2394 2734 2622 
Q 2975 2850 2975 3272 
Q 2975 3691 2734 3919 
Q 2494 4147 2053 4147 
L 1259 4147 
z
M 628 4666 
L 2053 4666 
Q 2838 4666 3239 4311 
Q 3641 3956 3641 3272 
Q 3641 2581 3239 2228 
Q 2838 1875 2053 1875 
L 1259 1875 
L 1259 0 
L 628 0 
L 628 4666 
z
" transform="scale(0.015625)"/>
       <path id="DejaVuSans-25" d="M 4653 2053 
Q 4381 2053 4226 1822 
Q 4072 1591 4072 1178 
Q 4072 772 4226 539 
Q 4381 306 4653 306 
Q 4919 306 5073 539 
Q 5228 772 5228 1178 
Q 5228 1588 5073 1820 
Q 4919 2053 4653 2053 
z
M 4653 2450 
Q 5147 2450 5437 2106 
Q 5728 1763 5728 1178 
Q 5728 594 5436 251 
Q 5144 -91 4653 -91 
Q 4153 -91 3862 251 
Q 3572 594 3572 1178 
Q 3572 1766 3864 2108 
Q 4156 2450 4653 2450 
z
M 1428 4353 
Q 1159 4353 1004 4120 
Q 850 3888 850 3481 
Q 850 3069 1003 2837 
Q 1156 2606 1428 2606 
Q 1700 2606 1854 2837 
Q 2009 3069 2009 3481 
Q 2009 3884 1853 4118 
Q 1697 4353 1428 4353 
z
M 4250 4750 
L 4750 4750 
L 1831 -91 
L 1331 -91 
L 4250 4750 
z
M 1428 4750 
Q 1922 4750 2215 4408 
Q 2509 4066 2509 3481 
Q 2509 2891 2217 2550 
Q 1925 2209 1428 2209 
Q 931 2209 642 2551 
Q 353 2894 353 3481 
Q 353 4063 643 4406 
Q 934 4750 1428 4750 
z
" transform="scale(0.015625)"/>
      </defs>
      <use xlink:href="#DejaVuSans-4d"/>
      <use xlink:href="#DejaVuSans-41" x="86.279297"/>
      <use xlink:href="#DejaVuSans-50" x="154.6875"/>
      <use xlink:href="#DejaVuSans-45" x="214.990234"/>
      <use xlink:href="#DejaVuSans-20" x="278.173828"/>
      <use xlink:href="#DejaVuSans-5b" x="309.960938"/>
      <use xlink:href="#DejaVuSans-25" x="348.974609"/>
      <use xlink:href="#DejaVuSans-5d" x="443.994141"/>
     </g>
    </g>
   </g>
   <g id="line2d_45">
    <path d="M 941.807017 32.177216 
L 949.502472 33.067103 
L 957.197926 33.428105 
L 964.893381 38.573575 
L 972.588835 35.997663 
L 980.28429 42.202492 
L 987.979744 48.09186 
L 995.675199 52.79596 
L 1003.370653 52.938293 
L 1011.066108 68.239654 
L 1018.761562 66.950626 
L 1026.457017 76.494072 
L 1034.152472 91.191799 
L 1041.847926 106.124012 
L 1049.543381 109.587332 
L 1057.238835 116.442301 
L 1064.93429 143.619399 
L 1072.629744 134.708711 
L 1080.325199 142.946165 
L 1088.020653 146.135518 
L 1095.716108 158.302103 
L 1103.411562 168.414348 
L 1111.107017 167.17968 
L 1118.802472 167.757265 
L 1126.497926 160.879483 
L 1134.193381 175.888161 
L 1141.888835 176.04618 
L 1149.58429 174.444104 
L 1157.279744 172.876997 
L 1164.975199 173.123334 
L 1172.670653 173.528337 
L 1180.366108 178.032897 
L 1188.061562 162.162786 
L 1195.757017 178.473817 
L 1203.452472 177.361499 
L 1211.147926 173.196796 
L 1218.843381 170.670569 
L 1226.538835 168.145031 
L 1234.23429 178.909901 
L 1241.929744 180.379186 
L 1249.625199 177.486584 
L 1257.320653 172.982821 
L 1265.016108 173.786381 
" clip-path="url(#p45e37def13)" style="fill: none; stroke: #0072b2; stroke-width: 1.8; stroke-linecap: round"/>
   </g>
   <g id="line2d_46">
    <path d="M 941.807017 229.325133 
L 949.502472 229.347048 
L 957.197926 229.336145 
L 964.893381 229.324372 
L 972.588835 229.340336 
L 980.28429 229.353847 
L 987.979744 229.359034 
L 995.675199 229.341669 
L 1003.370653 229.349246 
L 1011.066108 229.337503 
L 1018.761562 229.337625 
L 1026.457017 229.333813 
L 1034.152472 229.342689 
L 1041.847926 229.335915 
L 1049.543381 229.329312 
L 1057.238835 229.323286 
L 1064.93429 229.330798 
L 1072.629744 229.30236 
L 1080.325199 229.31555 
L 1088.020653 229.326454 
L 1095.716108 229.328067 
L 1103.411562 229.320489 
L 1111.107017 229.330178 
L 1118.802472 229.32907 
L 1126.497926 229.318272 
L 1134.193381 229.331876 
L 1141.888835 229.311884 
L 1149.58429 229.311173 
L 1157.279744 229.313197 
L 1164.975199 229.326015 
L 1172.670653 229.318417 
L 1180.366108 229.321437 
L 1188.061562 229.321091 
L 1195.757017 229.315565 
L 1203.452472 229.324072 
L 1211.147926 229.326674 
L 1218.843381 229.322258 
L 1226.538835 229.33193 
L 1234.23429 229.318156 
L 1241.929744 229.326837 
L 1249.625199 229.320079 
L 1257.320653 229.320257 
L 1265.016108 229.322779 
" clip-path="url(#p45e37def13)" style="fill: none; stroke: #009e73; stroke-width: 1.8; stroke-linecap: round"/>
   </g>
   <g id="patch_11">
    <path d="M 925.646562 239.218125 
L 925.646562 22.318125 
" style="fill: none; stroke: #cccccc; stroke-width: 1.25; stroke-linejoin: miter; stroke-linecap: square"/>
   </g>
   <g id="patch_12">
    <path d="M 925.646562 239.218125 
L 1281.176562 239.218125 
" style="fill: none; stroke: #cccccc; stroke-width: 1.25; stroke-linejoin: miter; stroke-linecap: square"/>
   </g>
   <g id="text_49">
    <!-- PatchTST — MAPE [%] -->
    <g style="fill: #262626" transform="translate(1029.045312 16.318125) scale(0.12 -0.12)">
     <defs>
      <path id="DejaVuSans-Bold-25" d="M 4959 1925 
Q 4738 1925 4616 1733 
Q 4494 1541 4494 1184 
Q 4494 825 4614 633 
Q 4734 441 4959 441 
Q 5184 441 5303 633 
Q 5422 825 5422 1184 
Q 5422 1541 5301 1733 
Q 5181 1925 4959 1925 
z
M 4959 2450 
Q 5541 2450 5875 2112 
Q 6209 1775 6209 1184 
Q 6209 594 5875 251 
Q 5541 -91 4959 -91 
Q 4378 -91 4042 251 
Q 3706 594 3706 1184 
Q 3706 1772 4042 2111 
Q 4378 2450 4959 2450 
z
M 2094 -91 
L 1403 -91 
L 4319 4750 
L 5013 4750 
L 2094 -91 
z
M 1453 4750 
Q 2034 4750 2367 4411 
Q 2700 4072 2700 3481 
Q 2700 2891 2367 2550 
Q 2034 2209 1453 2209 
Q 872 2209 539 2550 
Q 206 2891 206 3481 
Q 206 4072 539 4411 
Q 872 4750 1453 4750 
z
M 1453 4225 
Q 1228 4225 1106 4031 
Q 984 3838 984 3481 
Q 984 3122 1106 2926 
Q 1228 2731 1453 2731 
Q 1678 2731 1798 2926 
Q 1919 3122 1919 3481 
Q 1919 3838 1797 4031 
Q 1675 4225 1453 4225 
z
" transform="scale(0.015625)"/>
     </defs>
     <use xlink:href="#DejaVuSans-Bold-50"/>
     <use xlink:href="#DejaVuSans-Bold-61" x="70.666016"/>
     <use xlink:href="#DejaVuSans-Bold-74" x="138.146484"/>
     <use xlink:href="#DejaVuSans-Bold-63" x="185.949219"/>
     <use xlink:href="#DejaVuSans-Bold-68" x="245.226562"/>
     <use xlink:href="#DejaVuSans-Bold-54" x="316.417969"/>
     <use xlink:href="#DejaVuSans-Bold-53" x="384.630859"/>
     <use xlink:href="#DejaVuSans-Bold-54" x="456.652344"/>
     <use xlink:href="#DejaVuSans-Bold-20" x="524.865234"/>
     <use xlink:href="#DejaVuSans-Bold-2014" x="559.679688"/>
     <use xlink:href="#DejaVuSans-Bold-20" x="659.679688"/>
     <use xlink:href="#DejaVuSans-Bold-4d" x="694.494141"/>
     <use xlink:href="#DejaVuSans-Bold-41" x="794.005859"/>
     <use xlink:href="#DejaVuSans-Bold-50" x="871.398438"/>
     <use xlink:href="#DejaVuSans-Bold-45" x="944.689453"/>
     <use xlink:href="#DejaVuSans-Bold-20" x="1013"/>
     <use xlink:href="#DejaVuSans-Bold-5b" x="1047.814453"/>
     <use xlink:href="#DejaVuSans-Bold-25" x="1093.517578"/>
     <use xlink:href="#DejaVuSans-Bold-5d" x="1193.712891"/>
    </g>
   </g>
   <g id="legend_3">
    <g id="patch_13">
     <path d="M 1177.795469 63.41 
L 1273.476562 63.41 
Q 1275.676562 63.41 1275.676562 61.21 
L 1275.676562 30.018125 
Q 1275.676562 27.818125 1273.476562 27.818125 
L 1177.795469 27.818125 
Q 1175.595469 27.818125 1175.595469 30.018125 
L 1175.595469 61.21 
Q 1175.595469 63.41 1177.795469 63.41 
z
" style="fill: #ffffff; opacity: 0.95; stroke: #cccccc; stroke-linejoin: miter"/>
    </g>
    <g id="line2d_47">
     <path d="M 1179.995469 36.726406 
L 1190.995469 36.726406 
L 1201.995469 36.726406 
" style="fill: none; stroke: #0072b2; stroke-width: 1.8; stroke-linecap: round"/>
    </g>
    <g id="text_50">
     <!-- Train MAPE -->
     <g style="fill: #262626" transform="translate(1210.795469 40.576406) scale(0.11 -0.11)">
      <use xlink:href="#DejaVuSans-54"/>
      <use xlink:href="#DejaVuSans-72" x="46.333984"/>
      <use xlink:href="#DejaVuSans-61" x="87.447266"/>
      <use xlink:href="#DejaVuSans-69" x="148.726562"/>
      <use xlink:href="#DejaVuSans-6e" x="176.509766"/>
      <use xlink:href="#DejaVuSans-20" x="239.888672"/>
      <use xlink:href="#DejaVuSans-4d" x="271.675781"/>
      <use xlink:href="#DejaVuSans-41" x="357.955078"/>
      <use xlink:href="#DejaVuSans-50" x="426.363281"/>
      <use xlink:href="#DejaVuSans-45" x="486.666016"/>
     </g>
    </g>
    <g id="line2d_48">
     <path d="M 1179.995469 52.872344 
L 1190.995469 52.872344 
L 1201.995469 52.872344 
" style="fill: none; stroke: #009e73; stroke-width: 1.8; stroke-linecap: round"/>
    </g>
    <g id="text_51">
     <!-- Val MAPE -->
     <g style="fill: #262626" transform="translate(1210.795469 56.722344) scale(0.11 -0.11)">
      <use xlink:href="#DejaVuSans-56"/>
      <use xlink:href="#DejaVuSans-61" x="60.658203"/>
      <use xlink:href="#DejaVuSans-6c" x="121.9375"/>
      <use xlink:href="#DejaVuSans-20" x="149.720703"/>
      <use xlink:href="#DejaVuSans-4d" x="181.507812"/>
      <use xlink:href="#DejaVuSans-41" x="267.787109"/>
      <use xlink:href="#DejaVuSans-50" x="336.195312"/>
      <use xlink:href="#DejaVuSans-45" x="396.498047"/>
     </g>
    </g>
   </g>
  </g>
 </g>
 <defs>
  <clipPath id="p4139cc3115">
   <rect x="75.866563" y="22.318125" width="355.53" height="216.9"/>
  </clipPath>
  <clipPath id="pee28240176">
   <rect x="500.756562" y="22.318125" width="355.53" height="216.9"/>
  </clipPath>
  <clipPath id="p45e37def13">
   <rect x="925.646562" y="22.318125" width="355.53" height="216.9"/>
  </clipPath>
 </defs>
</svg>
